<?xml version="1.0" standalone="no"?>
<!DOCTYPE svg PUBLIC "-//W3C//DTD SVG 1.1//EN" "http://www.w3.org/Graphics/SVG/1.1/DTD/svg11.dtd" >
<svg>
<metadata>
Created by FontForge 20120731 at Thu Sep  5 14:25:05 2019
 By www
Copyright (c) 2004-9 by Kris Sowersby. All rights reserved.
</metadata>
<defs>
<font id="National-Regular" horiz-adv-x="534" >
  <font-face 
    font-family="National"
    font-weight="400"
    font-stretch="normal"
    units-per-em="1000"
    panose-1="2 0 5 3 0 0 0 2 0 4"
    ascent="800"
    descent="-200"
    x-height="462"
    cap-height="589"
    bbox="-342 -257 1182 971"
    underline-thickness="57"
    underline-position="-28"
    unicode-range="U+0020-F778"
  />
<missing-glyph horiz-adv-x="755" 
d="M83 589h589v-589h-589v589zM156 43h443l-222 221zM377 324l222 222h-443zM629 73v443l-222 -222zM126 516v-443l221 221z" />
    <glyph glyph-name="f_b" unicode="fb" horiz-adv-x="796" 
d="M424 179q0 -62 33.5 -92.5t78.5 -30.5q55 0 90 45.5t35 132.5q0 82 -30.5 123.5t-84.5 41.5q-52 0 -87 -36t-35 -97v-87zM334 581q-38 22 -80 22q-82 0 -82 -91v-50h97v-72h-97v-390h-91v390h-67v72h67v49q0 86 49 125t118 39q56 0 100 -21l76 14v-294q16 49 56 74t92 25
q86 0 134 -60t48 -171q0 -109 -53.5 -181.5t-144.5 -72.5q-110 0 -139 79l-24 -67h-59v581z" />
    <glyph glyph-name="f_f_b" unicode="ffb" horiz-adv-x="1048" 
d="M677 179q0 -61 33.5 -92t77.5 -31q55 0 90.5 45.5t35.5 132.5q0 81 -30.5 123t-85.5 42q-51 0 -86 -36t-35 -97v-87zM677 374q16 49 56 74t91 25q86 0 134 -60t48 -171q0 -109 -53.5 -181.5t-144.5 -72.5q-56 0 -91 22t-48 57l-23 -67h-60v581q-38 22 -80 22
q-82 0 -82 -91v-50h98v-72h-98v-390h-90v390h-162v-390h-91v390h-67v72h67v48q0 83 43 119.5t106 36.5q46 0 84 -18l-17 -78q-29 20 -63 20q-62 0 -62 -78v-50h162v49q0 86 48.5 125t118.5 39q56 0 100 -21l76 14v-294z" />
    <glyph glyph-name="f_f_h" unicode="ffh" horiz-adv-x="1024" 
d="M677 374q33 99 139 99q62 0 101.5 -35.5t39.5 -107.5v-330h-91v304q0 91 -80 91q-109 0 -109 -130v-265h-91v581q-38 22 -80 22q-82 0 -82 -91v-50h98v-72h-98v-390h-90v390h-162v-390h-91v390h-67v72h67v48q0 83 43 119.5t106 36.5q46 0 84 -18l-17 -78q-29 20 -63 20
q-62 0 -62 -78v-50h162v49q0 86 48.5 125t118.5 39q56 0 100 -21l76 14v-294z" />
    <glyph glyph-name="f_f_j" unicode="ffj" horiz-adv-x="749" 
d="M424 0h-90v390h-162v-390h-91v390h-67v72h67v48q0 83 43 119.5t106 36.5q46 0 84 -18l-17 -78q-29 20 -63 20q-62 0 -62 -78v-50h162v45q0 88 50.5 128t121.5 40q76 0 127 -33l-32 -74q-42 31 -92 31q-85 0 -85 -95v-42h253v-469q0 -109 -56 -154.5t-164 -41.5v76
q67 -6 98 21.5t31 94.5v401h-162v-390z" />
    <glyph glyph-name="f_f_k" unicode="ffk" horiz-adv-x="982" 
d="M677 277h22l153 185h109l-185 -215l200 -247h-111l-161 207h-27v-207h-91v581q-38 22 -80 22q-82 0 -82 -91v-50h98v-72h-98v-390h-90v390h-162v-390h-91v390h-67v72h67v48q0 83 43 119.5t106 36.5q46 0 84 -18l-17 -78q-29 20 -63 20q-62 0 -62 -78v-50h162v49
q0 86 48.5 125t118.5 39q56 0 100 -21l76 14v-391z" />
    <glyph glyph-name="f_h" unicode="fh" horiz-adv-x="771" 
d="M424 374q33 99 140 99q61 0 100.5 -35.5t39.5 -107.5v-330h-90v304q0 91 -81 91q-48 0 -78.5 -30t-30.5 -100v-265h-90v581q-38 22 -80 22q-82 0 -82 -91v-50h97v-72h-97v-390h-91v390h-67v72h67v49q0 86 49 125t118 39q56 0 100 -21l76 14v-294z" />
    <glyph glyph-name="f_j" unicode="fj" horiz-adv-x="496" 
d="M334 390h-162v-390h-91v390h-67v72h67v45q0 88 51 128t122 40q75 0 126 -33l-32 -74q-42 31 -92 31q-84 0 -84 -95v-42h252v-469q0 -109 -56 -154.5t-164 -41.5v76q68 -6 99 21.5t31 94.5v401z" />
    <glyph glyph-name="f_k" unicode="fk" horiz-adv-x="730" 
d="M424 277h22l154 185h109l-186 -215l201 -247h-111l-162 207h-27v-207h-90v581q-38 22 -80 22q-82 0 -82 -91v-50h97v-72h-97v-390h-91v390h-67v72h67v49q0 86 49 125t118 39q56 0 100 -21l76 14v-391z" />
    <glyph glyph-name="uniE389" unicode="ff" horiz-adv-x="536" 
d="M172 390v-390h-91v390h-67v72h67v48q0 83 43 119.5t106 36.5q46 0 84 -18l-17 -78q-29 20 -63 20q-62 0 -62 -78v-50h162v52q0 84 45.5 122.5t113.5 38.5q51 0 95 -18l-17 -80q-36 21 -73 21q-74 0 -74 -89v-47h118v-72h-118v-390h-90v390h-162z" />
    <glyph glyph-name="uniE38A" unicode="ffi" horiz-adv-x="749" 
d="M334 507q0 88 50.5 128t121.5 40q76 0 127 -33l-32 -74q-42 31 -92 31q-85 0 -85 -95v-42h253v-462h-91v390h-162v-390h-90v390h-162v-390h-91v390h-67v72h67v48q0 83 43 119.5t106 36.5q46 0 84 -18l-17 -78q-29 20 -63 20q-62 0 -62 -78v-50h162v45z" />
    <glyph glyph-name="uniE38B" unicode="ffl" horiz-adv-x="782" 
d="M334 511q0 86 48.5 125t118.5 39q56 0 100 -21l76 14v-557q0 -41 40 -41q15 0 33 5l-2 -75q-32 -8 -56 -8q-46 0 -76 25.5t-30 74.5v489q-38 22 -80 22q-82 0 -82 -91v-50h98v-72h-98v-390h-90v390h-162v-390h-91v390h-67v72h67v48q0 83 43 119.5t106 36.5q46 0 84 -18
l-17 -78q-29 20 -63 20q-62 0 -62 -78v-50h162v49z" />
    <glyph glyph-name="fi" unicode="fi" horiz-adv-x="496" 
d="M14 390v72h67v45q0 88 51 128t122 40q75 0 126 -33l-32 -74q-42 31 -92 31q-84 0 -84 -95v-42h252v-462h-90v390h-162v-390h-91v390h-67z" />
    <glyph glyph-name="fl" unicode="fl" horiz-adv-x="529" 
d="M495 0q-31 -8 -56 -8q-46 0 -75.5 25.5t-29.5 74.5v489q-38 22 -80 22q-82 0 -82 -91v-50h97v-72h-97v-390h-91v390h-67v72h67v49q0 86 49 125t118 39q56 0 100 -21l76 14v-557q0 -41 41 -41q15 0 32 5z" />
    <glyph glyph-name=".notdef" horiz-adv-x="755" 
d="M83 589h589v-589h-589v589zM156 43h443l-222 221zM377 324l222 222h-443zM629 73v443l-222 -222zM126 516v-443l221 221z" />
    <glyph glyph-name=".null" horiz-adv-x="0" 
 />
    <glyph glyph-name="nonmarkingreturn" horiz-adv-x="333" 
 />
    <glyph glyph-name="space" unicode=" " horiz-adv-x="221" 
 />
    <glyph glyph-name="exclam" unicode="!" horiz-adv-x="229" 
d="M172 589l-27 -415h-61l-27 415h115zM51 56q0 27 18 44.5t45 17.5t45.5 -17.5t18.5 -44.5q0 -26 -18.5 -44t-45.5 -18q-26 0 -44.5 18t-18.5 44z" />
    <glyph glyph-name="quotedbl" unicode="&#x22;" horiz-adv-x="348" 
d="M61 668h98l-42 -256h-56v256zM209 668h98l-42 -256h-56v256z" />
    <glyph glyph-name="numbersign" unicode="#" horiz-adv-x="613" 
d="M395 144l-43 -144h-69l43 144h-104l-43 -144h-69l43 144h-115v67h135l26 87h-141v67h161l35 116h70l-35 -116h103l35 116h71l-35 -116h112v-67h-133l-26 -87h139v-67h-160zM242 211h104l26 87h-103z" />
    <glyph glyph-name="dollar" unicode="$" horiz-adv-x="452" 
d="M210 -12q-155 5 -174 127l84 18q10 -70 90 -78v147l-34 8q-122 27 -122 139q0 68 43.5 102.5t112.5 40.5v82h50v-82q137 -8 150 -129l-88 -9q-5 58 -62 70v-147l18 -3q134 -26 134 -146q0 -124 -152 -138v-96h-50v94zM140 358q0 -29 16 -46.5t53 -24.5h1v139
q-33 -4 -51.5 -22t-18.5 -46zM326 120q0 29 -14.5 45.5t-51.5 25.5v-135q66 10 66 64z" />
    <glyph glyph-name="percent" unicode="%" horiz-adv-x="863" 
d="M175 229q-69 0 -105.5 50t-36.5 134q0 82 38.5 133t103.5 51t103 -51t38 -133q0 -84 -36.5 -134t-104.5 -50zM175 534q-34 0 -52 -33t-18 -89q0 -55 18.5 -89.5t51.5 -34.5t51.5 35t18.5 89q0 56 -18 89t-52 33zM554 590h62l-306 -590h-62zM689 -7q-69 0 -105.5 50
t-36.5 134q0 82 38.5 133t103.5 51t103 -51t38 -133q0 -84 -36.5 -134t-104.5 -50zM689 298q-34 0 -52 -33t-18 -89q0 -55 18.5 -89.5t51.5 -34.5t51.5 35t18.5 89q0 56 -18 89t-52 33z" />
    <glyph glyph-name="ampersand" unicode="&#x26;" horiz-adv-x="552" 
d="M479 -13l-73 77q-76 -76 -196 -76q-84 0 -136 39.5t-52 117.5q0 123 134 171l-26 27q-56 58 -56 122q0 63 44 99.5t116 36.5t116 -37t44 -98q0 -104 -118 -152l128 -131q21 43 23 111l79 -22q-11 -91 -47 -143l84 -83zM112 151q0 -43 29.5 -68.5t74.5 -25.5q88 0 140 57
l-157 159q-44 -20 -65.5 -47.5t-21.5 -74.5zM234 537q-34 0 -54 -18.5t-20 -49.5q0 -36 41 -79l34 -35q74 34 74 108t-75 74z" />
    <glyph glyph-name="quotesingle" unicode="'" horiz-adv-x="200" 
d="M61 668h98l-42 -256h-56v256z" />
    <glyph glyph-name="parenleft" unicode="(" horiz-adv-x="337" 
d="M155 233q0 -130 43.5 -227.5t132.5 -207.5h-100q-77 94 -121 197t-44 238t44 238t121 197h100q-89 -110 -132.5 -207.5t-43.5 -227.5z" />
    <glyph glyph-name="parenright" unicode=")" horiz-adv-x="337" 
d="M182 233q0 130 -43.5 227.5t-132.5 207.5h100q78 -93 121.5 -196.5t43.5 -238.5t-43.5 -238.5t-121.5 -196.5h-100q89 110 132.5 207.5t43.5 227.5z" />
    <glyph glyph-name="asterisk" unicode="*" horiz-adv-x="366" 
d="M208 491l90 44l23 -69l-101 -17l72 -77l-61 -43l-48 90l-48 -91l-59 45l71 76l-102 17l24 68l90 -43l-13 100h75z" />
    <glyph glyph-name="plus" unicode="+" horiz-adv-x="498" 
d="M220 275v170h54v-170h179v-54h-179v-184h-54v184h-175v54h175z" />
    <glyph glyph-name="comma" unicode="," horiz-adv-x="283" 
d="M209 33q0 -139 -152 -147v43q81 12 81 74q-31 -6 -51.5 10.5t-20.5 45.5t18.5 45.5t48.5 16.5q32 0 54 -24t22 -64z" />
    <glyph glyph-name="hyphen" unicode="-" horiz-adv-x="366" 
d="M68 295h230v-76h-230v76z" />
    <glyph glyph-name="period" unicode="." horiz-adv-x="286" 
d="M75 62q0 29 19.5 48.5t48.5 19.5t48.5 -19.5t19.5 -48.5q0 -28 -19.5 -48t-48.5 -20t-48.5 20t-19.5 48z" />
    <glyph glyph-name="slash" unicode="/" horiz-adv-x="396" 
d="M284 669h82l-276 -872h-80z" />
    <glyph glyph-name="zero" unicode="0" horiz-adv-x="561" 
d="M281 -12q-110 0 -171 84.5t-61 221.5q0 130 63 218.5t169 88.5q105 0 168 -88.5t63 -218.5q0 -137 -60.5 -221.5t-170.5 -84.5zM280 521q-65 0 -103 -63.5t-38 -165.5q0 -100 38 -164.5t103 -64.5t102.5 64.5t37.5 164.5q0 102 -37.5 165.5t-102.5 63.5z" />
    <glyph glyph-name="one" unicode="1" horiz-adv-x="333" 
d="M142 0v490l-127 -21v82l220 39v-590h-93z" />
    <glyph glyph-name="two" unicode="2" horiz-adv-x="452" 
d="M416 0h-381v71q142 114 182 154q97 98 97 191q0 53 -27 81.5t-75 28.5q-46 0 -71.5 -25.5t-25.5 -67.5q0 -54 50 -95l-75 -37q-24 19 -43.5 54.5t-19.5 78.5q0 69 48 118t140 49q86 0 139 -45.5t53 -136.5q0 -60 -26.5 -115t-71 -97.5t-83.5 -70.5t-83 -52v-4h273v-80z
" />
    <glyph glyph-name="three" unicode="3" horiz-adv-x="446" 
d="M244 305q79 -4 120.5 -45.5t41.5 -111.5q0 -74 -56.5 -117t-142.5 -43t-138.5 36.5t-61.5 100.5l88 21q16 -90 114 -90q48 0 76.5 26t28.5 71q0 55 -38.5 83.5t-130.5 32.5v69q94 11 125.5 37t31.5 77q0 35 -24.5 54t-65.5 19q-77 0 -91 -78l-89 20q12 61 60 97.5
t125 36.5t128 -37t51 -108q0 -64 -38.5 -101.5t-113.5 -44.5v-5z" />
    <glyph glyph-name="four" unicode="4" horiz-adv-x="513" 
d="M300 154h-284v61l285 374h90v-363h96v-72h-96v-154h-91v154zM300 374l4 114h-4q-18 -36 -59 -93l-78 -106q-14 -19 -28 -35t-21 -22l-6 -6v-4q19 4 77 4h115v148z" />
    <glyph glyph-name="five" unicode="5" horiz-adv-x="457" 
d="M89 589h303v-80h-227l-6 -174q32 30 84 30q77 0 123 -47.5t46 -135.5q0 -94 -56 -144t-149 -50q-171 0 -189 140l80 24q15 -97 113 -97q52 0 83 30.5t31 91.5q0 58 -29 89.5t-80 31.5q-34 0 -70 -26h-68z" />
    <glyph glyph-name="six" unicode="6" horiz-adv-x="508" 
d="M386 450q-28 77 -103 77q-148 0 -150 -272h3q13 59 51.5 89t94.5 30q87 0 137 -53.5t50 -135.5q0 -85 -54.5 -141t-149.5 -56q-101 0 -158.5 73.5t-57.5 214.5q0 159 67.5 242t170.5 83q127 0 173 -113zM153 178q0 -54 32.5 -86.5t82.5 -32.5t82.5 32.5t32.5 86.5
q0 56 -32 89t-83 33q-50 0 -82.5 -33t-32.5 -89z" />
    <glyph glyph-name="seven" unicode="7" horiz-adv-x="434" 
d="M93 509v-73h-82v153h402v-61l-211 -528h-94l204 509h-219z" />
    <glyph glyph-name="eight" unicode="8" horiz-adv-x="494" 
d="M247 -12q-93 0 -148 43.5t-55 117.5q0 55 30 93.5t81 54.5v5q-99 31 -99 139q0 72 52.5 116t138.5 44t138.5 -44t52.5 -116q0 -108 -100 -139v-5q51 -16 81.5 -54.5t30.5 -93.5q0 -74 -55 -117.5t-148 -43.5zM247 535q-48 0 -74.5 -26t-26.5 -70q0 -52 27.5 -77.5
t73.5 -25.5t73.5 25.5t27.5 77.5q0 44 -26.5 70t-74.5 26zM247 265q-49 0 -81.5 -27t-32.5 -77q0 -49 30.5 -77.5t83.5 -28.5t83 28.5t30 77.5q0 50 -32 77t-81 27z" />
    <glyph glyph-name="nine" unicode="9" horiz-adv-x="519" 
d="M110 140q30 -81 116 -81q167 0 161 283h-4q-10 -64 -50.5 -97t-99.5 -33q-86 0 -137 54t-51 134q0 86 53.5 143.5t149.5 57.5q105 0 163.5 -72t58.5 -213q0 -164 -63 -246t-184 -82q-141 0 -186 113zM362 408q0 54 -33 87t-82 33q-51 0 -83.5 -32.5t-32.5 -87.5
q0 -57 32.5 -90.5t83.5 -33.5q49 0 82 34t33 90z" />
    <glyph glyph-name="colon" unicode=":" horiz-adv-x="286" 
d="M75 62q0 29 19.5 48.5t48.5 19.5t48.5 -19.5t19.5 -48.5q0 -28 -19.5 -48t-48.5 -20t-48.5 20t-19.5 48zM75 395q0 29 19.5 48.5t48.5 19.5t48.5 -19.5t19.5 -48.5t-19.5 -48.5t-48.5 -19.5t-48.5 19.5t-19.5 48.5z" />
    <glyph glyph-name="semicolon" unicode=";" horiz-adv-x="283" 
d="M209 33q0 -139 -152 -147v43q81 12 81 74q-31 -6 -51.5 10.5t-20.5 45.5t18.5 45.5t48.5 16.5q32 0 54 -24t22 -64zM66 395q0 29 19.5 48.5t48.5 19.5t48.5 -19.5t19.5 -48.5t-20 -48.5t-48 -19.5t-48 19.5t-20 48.5z" />
    <glyph glyph-name="less" unicode="&#x3c;" horiz-adv-x="384" 
d="M126 247l207 -172l-36 -42l-252 214l253 212l35 -42z" />
    <glyph glyph-name="equal" unicode="=" horiz-adv-x="498" 
d="M45 154v53h408v-53h-408zM45 285v53h408v-53h-408z" />
    <glyph glyph-name="greater" unicode="&#x3e;" horiz-adv-x="384" 
d="M47 417l35 42l252 -212l-251 -214l-37 42l207 172z" />
    <glyph glyph-name="question" unicode="?" horiz-adv-x="394" 
d="M0 460q14 65 62 103t127 38q85 0 136.5 -48.5t51.5 -126.5q0 -85 -52 -131t-121 -48v-82h-82v134h36q126 0 126 120q0 53 -27.5 79.5t-73.5 26.5q-89 0 -103 -94zM100 56q0 27 18 44.5t45 17.5t45.5 -17.5t18.5 -44.5q0 -26 -18.5 -44t-45.5 -18t-45 18t-18 44z" />
    <glyph glyph-name="at" unicode="@" horiz-adv-x="885" 
d="M528 246q0 47 -29.5 72t-65.5 25q-46 0 -74.5 -35.5t-28.5 -113.5q0 -66 27.5 -101.5t74.5 -35.5q36 0 66 26.5t30 75.5v87zM611 97q0 -53 42 -53q56 0 83.5 58t27.5 155q0 136 -89.5 208t-221.5 72q-89 0 -163.5 -35.5t-123.5 -114t-49 -188.5q0 -168 101.5 -254
t260.5 -86q99 0 184 30l15 -59q-95 -31 -200 -31q-89 0 -165 23t-137 69t-96 125t-35 183q0 176 112.5 286.5t298.5 110.5q181 0 279.5 -95.5t98.5 -239.5q0 -273 -193 -273q-103 0 -111 83q-29 -83 -129 -83q-67 0 -112.5 53t-45.5 150q0 103 46.5 160t132.5 57
q40 0 70 -17.5t40 -43.5l25 52h54v-302z" />
    <glyph glyph-name="A" unicode="A" horiz-adv-x="569" 
d="M403 161h-241l-56 -161h-96l215 589h121l213 -589h-99zM188 237h188l-45 132q-15 41 -26.5 79.5t-15.5 57.5l-4 18h-4q-14 -62 -46 -154z" />
    <glyph glyph-name="B" unicode="B" horiz-adv-x="528" 
d="M353 301q57 -6 93.5 -41t36.5 -95q0 -78 -52 -121.5t-157 -43.5h-191v589h193q183 0 183 -150q0 -56 -29 -91t-77 -44v-3zM266 331q100 0 100 91q0 90 -106 90h-85v-181h91zM175 77h106q109 0 109 96q0 85 -110 85h-105v-181z" />
    <glyph glyph-name="C" unicode="C" horiz-adv-x="563" 
d="M539 110q-41 -64 -96 -93t-141 -29q-117 0 -187.5 80.5t-70.5 224.5q0 145 75 226.5t200 81.5q161 0 221 -142l-86 -42q-36 105 -140 105q-82 0 -128 -61.5t-46 -167.5t43 -164.5t126 -58.5q54 0 91.5 21.5t67.5 70.5z" />
    <glyph glyph-name="D" unicode="D" horiz-adv-x="594" 
d="M254 77q92 0 145.5 53.5t53.5 166.5q0 215 -190 215h-88v-435h79zM83 0v589h183q131 0 207.5 -70t76.5 -218q0 -154 -79.5 -227.5t-207.5 -73.5h-180z" />
    <glyph glyph-name="E" unicode="E" horiz-adv-x="496" 
d="M446 0h-363v589h363v-80h-271v-174h240v-80h-240v-175h271v-80z" />
    <glyph glyph-name="F" unicode="F" horiz-adv-x="461" 
d="M83 0v589h347v-80h-255v-180h224v-80h-224v-249h-92z" />
    <glyph glyph-name="G" unicode="G" horiz-adv-x="610" 
d="M547 304v-304h-73l-12 76q-17 -42 -62.5 -65t-99.5 -23q-116 0 -186 79t-70 225q0 145 75 227t200 82q166 0 221 -142l-86 -42q-18 52 -54.5 78.5t-85.5 26.5q-79 0 -126.5 -60.5t-47.5 -169.5q0 -104 43 -166t126 -62q63 0 105 30t42 86v44h-143v80h234z" />
    <glyph glyph-name="H" unicode="H" horiz-adv-x="631" 
d="M83 0v589h92v-250h281v250h92v-589h-92v259h-281v-259h-92z" />
    <glyph glyph-name="I" unicode="I" horiz-adv-x="258" 
d="M175 589v-589h-92v589h92z" />
    <glyph glyph-name="J" unicode="J" horiz-adv-x="437" 
d="M373 589v-418q0 -95 -52 -139t-134 -44q-131 0 -187 115l72 54q24 -51 49 -71.5t67 -20.5q53 0 72.5 32t19.5 95v397h93z" />
    <glyph glyph-name="K" unicode="K" horiz-adv-x="537" 
d="M406 0l-185 259h-46v-259h-92v589h92v-250h49l172 250h108l-205 -286l220 -303h-113z" />
    <glyph glyph-name="L" unicode="L" horiz-adv-x="461" 
d="M175 589v-509h264v-80h-356v589h92z" />
    <glyph glyph-name="M" unicode="M" horiz-adv-x="719" 
d="M329 144l-111 204q-15 28 -26 53.5t-14 36.5l-4 11h-4q5 -36 5 -106v-343h-92v589h107l140 -272q10 -20 17.5 -38t10.5 -26l2 -8h4q6 27 30 72l139 272h103v-589h-93v343q0 31 1.5 57.5t3.5 37.5l1 11h-4q-10 -37 -45 -101l-110 -204h-61z" />
    <glyph glyph-name="N" unicode="N" horiz-adv-x="650" 
d="M409 252q16 -23 32.5 -51t25.5 -45l9 -16h4q-5 63 -5 137v312h92v-589h-91l-235 336q-16 24 -33 52.5t-26 45.5l-9 16h-4q6 -63 6 -139v-311h-92v589h94z" />
    <glyph glyph-name="O" unicode="O" horiz-adv-x="619" 
d="M310 -12q-123 0 -194.5 80.5t-71.5 225.5q0 146 71.5 226.5t194.5 80.5t194 -80.5t71 -226.5q0 -145 -71 -225.5t-194 -80.5zM310 520q-82 0 -125.5 -59.5t-43.5 -166.5t43.5 -166.5t125.5 -59.5t125 59.5t43 166.5q0 106 -43.5 166t-124.5 60z" />
    <glyph glyph-name="P" unicode="P" horiz-adv-x="499" 
d="M175 292h85q62 0 88 28.5t26 82.5q0 109 -115 109h-84v-220zM83 0v589h178q208 0 208 -181q0 -90 -51 -141t-148 -51h-95v-216h-92z" />
    <glyph glyph-name="Q" unicode="Q" horiz-adv-x="619" 
d="M486 -149q-93 -1 -152 38t-82 104q-97 18 -152.5 96t-55.5 205q0 146 71.5 226.5t194.5 80.5t194 -80.5t71 -226.5q0 -133 -60 -212t-165 -91q61 -65 165 -57zM310 520q-82 0 -125.5 -59.5t-43.5 -166.5t43.5 -166.5t125.5 -59.5t125 59.5t43 166.5q0 106 -43.5 166
t-124.5 60z" />
    <glyph glyph-name="R" unicode="R" horiz-adv-x="550" 
d="M414 0q-19 21 -26 55l-24 102q-12 49 -37.5 65.5t-72.5 16.5h-79v-239h-92v589h204q201 0 201 -168q0 -67 -38.5 -105t-97.5 -41v-3q43 -5 66.5 -26.5t35.5 -67.5l30 -116q11 -38 31 -62h-101zM175 316h108q109 0 109 98q0 47 -27 72.5t-81 25.5h-109v-196z" />
    <glyph glyph-name="S" unicode="S" horiz-adv-x="478" 
d="M114 164q18 -105 123 -105q48 0 77 22t29 62q0 39 -25 62.5t-97 50.5q-84 29 -128 67t-44 112q0 85 55 126t133 41q186 0 200 -155l-91 -18q-4 48 -33.5 73.5t-74.5 25.5q-42 0 -68.5 -22.5t-26.5 -62.5q0 -41 29 -62t100 -47q82 -30 123.5 -67t41.5 -112
q0 -83 -57.5 -125t-147.5 -42q-177 0 -204 153z" />
    <glyph glyph-name="T" unicode="T" horiz-adv-x="456" 
d="M181 0v509h-171v80h436v-80h-172v-509h-93z" />
    <glyph glyph-name="U" unicode="U" horiz-adv-x="582" 
d="M518 589v-396q0 -55 -19 -96t-52 -64t-72 -34t-84 -11q-62 0 -111 18.5t-82.5 66t-33.5 120.5v396h92v-372q0 -153 135 -153q134 0 134 151v374h93z" />
    <glyph glyph-name="V" unicode="V" horiz-adv-x="529" 
d="M227 216q12 -40 21.5 -77t13.5 -55l3 -17h4q8 59 35 148l118 374h97l-195 -589h-121l-193 589h99z" />
    <glyph glyph-name="W" unicode="W" horiz-adv-x="826" 
d="M562 220q10 -41 18 -80.5t11 -59.5l3 -19h4q8 68 30 158l93 370h93l-153 -589h-131l-90 347q-11 40 -17 79.5t-7 59.5l-1 19h-4q-4 -66 -27 -158l-89 -347h-131l-152 589h98l92 -367q10 -40 17.5 -80.5t10.5 -60.5l3 -20h4q7 69 31 160l95 368h107z" />
    <glyph glyph-name="X" unicode="X" horiz-adv-x="532" 
d="M309 165q-17 25 -27.5 43.5t-12.5 24.5l-2 6h-4q-5 -16 -43 -75l-106 -164h-104l203 298l-193 291h108l94 -149q19 -29 30 -48.5t12 -25.5l2 -5h3q3 14 43 79l93 149h101l-187 -283l203 -306h-104z" />
    <glyph glyph-name="Y" unicode="Y" horiz-adv-x="484" 
d="M207 402q15 -30 25.5 -55t13.5 -35l2 -10h4q6 33 38 100l87 187h97l-180 -366v-223h-92v223l-192 366h105z" />
    <glyph glyph-name="Z" unicode="Z" horiz-adv-x="475" 
d="M196 154q-15 -22 -29 -40t-21 -26l-7 -7v-4q25 3 86 3h228v-80h-431v55l253 380q14 22 28.5 40t21.5 25l7 8v4q-26 -3 -86 -3h-212v80h414v-62z" />
    <glyph glyph-name="bracketleft" unicode="[" horiz-adv-x="328" 
d="M168 -135h125v-68h-210v872h210v-68h-125v-736z" />
    <glyph glyph-name="backslash" unicode="\" horiz-adv-x="396" 
d="M386 -203h-81l-275 872h82z" />
    <glyph glyph-name="bracketright" unicode="]" horiz-adv-x="328" 
d="M160 601h-125v68h210v-872h-210v68h125v736z" />
    <glyph glyph-name="asciicircum" unicode="^" horiz-adv-x="507" 
d="M303 481q-20 39 -31.5 70t-13.5 42l-2 11h-4q-3 -35 -48 -122l-84 -161h-90l187 347h74l186 -347h-93z" />
    <glyph glyph-name="underscore" unicode="_" horiz-adv-x="481" 
d="M50 -22h381v-71h-381v71z" />
    <glyph glyph-name="grave" unicode="`" horiz-adv-x="358" 
d="M195 529l-115 146h121l74 -146h-80z" />
    <glyph glyph-name="a" unicode="a" horiz-adv-x="479" 
d="M305 206q-178 4 -178 -83q0 -30 19 -48.5t55 -18.5q40 0 72 22.5t32 60.5v67zM396 109q0 -43 34 -43q14 0 26 5v-70q-21 -8 -49 -8q-84 0 -95 74q-33 -79 -137 -79q-62 0 -100 33.5t-38 91.5q0 165 268 152v57q0 79 -83 79q-78 0 -84 -74l-86 13q5 68 55.5 100.5
t122.5 32.5q74 0 120 -33.5t46 -108.5v-222z" />
    <glyph glyph-name="b" unicode="b" 
d="M162 179q0 -62 33.5 -92.5t78.5 -30.5q55 0 90.5 45.5t35.5 132.5q0 81 -30.5 123t-85.5 42q-52 0 -87 -36t-35 -98v-86zM131 0h-59v668h90v-294q16 49 56.5 74t91.5 25q86 0 134 -60t48 -171q0 -109 -53.5 -181.5t-144.5 -72.5q-110 0 -139 79z" />
    <glyph glyph-name="c" unicode="c" horiz-adv-x="458" 
d="M427 117q-11 -66 -59.5 -97.5t-121.5 -31.5q-93 0 -148.5 63.5t-55.5 176.5q0 115 57 180t154 65q74 0 119 -38t49 -106l-82 -17q-12 87 -90 87q-58 0 -89 -46.5t-31 -124.5q0 -74 34 -121t90 -47q76 0 96 76z" />
    <glyph glyph-name="d" unicode="d" 
d="M372 286q0 57 -35 87t-80 30q-56 0 -90 -42.5t-34 -134.5q0 -80 33 -123.5t90 -43.5q43 0 79.5 33.5t36.5 91.5v102zM371 668h91v-668h-80l-10 80q-34 -92 -147 -92q-77 0 -130 61.5t-53 173.5q0 118 54 184t153 66q43 0 77.5 -21t44.5 -52v268z" />
    <glyph glyph-name="e" unicode="e" horiz-adv-x="478" 
d="M253 59q79 0 101 75l79 -21q-26 -125 -185 -125q-94 0 -150 63t-56 176q0 115 57 180.5t154 65.5q87 0 135 -54t48 -143q0 -39 -9 -64h-298q3 -70 35 -111.5t89 -41.5zM347 277q1 7 1 19q0 45 -27.5 75.5t-72.5 30.5q-49 0 -79.5 -32.5t-37.5 -92.5h216z" />
    <glyph glyph-name="f" unicode="f" horiz-adv-x="284" 
d="M14 390v72h67v52q0 84 45 122.5t114 38.5q49 0 96 -19l-17 -77q-37 20 -74 20q-73 0 -73 -89v-48h118v-72h-118v-390h-91v390h-67z" />
    <glyph glyph-name="g" unicode="g" horiz-adv-x="485" 
d="M229 473q84 0 134 -37q25 14 35 70l78 -27q-5 -32 -26.5 -54t-50.5 -29q21 -36 21 -87q0 -77 -54 -118.5t-136 -41.5q-39 0 -60 8q-31 -16 -31 -48q0 -38 49 -38h113q78 0 119.5 -33.5t41.5 -95.5q0 -57 -39 -93t-92 -48t-120 -12q-202 0 -202 121q0 45 31 73.5t88 32.5
q-31 4 -47.5 23.5t-16.5 48.5q0 63 68 81q-90 40 -90 140q0 77 51 120.5t136 43.5zM94 -80q0 -67 126 -67q155 0 155 76q0 61 -78 61h-100q-103 0 -103 -70zM132 310q0 -44 25.5 -70.5t71.5 -26.5q47 0 74 24.5t27 72.5t-27 73t-74 24q-46 0 -71.5 -25.5t-25.5 -71.5z" />
    <glyph glyph-name="h" unicode="h" horiz-adv-x="509" 
d="M162 374q33 99 140 99q61 0 100.5 -35.5t39.5 -107.5v-330h-90v304q0 91 -81 91q-48 0 -78.5 -30t-30.5 -100v-265h-90v668h90v-294z" />
    <glyph glyph-name="i" unicode="i" horiz-adv-x="234" 
d="M56 610q0 26 17.5 43t42.5 17q27 0 45 -16.5t18 -43.5q0 -25 -18.5 -42.5t-44.5 -17.5q-24 0 -42 17.5t-18 42.5zM162 462v-462h-90v462h90z" />
    <glyph glyph-name="j" unicode="j" horiz-adv-x="234" 
d="M162 462v-469q0 -109 -56 -154.5t-164 -41.5v76q68 -6 99 21.5t31 94.5v473h90zM57 610q0 26 17.5 43t42.5 17q26 0 44 -17t18 -43q0 -25 -18 -42.5t-44 -17.5q-25 0 -42.5 17.5t-17.5 42.5z" />
    <glyph glyph-name="k" unicode="k" horiz-adv-x="468" 
d="M462 0h-111l-161 207h-28v-207h-90v668h90v-391h23l153 185h109l-186 -215z" />
    <glyph glyph-name="l" unicode="l" horiz-adv-x="261" 
d="M228 0q-32 -8 -56 -8q-46 0 -76 25.5t-30 74.5v576h90v-557q0 -41 41 -41q15 0 32 5z" />
    <glyph glyph-name="m" unicode="m" horiz-adv-x="773" 
d="M424 371q16 52 55.5 77t89.5 25q62 0 99.5 -34.5t37.5 -104.5v-334h-90v304q0 91 -77 91q-44 0 -74.5 -32.5t-30.5 -97.5v-265h-90v304q0 91 -77 91q-43 0 -74 -33t-31 -97v-265h-90v462h71l11 -89q34 100 144 100q109 0 126 -102z" />
    <glyph glyph-name="n" unicode="n" horiz-adv-x="509" 
d="M154 373q36 100 148 100q61 0 100.5 -35.5t39.5 -107.5v-330h-90v303q0 92 -81 92q-48 0 -78.5 -30.5t-30.5 -99.5v-265h-90v462h71z" />
    <glyph glyph-name="o" unicode="o" horiz-adv-x="505" 
d="M252 -12q-97 0 -153.5 64.5t-56.5 181.5q0 116 56.5 177.5t153.5 61.5q98 0 154.5 -61.5t56.5 -177.5q0 -117 -57 -181.5t-154 -64.5zM252 400q-121 0 -121 -167q0 -174 121 -174q122 0 122 174q0 167 -122 167z" />
    <glyph glyph-name="p" unicode="p" 
d="M162 179q0 -62 33.5 -92.5t78.5 -30.5q55 0 90.5 45.5t35.5 132.5q0 81 -30.5 123t-85.5 42q-52 0 -87 -36.5t-35 -98.5v-85zM162 -203h-90v665h74l11 -89q19 52 61.5 76t91.5 24q86 0 134 -60t48 -171q0 -110 -53.5 -182t-146.5 -72q-51 0 -84 20.5t-46 52.5v-264z" />
    <glyph glyph-name="q" unicode="q" 
d="M372 286q0 57 -35 87t-80 30q-56 0 -90 -42.5t-34 -134.5q0 -80 33 -123.5t90 -43.5q43 0 79.5 33.5t36.5 92.5v101zM401 462h61v-665h-90v283q-34 -92 -147 -92q-77 0 -130 61.5t-53 173.5q0 118 54 184t152 66q44 0 79 -20.5t47 -50.5z" />
    <glyph glyph-name="r" unicode="r" horiz-adv-x="356" 
d="M331 371q-22 4 -41 4q-52 0 -90 -38.5t-38 -102.5v-234h-90v462h76l11 -125q14 65 59.5 102t119.5 33z" />
    <glyph glyph-name="s" unicode="s" horiz-adv-x="419" 
d="M107 128q10 -76 100 -76q42 0 67 16t25 46q0 29 -16 46t-56 27l-68 16q-62 15 -89 47t-27 84q0 72 50 105.5t124 33.5q153 0 166 -125l-88 -10q-4 67 -84 67q-38 0 -59.5 -16.5t-21.5 -45.5q0 -26 13.5 -41.5t49.5 -23.5l64 -15q64 -16 96 -48t32 -91q0 -70 -48.5 -103
t-130.5 -33q-81 0 -125 27.5t-54 88.5z" />
    <glyph glyph-name="t" unicode="t" horiz-adv-x="337" 
d="M322 15q-45 -27 -112 -27q-63 0 -98 33t-35 97v272h-67v72h67v98l91 11v-109h137v-72h-138v-254q0 -71 61 -71q39 0 77 25z" />
    <glyph glyph-name="u" unicode="u" horiz-adv-x="508" 
d="M348 84q-31 -96 -142 -96q-140 0 -140 153v321h90v-307q0 -100 83 -100q41 0 74 36t33 98v273h90v-462h-77z" />
    <glyph glyph-name="v" unicode="v" horiz-adv-x="440" 
d="M8 462h98l80 -254q12 -39 21 -75.5t12 -54.5l3 -17h4q7 59 34 147l77 254h95l-158 -462h-105z" />
    <glyph glyph-name="w" unicode="w" horiz-adv-x="672" 
d="M448 222q12 -41 19.5 -80.5t9.5 -57.5l2 -19h4q3 63 26 157l62 240h91l-126 -462h-108l-61 219q-11 39 -18.5 75.5t-9.5 53.5l-2 17h-4q-5 -57 -28 -146l-58 -219h-108l-129 462h93l63 -240q11 -41 19 -80.5t10 -57.5l2 -19h4q3 66 28 158l64 239h90z" />
    <glyph glyph-name="x" unicode="x" horiz-adv-x="433" 
d="M254 107q-17 26 -26 45t-10 24l-1 6h-4q-1 -15 -39 -75l-69 -107h-96l153 232l-145 230h104l57 -97q16 -28 26 -47t12 -24l2 -6h4q1 15 38 77l59 97h97l-145 -227l153 -235h-101z" />
    <glyph glyph-name="y" unicode="y" horiz-adv-x="440" 
d="M186 208q12 -40 21 -76.5t12 -53.5l3 -16h4q8 55 35 146l77 254h94l-170 -500q-33 -97 -77.5 -133.5t-110.5 -36.5q-36 0 -67 11l8 77q28 -14 60 -14q37 0 60.5 23.5t43.5 83.5l-171 489h99z" />
    <glyph glyph-name="z" unicode="z" horiz-adv-x="394" 
d="M186 148q-15 -22 -29.5 -40t-20.5 -26l-7 -7v-4q25 3 86 3h157v-74h-350v51l177 261q15 22 29 40t21 26l7 7v4q-26 -3 -86 -3h-138v76h330v-60z" />
    <glyph glyph-name="braceleft" unicode="{" horiz-adv-x="393" 
d="M149 233q40 -5 61.5 -27t21.5 -74v-192q0 -40 13 -59t45 -19t61 16l16 -66q-44 -18 -96 -18q-67 0 -94.5 35.5t-27.5 101.5v193q0 46 -18.5 61.5t-50.5 15.5h-41v69h41q32 0 50.5 15.5t18.5 61.5v192q0 66 27.5 101.5t94.5 35.5q52 0 96 -18l-16 -65q-30 15 -61 15
q-33 0 -45.5 -18.5t-12.5 -59.5v-192q0 -54 -21 -74.5t-62 -26.5v-4z" />
    <glyph glyph-name="bar" unicode="|" horiz-adv-x="277" 
d="M100 -203v872h77v-872h-77z" />
    <glyph glyph-name="braceright" unicode="}" horiz-adv-x="393" 
d="M244 237q-41 6 -62 26.5t-21 74.5v192q0 41 -12.5 59.5t-44.5 18.5t-62 -15l-16 65q44 18 96 18q67 0 94.5 -35.5t27.5 -101.5v-192q0 -46 18.5 -61.5t50.5 -15.5h41v-69h-41q-32 0 -50.5 -15.5t-18.5 -61.5v-193q0 -66 -27.5 -101.5t-94.5 -35.5q-52 0 -96 18l16 66
q29 -16 62 -16q32 0 44.5 19t12.5 59v192q0 52 21.5 74t61.5 27v4z" />
    <glyph glyph-name="asciitilde" unicode="~" horiz-adv-x="472" 
d="M306 198q-28 0 -72 23q-42 25 -60 25q-36 0 -30 -47h-55q-19 49 3.5 87.5t70.5 38.5q36 0 79 -26q39 -23 55 -23q33 0 29 49h57q18 -53 -3.5 -90t-73.5 -37z" />
    <glyph glyph-name="uni00A0" unicode="&#xa0;" horiz-adv-x="153" 
 />
    <glyph glyph-name="exclamdown" unicode="&#xa1;" horiz-adv-x="229" 
d="M57 -126l27 415h61l27 -415h-115zM51 407q0 26 18.5 44t44.5 18q27 0 45.5 -18t18.5 -44q0 -27 -18.5 -44.5t-45.5 -17.5t-45 17.5t-18 44.5z" />
    <glyph glyph-name="cent" unicode="&#xa2;" horiz-adv-x="513" 
d="M248 -11q-91 9 -145.5 72.5t-54.5 177.5q0 109 54 174.5t146 77.5v83h50v-82q128 -4 175 -117l-81 -44q-28 77 -94 86v-355q66 7 105 76l70 -49q-56 -92 -175 -100v-95h-50v95zM141 243q0 -155 107 -178v351q-52 -11 -79.5 -56t-27.5 -117z" />
    <glyph glyph-name="sterling" unicode="&#xa3;" horiz-adv-x="508" 
d="M211 198q6 -30 6 -45q0 -59 -44 -77h167q62 0 73 49l67 -36q-10 -43 -43.5 -66t-84.5 -23h-293v78h29q22 0 34.5 17.5t12.5 45.5q0 24 -13 57h-86v55h65q-12 38 -12 84q0 77 52.5 116.5t125.5 39.5q145 0 164 -130l-83 -17q-7 38 -26.5 56.5t-58.5 18.5q-87 0 -87 -87
q0 -32 17 -81h152v-55h-134z" />
    <glyph glyph-name="currency" unicode="&#xa4;" horiz-adv-x="452" 
d="M389 490l33 -33l-71 -71q23 -41 23 -95q0 -55 -20 -93l68 -67l-33 -33l-64 64q-37 -34 -98 -34q-63 0 -100 34l-64 -64l-33 33l69 69q-19 40 -19 91q0 55 22 94l-72 72l33 33l69 -70q36 30 95 30q56 0 93 -29zM227 397q-70 0 -70 -106q0 -110 70 -110t70 110
q0 106 -70 106z" />
    <glyph glyph-name="yen" unicode="&#xa5;" horiz-adv-x="504" 
d="M300 142v-142h-91v142h-153v50h138l-28 50h-110v50h83l-105 189h104l78 -153q15 -28 24.5 -51.5t11.5 -32.5l2 -9h4q5 30 36 92l79 154h97l-102 -189h82v-50h-109l-27 -50h136v-50h-150z" />
    <glyph glyph-name="brokenbar" unicode="&#xa6;" horiz-adv-x="277" 
d="M100 278v391h77v-391h-77zM100 -203v391h77v-391h-77z" />
    <glyph glyph-name="section" unicode="&#xa7;" horiz-adv-x="440" 
d="M126 35q11 -73 102 -73q37 0 60.5 14.5t23.5 43.5q0 51 -72 72l-73 21q-109 32 -109 122q0 82 83 106q-83 34 -83 121q0 72 48.5 105.5t118.5 33.5q161 0 172 -125l-89 -10q-3 66 -83 66q-79 0 -79 -62q0 -24 13.5 -39.5t50.5 -27.5l66 -21q60 -19 92 -47t32 -81
q0 -43 -23 -70.5t-63 -33.5q37 -13 61 -47t24 -74q0 -70 -48.5 -103t-130.5 -33q-78 0 -124.5 31.5t-55.5 92.5zM312 239q0 22 -17.5 38.5t-38 24t-62.5 20.5q-49 -19 -49 -69q0 -35 24 -50.5t92 -33.5q20 8 35.5 26t15.5 44z" />
    <glyph glyph-name="dieresis" unicode="&#xa8;" horiz-adv-x="476" 
d="M80 595q0 26 17.5 43t41.5 17q25 0 42.5 -17t17.5 -43q0 -25 -17.5 -42t-42.5 -17q-24 0 -41.5 17t-17.5 42zM276 594q0 26 17.5 43t41.5 17q26 0 43 -17t17 -43q0 -25 -17.5 -42t-42.5 -17q-24 0 -41.5 17t-17.5 42z" />
    <glyph glyph-name="copyright" unicode="&#xa9;" horiz-adv-x="703" 
d="M510 178q-55 -77 -159 -77q-81 0 -131.5 50t-50.5 144q0 91 52.5 142.5t137.5 51.5q57 0 93 -22t58 -68l-69 -38q-23 62 -85 62q-50 0 -78.5 -33.5t-28.5 -94.5q0 -60 28.5 -93.5t80.5 -33.5q57 0 93 55zM45 294q0 132 89 219.5t217 87.5t217.5 -87.5t89.5 -219.5
t-89.5 -219t-217.5 -87t-217 87t-89 219zM76 294q0 -120 80 -198.5t196 -78.5t196 78.5t80 198.5t-80 199t-196 79t-196 -79t-80 -199z" />
    <glyph glyph-name="ordfeminine" unicode="&#xaa;" horiz-adv-x="362" 
d="M211 423q-54 1 -77.5 -11.5t-23.5 -40.5q0 -41 43 -41q23 0 40.5 13t17.5 37v43zM287 363q0 -23 20 -23q12 0 24 8v-55q-16 -11 -49 -11q-58 0 -67 46q-20 -49 -89 -49q-41 0 -66 22t-25 60q0 109 176 103v28q0 53 -47 53q-21 0 -34 -12t-15 -31l-70 10q4 46 38.5 67.5
t85.5 21.5t84.5 -22.5t33.5 -72.5v-143z" />
    <glyph glyph-name="guillemotleft" unicode="&#xab;" horiz-adv-x="485" 
d="M301 231q17 -6 55 -51l98 -116l-48 -43l-186 213l186 213l48 -49l-99 -114q-17 -20 -30.5 -32t-18.5 -14l-5 -3v-4zM110 231q18 -6 55 -51l99 -116l-49 -43l-185 213l185 213l49 -49l-99 -114q-17 -20 -30.5 -32t-18.5 -14l-6 -3v-4z" />
    <glyph glyph-name="logicalnot" unicode="&#xac;" horiz-adv-x="500" 
d="M46 262v53h408v-189h-59v136h-349z" />
    <glyph glyph-name="uni00AD" unicode="&#xad;" horiz-adv-x="360" 
d="M68 295h224v-76h-224v76z" />
    <glyph glyph-name="registered" unicode="&#xae;" horiz-adv-x="703" 
d="M430 120q-13 17 -18 40l-11 45q-12 48 -75 48h-28v-133h-74v361h141q63 0 98 -28t35 -84q0 -43 -27.5 -67t-72.5 -26q32 -5 51 -17t27 -40l14 -54q8 -29 22 -45h-82zM298 310h48q43 0 61 13.5t18 40.5q0 26 -18 41t-51 15h-58v-110zM45 294q0 132 89 219.5t217 87.5
t217.5 -87.5t89.5 -219.5t-89.5 -219t-217.5 -87t-217 87t-89 219zM76 294q0 -120 80 -198.5t196 -78.5t196 78.5t80 198.5t-80 199t-196 79t-196 -79t-80 -199z" />
    <glyph glyph-name="macron" unicode="&#xaf;" horiz-adv-x="422" 
d="M80 558v73h262v-73h-262z" />
    <glyph glyph-name="degree" unicode="&#xb0;" horiz-adv-x="262" 
d="M36 505q0 40 27 68t68 28t68 -28t27 -68q0 -39 -27 -66.5t-68 -27.5t-68 27t-27 67zM85 505q0 -21 12.5 -35t33.5 -14t33.5 14t12.5 35t-12.5 35.5t-33.5 14.5t-33.5 -14.5t-12.5 -35.5z" />
    <glyph glyph-name="plusminus" unicode="&#xb1;" horiz-adv-x="498" 
d="M220 340v134h54v-134h179v-54h-179v-148h-54v148h-175v54h175zM45 43v53h408v-53h-408z" />
    <glyph glyph-name="uni00B2" unicode="&#xb2;" horiz-adv-x="309" 
d="M288 236h-266v52q97 68 136 107.5t39 85.5q0 53 -54 53q-29 0 -44 -19t-16 -49l-60 27q1 41 36 72.5t95 31.5q51 0 84.5 -28t33.5 -81q0 -35 -15.5 -66.5t-43.5 -55.5t-49.5 -38.5t-51.5 -30.5v-4h176v-57z" />
    <glyph glyph-name="uni00B3" unicode="&#xb3;" horiz-adv-x="317" 
d="M182 417q98 -9 98 -91q0 -46 -37 -71.5t-98 -25.5q-57 0 -92 22t-43 59l62 25q6 -23 26.5 -37.5t47.5 -14.5q60 0 60 48q0 29 -23.5 44t-81.5 16v48q96 3 96 55q0 21 -14 33.5t-38 12.5q-49 0 -59 -46l-61 23q9 37 42 58.5t84 21.5q50 0 83.5 -23t33.5 -69q0 -74 -86 -85
v-3z" />
    <glyph glyph-name="acute" unicode="&#xb4;" horiz-adv-x="358" 
d="M83 529l74 146h121l-116 -146h-79z" />
    <glyph glyph-name="uni00B5" unicode="&#xb5;" horiz-adv-x="514" 
d="M350 87q-30 -97 -128 -99q-46 0 -64 20v-211h-90v665h90v-301q0 -100 77 -100q40 0 77 30.5t37 92.5v278h89v-462h-77z" />
    <glyph glyph-name="paragraph" unicode="&#xb6;" horiz-adv-x="523" 
d="M401 -21q0 -142 -143 -142q-56 0 -105 27l24 82q34 -30 77 -30q55 0 55 59v199h-48q-110 0 -169.5 50t-59.5 151q0 214 268 214h180v-72h-79v-538z" />
    <glyph glyph-name="periodcentered" unicode="&#xb7;" horiz-adv-x="286" 
d="M75 266q0 29 19.5 48.5t48.5 19.5t48.5 -19.5t19.5 -48.5q0 -28 -19.5 -48t-48.5 -20t-48.5 20t-19.5 48z" />
    <glyph glyph-name="cedilla" unicode="&#xb8;" horiz-adv-x="353" 
d="M273 -124q0 -42 -29.5 -64.5t-75.5 -22.5q-62 0 -90 38l24 51q26 -36 63 -36q36 0 36 34q0 41 -66 42l7 90h46l-3 -49q88 -7 88 -83z" />
    <glyph glyph-name="uni00B9" unicode="&#xb9;" horiz-adv-x="298" 
d="M32 236v56h96v228l-106 -11v58l178 23v-298h86v-56h-254z" />
    <glyph glyph-name="ordmasculine" unicode="&#xba;" horiz-adv-x="382" 
d="M191 279q-67 0 -107 42.5t-40 120.5q0 76 39.5 117.5t107.5 41.5t107.5 -41.5t39.5 -117.5q0 -78 -40 -120.5t-107 -42.5zM191 548q-70 0 -70 -106q0 -110 70 -110t70 110q0 106 -70 106z" />
    <glyph glyph-name="guillemotright" unicode="&#xbb;" horiz-adv-x="485" 
d="M184 235q-16 5 -55 49l-99 114l49 49l185 -213l-185 -213l-48 43l98 116q17 20 30.5 32.5t18.5 15.5l6 3v4zM374 235q-16 5 -55 49l-99 114l49 49l186 -213l-186 -213l-48 43l98 116q17 20 30.5 33t18.5 15l6 3v4z" />
    <glyph glyph-name="onequarter" unicode="&#xbc;" horiz-adv-x="864" 
d="M51 236v56h96v228l-106 -11v58l178 23v-298h86v-56h-254zM554 590h62l-306 -590h-62zM707 86h-179v54l176 213h75v-213h57v-54h-57v-86h-72v86zM709 223l4 71h-4q-10 -26 -35 -59l-42 -50q-11 -13 -23 -24.5t-19 -16.5l-6 -5v-4q15 4 56 4h69v84z" />
    <glyph glyph-name="onehalf" unicode="&#xbd;" horiz-adv-x="864" 
d="M51 236v56h96v228l-106 -11v58l178 23v-298h86v-56h-254zM554 590h62l-306 -590h-62zM802 0h-266v52q97 68 136 107.5t39 85.5q0 53 -54 53q-29 0 -44 -19t-16 -49l-60 27q1 41 36 72.5t95 31.5q51 0 84.5 -28t33.5 -81q0 -35 -15.5 -66.5t-43.5 -55.5t-49.5 -38.5
t-51.5 -30.5v-4h176v-57z" />
    <glyph glyph-name="threequarters" unicode="&#xbe;" horiz-adv-x="864" 
d="M211 417q98 -9 98 -91q0 -46 -37 -71.5t-98 -25.5q-57 0 -92 22t-43 59l62 25q6 -23 26.5 -37.5t47.5 -14.5q60 0 60 48q0 29 -23.5 44t-81.5 16v48q96 3 96 55q0 21 -14 33.5t-38 12.5q-49 0 -59 -46l-61 23q9 37 42 58.5t84 21.5q50 0 83.5 -23t33.5 -69q0 -74 -86 -85
v-3zM554 590h62l-306 -590h-62zM707 86h-179v54l176 213h75v-213h57v-54h-57v-86h-72v86zM709 223l4 71h-4q-10 -26 -35 -59l-42 -50q-11 -13 -23 -24.5t-19 -16.5l-6 -5v-4q15 4 56 4h69v84z" />
    <glyph glyph-name="questiondown" unicode="&#xbf;" horiz-adv-x="394" 
d="M394 2q-14 -65 -62 -103t-127 -38q-85 0 -136.5 48.5t-51.5 126.5q0 85 52 131t121 48v82h82v-134h-36q-126 0 -126 -120q0 -53 27.5 -79.5t73.5 -26.5q89 0 103 94zM294 406q0 -27 -18 -44.5t-45 -17.5t-45.5 17.5t-18.5 44.5q0 26 18.5 44t45.5 18t45 -18t18 -44z" />
    <glyph glyph-name="Agrave" unicode="&#xc0;" horiz-adv-x="569" 
d="M403 161h-241l-56 -161h-96l215 589h121l213 -589h-99zM188 237h188l-45 132q-15 41 -26.5 79.5t-15.5 57.5l-4 18h-4q-14 -62 -46 -154zM248 653l-100 123h120l63 -123h-83z" />
    <glyph glyph-name="Aacute" unicode="&#xc1;" horiz-adv-x="569" 
d="M403 161h-241l-56 -161h-96l215 589h121l213 -589h-99zM188 237h188l-45 132q-15 41 -26.5 79.5t-15.5 57.5l-4 18h-4q-14 -62 -46 -154zM240 653l63 123h120l-101 -123h-82z" />
    <glyph glyph-name="Acircumflex" unicode="&#xc2;" horiz-adv-x="569" 
d="M403 161h-241l-56 -161h-96l215 589h121l213 -589h-99zM188 237h188l-45 132q-15 41 -26.5 79.5t-15.5 57.5l-4 18h-4q-14 -62 -46 -154zM310 782l125 -129h-97l-31 33q-8 9 -14 17.5t-7 12.5l-2 4h-3q-4 -14 -23 -34l-32 -33h-96l124 129h56z" />
    <glyph glyph-name="Atilde" unicode="&#xc3;" horiz-adv-x="569" 
d="M403 161h-241l-56 -161h-96l215 589h121l213 -589h-99zM188 237h188l-45 132q-15 41 -26.5 79.5t-15.5 57.5l-4 18h-4q-14 -62 -46 -154zM354 653q-26 0 -72 24q-5 3 -14.5 8.5t-13 7t-10 4.5t-11.5 4t-11 1q-36 0 -30 -47h-55q-19 48 3.5 87t70.5 39q36 0 79 -26
q38 -24 55 -24q33 0 29 49h57q18 -53 -3.5 -90t-73.5 -37z" />
    <glyph glyph-name="Adieresis" unicode="&#xc4;" horiz-adv-x="569" 
d="M403 161h-241l-56 -161h-96l215 589h121l213 -589h-99zM188 237h188l-45 132q-15 41 -26.5 79.5t-15.5 57.5l-4 18h-4q-14 -62 -46 -154zM126 713q0 26 17.5 43t41.5 17q25 0 42.5 -17t17.5 -43q0 -25 -17.5 -42t-42.5 -17q-24 0 -41.5 17t-17.5 42zM322 712
q0 26 17.5 43t41.5 17q26 0 43 -17t17 -43q0 -25 -17.5 -42t-42.5 -17q-24 0 -41.5 17t-17.5 42z" />
    <glyph glyph-name="Aring" unicode="&#xc5;" horiz-adv-x="569" 
d="M403 161h-241l-56 -161h-96l215 589h121l213 -589h-99zM188 237h188l-45 132q-15 41 -26.5 79.5t-15.5 57.5l-4 18h-4q-14 -62 -46 -154zM283 635q-48 0 -75.5 28.5t-27.5 71.5q0 40 29 68.5t74 28.5t74 -28.5t29 -68.5q0 -43 -27.5 -71.5t-75.5 -28.5zM283 790
q-25 0 -40 -16t-15 -41q0 -23 14.5 -38t40.5 -15t40.5 15t14.5 38q0 25 -15 41t-40 16z" />
    <glyph glyph-name="AE" unicode="&#xc6;" horiz-adv-x="833" 
d="M420 0v161h-214l-98 -161h-100l361 589h414v-80h-271v-174h240v-80h-240v-175h271v-80h-363zM250 237h170v135q0 44 1.5 81.5t2.5 52.5l2 16h-4z" />
    <glyph glyph-name="Ccedilla" unicode="&#xc7;" horiz-adv-x="563" 
d="M413 -124q0 -42 -29.5 -64.5t-75.5 -22.5q-61 0 -90 38l24 51q26 -36 63 -36q36 0 36 34q0 41 -66 42l5 71q-108 8 -172 87t-64 217q0 145 75 226.5t200 81.5q161 0 221 -142l-86 -42q-36 105 -140 105q-82 0 -128 -61.5t-46 -167.5t43 -164.5t126 -58.5q54 0 91.5 21.5
t67.5 70.5l71 -52q-38 -59 -88 -88t-124 -33l-2 -30q88 -7 88 -83z" />
    <glyph glyph-name="Egrave" unicode="&#xc8;" horiz-adv-x="496" 
d="M446 0h-363v589h363v-80h-271v-174h240v-80h-240v-175h271v-80zM228 653l-100 123h120l63 -123h-83z" />
    <glyph glyph-name="Eacute" unicode="&#xc9;" horiz-adv-x="496" 
d="M446 0h-363v589h363v-80h-271v-174h240v-80h-240v-175h271v-80zM220 653l63 123h120l-101 -123h-82z" />
    <glyph glyph-name="Ecircumflex" unicode="&#xca;" horiz-adv-x="496" 
d="M446 0h-363v589h363v-80h-271v-174h240v-80h-240v-175h271v-80zM292 782l125 -129h-97l-31 33q-8 9 -14 17.5t-7 12.5l-2 4h-3q-4 -14 -23 -34l-32 -33h-96l124 129h56z" />
    <glyph glyph-name="Edieresis" unicode="&#xcb;" horiz-adv-x="496" 
d="M446 0h-363v589h363v-80h-271v-174h240v-80h-240v-175h271v-80zM106 713q0 26 17.5 43t41.5 17q25 0 42.5 -17t17.5 -43q0 -25 -17.5 -42t-42.5 -17q-24 0 -41.5 17t-17.5 42zM302 712q0 26 17.5 43t41.5 17q26 0 43 -17t17 -43q0 -25 -17.5 -42t-42.5 -17
q-24 0 -41.5 17t-17.5 42z" />
    <glyph glyph-name="Igrave" unicode="&#xcc;" horiz-adv-x="258" 
d="M175 589v-589h-92v589h92zM92 653l-100 123h120l63 -123h-83z" />
    <glyph glyph-name="Iacute" unicode="&#xcd;" horiz-adv-x="258" 
d="M175 589v-589h-92v589h92zM85 653l63 123h120l-101 -123h-82z" />
    <glyph glyph-name="Icircumflex" unicode="&#xce;" horiz-adv-x="258" 
d="M175 589v-589h-92v589h92zM157 782l125 -129h-97l-31 33q-8 9 -14 17.5t-8 12.5l-1 4h-3q-4 -14 -23 -34l-32 -33h-96l124 129h56z" />
    <glyph glyph-name="Idieresis" unicode="&#xcf;" horiz-adv-x="258" 
d="M175 589v-589h-92v589h92zM-29 713q0 26 17.5 43t41.5 17q25 0 42.5 -17t17.5 -43q0 -25 -17.5 -42t-42.5 -17q-24 0 -41.5 17t-17.5 42zM167 712q0 26 17.5 43t41.5 17q26 0 43 -17t17 -43q0 -25 -17.5 -42t-42.5 -17q-24 0 -41.5 17t-17.5 42z" />
    <glyph glyph-name="Eth" unicode="&#xd0;" horiz-adv-x="594" 
d="M83 0v256h-59v78h59v255h183q131 0 207.5 -70t76.5 -218q0 -154 -79.5 -227.5t-207.5 -73.5h-180zM254 77q92 0 145.5 53.5t53.5 166.5q0 215 -190 215h-88v-178h111v-78h-111v-179h79z" />
    <glyph glyph-name="Ntilde" unicode="&#xd1;" horiz-adv-x="650" 
d="M409 252q16 -23 32.5 -51t25.5 -45l9 -16h4q-5 63 -5 137v312h92v-589h-91l-235 336q-16 24 -33 52.5t-26 45.5l-9 16h-4q6 -63 6 -139v-311h-92v589h94zM395 653q-26 0 -72 24q-5 3 -14.5 8.5t-13 7t-10 4.5t-11.5 4t-11 1q-36 0 -30 -47h-55q-19 48 3.5 87t70.5 39
q36 0 79 -26q38 -24 55 -24q33 0 29 49h57q18 -53 -3.5 -90t-73.5 -37z" />
    <glyph glyph-name="Ograve" unicode="&#xd2;" horiz-adv-x="619" 
d="M310 -12q-123 0 -194.5 80.5t-71.5 225.5q0 146 71.5 226.5t194.5 80.5t194 -80.5t71 -226.5q0 -145 -71 -225.5t-194 -80.5zM310 520q-82 0 -125.5 -59.5t-43.5 -166.5t43.5 -166.5t125.5 -59.5t125 59.5t43 166.5q0 106 -43.5 166t-124.5 60zM273 653l-100 123h120
l63 -123h-83z" />
    <glyph glyph-name="Oacute" unicode="&#xd3;" horiz-adv-x="619" 
d="M310 -12q-123 0 -194.5 80.5t-71.5 225.5q0 146 71.5 226.5t194.5 80.5t194 -80.5t71 -226.5q0 -145 -71 -225.5t-194 -80.5zM310 520q-82 0 -125.5 -59.5t-43.5 -166.5t43.5 -166.5t125.5 -59.5t125 59.5t43 166.5q0 106 -43.5 166t-124.5 60zM265 653l63 123h120
l-101 -123h-82z" />
    <glyph glyph-name="Ocircumflex" unicode="&#xd4;" horiz-adv-x="619" 
d="M310 -12q-123 0 -194.5 80.5t-71.5 225.5q0 146 71.5 226.5t194.5 80.5t194 -80.5t71 -226.5q0 -145 -71 -225.5t-194 -80.5zM310 520q-82 0 -125.5 -59.5t-43.5 -166.5t43.5 -166.5t125.5 -59.5t125 59.5t43 166.5q0 106 -43.5 166t-124.5 60zM337 782l125 -129h-97
l-31 33q-8 9 -14 17.5t-8 12.5l-1 4h-3q-4 -14 -23 -34l-32 -33h-96l124 129h56z" />
    <glyph glyph-name="Otilde" unicode="&#xd5;" horiz-adv-x="619" 
d="M310 -12q-123 0 -194.5 80.5t-71.5 225.5q0 146 71.5 226.5t194.5 80.5t194 -80.5t71 -226.5q0 -145 -71 -225.5t-194 -80.5zM310 520q-82 0 -125.5 -59.5t-43.5 -166.5t43.5 -166.5t125.5 -59.5t125 59.5t43 166.5q0 106 -43.5 166t-124.5 60zM379 653q-26 0 -72 24
q-5 3 -14.5 8.5t-13 7t-10 4.5t-11.5 4t-11 1q-36 0 -30 -47h-55q-19 48 3.5 87t70.5 39q36 0 79 -26q38 -24 55 -24q33 0 29 49h57q18 -53 -3.5 -90t-73.5 -37z" />
    <glyph glyph-name="Odieresis" unicode="&#xd6;" horiz-adv-x="619" 
d="M310 -12q-123 0 -194.5 80.5t-71.5 225.5q0 146 71.5 226.5t194.5 80.5t194 -80.5t71 -226.5q0 -145 -71 -225.5t-194 -80.5zM310 520q-82 0 -125.5 -59.5t-43.5 -166.5t43.5 -166.5t125.5 -59.5t125 59.5t43 166.5q0 106 -43.5 166t-124.5 60zM151 713q0 26 17.5 43
t41.5 17q25 0 42.5 -17t17.5 -43q0 -25 -17.5 -42t-42.5 -17q-24 0 -41.5 17t-17.5 42zM347 712q0 26 17.5 43t41.5 17q26 0 43 -17t17 -43q0 -25 -17.5 -42t-42.5 -17q-24 0 -41.5 17t-17.5 42z" />
    <glyph glyph-name="multiply" unicode="&#xd7;" horiz-adv-x="445" 
d="M181 249l-132 133l37 38l133 -133l140 139l37 -37l-139 -140l143 -143l-37 -37l-144 142l-137 -136l-37 38z" />
    <glyph glyph-name="Oslash" unicode="&#xd8;" horiz-adv-x="619" 
d="M31 26l63 70q-50 76 -50 198q0 146 71.5 226.5t194.5 80.5q109 0 178 -64l54 60l46 -41l-61 -67q48 -77 48 -195q0 -145 -71 -225.5t-194 -80.5q-110 0 -178 63l-58 -65zM310 520q-82 0 -124.5 -59.5t-42.5 -166.5q0 -74 19 -122l265 296q-44 52 -117 52zM476 294
q0 69 -18 118l-265 -294q41 -50 117 -50q82 0 124 59t42 167z" />
    <glyph glyph-name="Ugrave" unicode="&#xd9;" horiz-adv-x="582" 
d="M518 589v-396q0 -55 -19 -96t-52 -64t-72 -34t-84 -11q-62 0 -111 18.5t-82.5 66t-33.5 120.5v396h92v-372q0 -153 135 -153q134 0 134 151v374h93zM254 653l-100 123h120l63 -123h-83z" />
    <glyph glyph-name="Uacute" unicode="&#xda;" horiz-adv-x="582" 
d="M518 589v-396q0 -55 -19 -96t-52 -64t-72 -34t-84 -11q-62 0 -111 18.5t-82.5 66t-33.5 120.5v396h92v-372q0 -153 135 -153q134 0 134 151v374h93zM246 653l63 123h120l-101 -123h-82z" />
    <glyph glyph-name="Ucircumflex" unicode="&#xdb;" horiz-adv-x="582" 
d="M518 589v-396q0 -55 -19 -96t-52 -64t-72 -34t-84 -11q-62 0 -111 18.5t-82.5 66t-33.5 120.5v396h92v-372q0 -153 135 -153q134 0 134 151v374h93zM318 782l125 -129h-97l-31 33q-8 9 -14 17.5t-7 12.5l-2 4h-3q-4 -14 -23 -34l-32 -33h-96l124 129h56z" />
    <glyph glyph-name="Udieresis" unicode="&#xdc;" horiz-adv-x="582" 
d="M518 589v-396q0 -55 -19 -96t-52 -64t-72 -34t-84 -11q-62 0 -111 18.5t-82.5 66t-33.5 120.5v396h92v-372q0 -153 135 -153q134 0 134 151v374h93zM132 713q0 26 17.5 43t41.5 17q25 0 42.5 -17t17.5 -43q0 -25 -17.5 -42t-42.5 -17q-24 0 -41.5 17t-17.5 42zM328 712
q0 26 17.5 43t41.5 17q26 0 43 -17t17 -43q0 -25 -17.5 -42t-42.5 -17q-24 0 -41.5 17t-17.5 42z" />
    <glyph glyph-name="Yacute" unicode="&#xdd;" horiz-adv-x="484" 
d="M207 402q15 -30 25.5 -55t13.5 -35l2 -10h4q6 33 38 100l87 187h97l-180 -366v-223h-92v223l-192 366h105zM198 653l63 123h120l-101 -123h-82z" />
    <glyph glyph-name="Thorn" unicode="&#xde;" horiz-adv-x="497" 
d="M175 197h85q63 0 88.5 26.5t25.5 79.5q0 103 -115 103h-84v-209zM83 0v589h92v-105h86q208 0 208 -176q0 -90 -50.5 -138.5t-148.5 -48.5h-95v-121h-92z" />
    <glyph glyph-name="germandbls" unicode="&#xdf;" horiz-adv-x="536" 
d="M72 451q0 115 55 169.5t151 54.5q87 0 135 -42.5t48 -112.5q0 -121 -118 -139v-4q73 -5 114 -53t41 -132q0 -96 -44.5 -150t-132.5 -54q-47 0 -76 16t-49 52l44 61q28 -59 81 -59q86 0 86 137q0 67 -36.5 106t-101.5 39h-51v72h41q111 0 111 95q0 45 -25.5 71t-70.5 26
q-112 0 -112 -156v-448h-90v451z" />
    <glyph glyph-name="agrave" unicode="&#xe0;" horiz-adv-x="479" 
d="M305 206q-178 4 -178 -83q0 -30 19 -48.5t55 -18.5q40 0 72 22.5t32 60.5v67zM396 109q0 -43 34 -43q14 0 26 5v-70q-21 -8 -49 -8q-84 0 -95 74q-33 -79 -137 -79q-62 0 -100 33.5t-38 91.5q0 165 268 152v57q0 79 -83 79q-78 0 -84 -74l-86 13q5 68 55.5 100.5
t122.5 32.5q74 0 120 -33.5t46 -108.5v-222zM200 529l-115 146h121l74 -146h-80z" />
    <glyph glyph-name="aacute" unicode="&#xe1;" horiz-adv-x="479" 
d="M305 206q-178 4 -178 -83q0 -30 19 -48.5t55 -18.5q40 0 72 22.5t32 60.5v67zM396 109q0 -43 34 -43q14 0 26 5v-70q-21 -8 -49 -8q-84 0 -95 74q-33 -79 -137 -79q-62 0 -100 33.5t-38 91.5q0 165 268 152v57q0 79 -83 79q-78 0 -84 -74l-86 13q5 68 55.5 100.5
t122.5 32.5q74 0 120 -33.5t46 -108.5v-222zM185 529l74 146h121l-116 -146h-79z" />
    <glyph glyph-name="acircumflex" unicode="&#xe2;" horiz-adv-x="479" 
d="M305 206q-178 4 -178 -83q0 -30 19 -48.5t55 -18.5q40 0 72 22.5t32 60.5v67zM396 109q0 -43 34 -43q14 0 26 5v-70q-21 -8 -49 -8q-84 0 -95 74q-33 -79 -137 -79q-62 0 -100 33.5t-38 91.5q0 165 268 152v57q0 79 -83 79q-78 0 -84 -74l-86 13q5 68 55.5 100.5
t122.5 32.5q74 0 120 -33.5t46 -108.5v-222zM258 675l125 -147h-92l-34 42q-8 10 -14 19.5t-7 14.5l-2 4h-5q-4 -15 -23 -38l-34 -42h-92l125 147h53z" />
    <glyph glyph-name="atilde" unicode="&#xe3;" horiz-adv-x="479" 
d="M305 206q-178 4 -178 -83q0 -30 19 -48.5t55 -18.5q40 0 72 22.5t32 60.5v67zM396 109q0 -43 34 -43q14 0 26 5v-70q-21 -8 -49 -8q-84 0 -95 74q-33 -79 -137 -79q-62 0 -100 33.5t-38 91.5q0 165 268 152v57q0 79 -83 79q-78 0 -84 -74l-86 13q5 68 55.5 100.5
t122.5 32.5q74 0 120 -33.5t46 -108.5v-222zM302 529q-28 0 -72 23q-42 25 -60 25q-36 0 -30 -47h-55q-19 49 3 86.5t71 37.5q34 0 79 -27q39 -23 55 -23q33 0 29 49h57q18 -53 -3 -88.5t-74 -35.5z" />
    <glyph glyph-name="adieresis" unicode="&#xe4;" horiz-adv-x="479" 
d="M305 206q-178 4 -178 -83q0 -30 19 -48.5t55 -18.5q40 0 72 22.5t32 60.5v67zM396 109q0 -43 34 -43q14 0 26 5v-70q-21 -8 -49 -8q-84 0 -95 74q-33 -79 -137 -79q-62 0 -100 33.5t-38 91.5q0 165 268 152v57q0 79 -83 79q-78 0 -84 -74l-86 13q5 68 55.5 100.5
t122.5 32.5q74 0 120 -33.5t46 -108.5v-222zM74 595q0 26 17.5 43t41.5 17q25 0 42.5 -17t17.5 -43q0 -25 -17.5 -42t-42.5 -17q-24 0 -41.5 17t-17.5 42zM270 594q0 26 17.5 43t41.5 17q26 0 43 -17t17 -43q0 -25 -17.5 -42t-42.5 -17q-24 0 -41.5 17t-17.5 42z" />
    <glyph glyph-name="aring" unicode="&#xe5;" horiz-adv-x="479" 
d="M305 206q-178 4 -178 -83q0 -30 19 -48.5t55 -18.5q40 0 72 22.5t32 60.5v67zM396 109q0 -43 34 -43q14 0 26 5v-70q-21 -8 -49 -8q-84 0 -95 74q-33 -79 -137 -79q-62 0 -100 33.5t-38 91.5q0 165 268 152v57q0 79 -83 79q-78 0 -84 -74l-86 13q5 68 55.5 100.5
t122.5 32.5q74 0 120 -33.5t46 -108.5v-222zM231 520q-48 0 -75.5 28.5t-27.5 71.5q0 40 29 68t74 28t74 -28t29 -68q0 -43 -27.5 -71.5t-75.5 -28.5zM231 674q-25 0 -40 -15.5t-15 -40.5q0 -24 14.5 -38.5t40.5 -14.5t40.5 14.5t14.5 38.5q0 25 -15 40.5t-40 15.5z" />
    <glyph glyph-name="ae" unicode="&#xe6;" horiz-adv-x="740" 
d="M514 59q80 0 102 75l78 -21q-24 -125 -185 -125q-108 0 -163 80q-15 -38 -58 -59t-101 -21q-70 0 -110 33t-40 97q0 156 269 157q5 33 13 57q-5 34 -30 51.5t-60 17.5q-39 0 -63.5 -19.5t-27.5 -54.5l-86 13q5 68 55.5 100.5t121.5 32.5q100 0 136 -60q57 60 149 60
q87 0 135 -55t48 -144q0 -41 -8 -63h-299q4 -70 36 -111t88 -41zM609 275q1 8 1 20q0 45 -28 76t-73 31q-50 0 -79.5 -33t-36.5 -94h216zM201 56q43 0 75 22t38 61q-8 31 -10 73q-90 -1 -133.5 -21.5t-43.5 -67.5q0 -30 19 -48.5t55 -18.5z" />
    <glyph glyph-name="ccedilla" unicode="&#xe7;" horiz-adv-x="458" 
d="M352 -124q0 -42 -29.5 -64.5t-75.5 -22.5q-61 0 -90 38l24 51q25 -36 63 -36q36 0 36 34q0 41 -66 42l5 72q-81 8 -129 70.5t-48 167.5q0 115 57 180t154 65q74 0 119 -38t49 -106l-82 -17q-12 87 -90 87q-58 0 -89 -46.5t-31 -124.5q0 -74 34 -121t90 -47q76 0 96 76
l78 -19q-21 -119 -161 -128l-2 -30q88 -7 88 -83z" />
    <glyph glyph-name="egrave" unicode="&#xe8;" horiz-adv-x="478" 
d="M253 59q79 0 101 75l79 -21q-26 -125 -185 -125q-94 0 -150 63t-56 176q0 115 57 180.5t154 65.5q87 0 135 -54t48 -143q0 -39 -9 -64h-298q3 -70 35 -111.5t89 -41.5zM347 277q1 7 1 19q0 45 -27.5 75.5t-72.5 30.5q-49 0 -79.5 -32.5t-37.5 -92.5h216zM218 529
l-115 146h121l74 -146h-80z" />
    <glyph glyph-name="eacute" unicode="&#xe9;" horiz-adv-x="478" 
d="M253 59q79 0 101 75l79 -21q-26 -125 -185 -125q-94 0 -150 63t-56 176q0 115 57 180.5t154 65.5q87 0 135 -54t48 -143q0 -39 -9 -64h-298q3 -70 35 -111.5t89 -41.5zM347 277q1 7 1 19q0 45 -27.5 75.5t-72.5 30.5q-49 0 -79.5 -32.5t-37.5 -92.5h216zM204 529l74 146
h121l-116 -146h-79z" />
    <glyph glyph-name="ecircumflex" unicode="&#xea;" horiz-adv-x="478" 
d="M253 59q79 0 101 75l79 -21q-26 -125 -185 -125q-94 0 -150 63t-56 176q0 115 57 180.5t154 65.5q87 0 135 -54t48 -143q0 -39 -9 -64h-298q3 -70 35 -111.5t89 -41.5zM347 277q1 7 1 19q0 45 -27.5 75.5t-72.5 30.5q-49 0 -79.5 -32.5t-37.5 -92.5h216zM280 675
l125 -147h-92l-34 42q-8 10 -14 19.5t-7 14.5l-2 4h-5q-4 -15 -23 -38l-34 -42h-92l125 147h53z" />
    <glyph glyph-name="edieresis" unicode="&#xeb;" horiz-adv-x="478" 
d="M253 59q79 0 101 75l79 -21q-26 -125 -185 -125q-94 0 -150 63t-56 176q0 115 57 180.5t154 65.5q87 0 135 -54t48 -143q0 -39 -9 -64h-298q3 -70 35 -111.5t89 -41.5zM347 277q1 7 1 19q0 45 -27.5 75.5t-72.5 30.5q-49 0 -79.5 -32.5t-37.5 -92.5h216zM95 595
q0 26 17.5 43t41.5 17q25 0 42.5 -17t17.5 -43q0 -25 -17.5 -42t-42.5 -17q-24 0 -41.5 17t-17.5 42zM291 594q0 26 17.5 43t41.5 17q26 0 43 -17t17 -43q0 -25 -17.5 -42t-42.5 -17q-24 0 -41.5 17t-17.5 42z" />
    <glyph glyph-name="igrave" unicode="&#xec;" horiz-adv-x="234" 
d="M83 529l-115 146h121l74 -146h-80zM162 462v-462h-90v462h90z" />
    <glyph glyph-name="iacute" unicode="&#xed;" horiz-adv-x="234" 
d="M73 529l74 146h121l-116 -146h-79zM162 462v-462h-90v462h90z" />
    <glyph glyph-name="icircumflex" unicode="&#xee;" horiz-adv-x="234" 
d="M162 462v-462h-90v462h90zM144 675l125 -147h-92l-34 42q-8 10 -14 19.5t-7 14.5l-2 4h-5q-4 -15 -23 -38l-34 -42h-92l125 147h53z" />
    <glyph glyph-name="idieresis" unicode="&#xef;" horiz-adv-x="234" 
d="M-41 595q0 26 17.5 43t41.5 17q25 0 42.5 -17t17.5 -43q0 -25 -17.5 -42t-42.5 -17q-24 0 -41.5 17t-17.5 42zM155 594q0 26 17.5 43t41.5 17q26 0 43 -17t17 -43q0 -25 -17.5 -42t-42.5 -17q-24 0 -41.5 17t-17.5 42zM162 462v-462h-90v462h90z" />
    <glyph glyph-name="eth" unicode="&#xf0;" horiz-adv-x="507" 
d="M114 538l124 25q-34 30 -120 72l77 39q72 -31 130 -87l103 22l12 -45l-77 -17q102 -128 102 -287q0 -138 -56.5 -204.5t-155.5 -66.5q-98 0 -154.5 62t-56.5 178q0 113 54 173.5t137 60.5q78 0 121 -61h4q-26 70 -82 124l-151 -31zM374 227q0 81 -32 123.5t-92 42.5
q-118 0 -118 -166q0 -81 30.5 -124t89.5 -43q122 0 122 167z" />
    <glyph glyph-name="ntilde" unicode="&#xf1;" horiz-adv-x="509" 
d="M154 373q36 100 148 100q61 0 100.5 -35.5t39.5 -107.5v-330h-90v303q0 92 -81 92q-48 0 -78.5 -30.5t-30.5 -99.5v-265h-90v462h71zM332 529q-28 0 -72 23q-42 25 -60 25q-36 0 -30 -47h-55q-19 49 3 86.5t71 37.5q34 0 79 -27q39 -23 55 -23q33 0 29 49h57
q18 -53 -3 -88.5t-74 -35.5z" />
    <glyph glyph-name="ograve" unicode="&#xf2;" horiz-adv-x="505" 
d="M252 -12q-97 0 -153.5 64.5t-56.5 181.5q0 116 56.5 177.5t153.5 61.5q98 0 154.5 -61.5t56.5 -177.5q0 -117 -57 -181.5t-154 -64.5zM252 400q-121 0 -121 -167q0 -174 121 -174q122 0 122 174q0 167 -122 167zM220 529l-115 146h121l74 -146h-80z" />
    <glyph glyph-name="oacute" unicode="&#xf3;" horiz-adv-x="505" 
d="M252 -12q-97 0 -153.5 64.5t-56.5 181.5q0 116 56.5 177.5t153.5 61.5q98 0 154.5 -61.5t56.5 -177.5q0 -117 -57 -181.5t-154 -64.5zM252 400q-121 0 -121 -167q0 -174 121 -174q122 0 122 174q0 167 -122 167zM205 529l74 146h121l-116 -146h-79z" />
    <glyph glyph-name="ocircumflex" unicode="&#xf4;" horiz-adv-x="505" 
d="M252 -12q-97 0 -153.5 64.5t-56.5 181.5q0 116 56.5 177.5t153.5 61.5q98 0 154.5 -61.5t56.5 -177.5q0 -117 -57 -181.5t-154 -64.5zM252 400q-121 0 -121 -167q0 -174 121 -174q122 0 122 174q0 167 -122 167zM279 675l125 -147h-92l-34 42q-8 10 -14 19.5t-8 14.5
l-1 4h-5q-4 -15 -23 -38l-34 -42h-92l125 147h53z" />
    <glyph glyph-name="otilde" unicode="&#xf5;" horiz-adv-x="505" 
d="M252 -12q-97 0 -153.5 64.5t-56.5 181.5q0 116 56.5 177.5t153.5 61.5q98 0 154.5 -61.5t56.5 -177.5q0 -117 -57 -181.5t-154 -64.5zM252 400q-121 0 -121 -167q0 -174 121 -174q122 0 122 174q0 167 -122 167zM322 529q-28 0 -72 23q-42 25 -60 25q-36 0 -30 -47h-55
q-19 49 3 86.5t71 37.5q34 0 79 -27q39 -23 55 -23q33 0 29 49h57q18 -53 -3 -88.5t-74 -35.5z" />
    <glyph glyph-name="odieresis" unicode="&#xf6;" horiz-adv-x="505" 
d="M252 -12q-97 0 -153.5 64.5t-56.5 181.5q0 116 56.5 177.5t153.5 61.5q98 0 154.5 -61.5t56.5 -177.5q0 -117 -57 -181.5t-154 -64.5zM252 400q-121 0 -121 -167q0 -174 121 -174q122 0 122 174q0 167 -122 167zM94 595q0 26 17.5 43t41.5 17q25 0 42.5 -17t17.5 -43
q0 -25 -17.5 -42t-42.5 -17q-24 0 -41.5 17t-17.5 42zM290 594q0 26 17.5 43t41.5 17q26 0 43 -17t17 -43q0 -25 -17.5 -42t-42.5 -17q-24 0 -41.5 17t-17.5 42z" />
    <glyph glyph-name="divide" unicode="&#xf7;" horiz-adv-x="498" 
d="M45 221v54h408v-54h-408zM199 74q0 19 13.5 32.5t33.5 13.5q19 0 32.5 -13.5t13.5 -32.5t-13.5 -32t-32.5 -13q-20 0 -33.5 13t-13.5 32zM199 415q0 20 14 34t33 14t32.5 -14t13.5 -34q0 -18 -13.5 -31.5t-32.5 -13.5t-33 13.5t-14 31.5z" />
    <glyph glyph-name="oslash" unicode="&#xf8;" horiz-adv-x="505" 
d="M25 25l53 56q-36 63 -36 153q0 116 56.5 177.5t153.5 61.5q89 0 143 -51l47 50l45 -38l-55 -59q31 -57 31 -141q0 -117 -57 -181.5t-154 -64.5q-83 0 -136 47l-46 -49zM252 400q-121 0 -121 -167q0 -51 10 -84l199 214q-31 37 -88 37zM374 233q0 39 -8 71l-197 -212
q30 -33 83 -33q122 0 122 174z" />
    <glyph glyph-name="ugrave" unicode="&#xf9;" horiz-adv-x="508" 
d="M348 84q-31 -96 -142 -96q-140 0 -140 153v321h90v-307q0 -100 83 -100q41 0 74 36t33 98v273h90v-462h-77zM219 529l-115 146h121l74 -146h-80z" />
    <glyph glyph-name="uacute" unicode="&#xfa;" horiz-adv-x="508" 
d="M348 84q-31 -96 -142 -96q-140 0 -140 153v321h90v-307q0 -100 83 -100q41 0 74 36t33 98v273h90v-462h-77zM204 529l74 146h121l-116 -146h-79z" />
    <glyph glyph-name="ucircumflex" unicode="&#xfb;" horiz-adv-x="508" 
d="M348 84q-31 -96 -142 -96q-140 0 -140 153v321h90v-307q0 -100 83 -100q41 0 74 36t33 98v273h90v-462h-77zM278 675l125 -147h-92l-34 42q-8 10 -14 19.5t-7 14.5l-2 4h-5q-4 -15 -23 -38l-34 -42h-92l125 147h53z" />
    <glyph glyph-name="udieresis" unicode="&#xfc;" horiz-adv-x="508" 
d="M348 84q-31 -96 -142 -96q-140 0 -140 153v321h90v-307q0 -100 83 -100q41 0 74 36t33 98v273h90v-462h-77zM93 595q0 26 17.5 43t41.5 17q25 0 42.5 -17t17.5 -43q0 -25 -17.5 -42t-42.5 -17q-24 0 -41.5 17t-17.5 42zM289 594q0 26 17.5 43t41.5 17q26 0 43 -17t17 -43
q0 -25 -17.5 -42t-42.5 -17q-24 0 -41.5 17t-17.5 42z" />
    <glyph glyph-name="yacute" unicode="&#xfd;" horiz-adv-x="440" 
d="M186 208q12 -40 21 -76.5t12 -53.5l3 -16h4q8 55 35 146l77 254h94l-170 -500q-33 -97 -77.5 -133.5t-110.5 -36.5q-36 0 -67 11l8 77q28 -14 60 -14q37 0 60.5 23.5t43.5 83.5l-171 489h99zM179 529l74 146h121l-116 -146h-79z" />
    <glyph glyph-name="thorn" unicode="&#xfe;" 
d="M162 179q0 -62 33.5 -92.5t78.5 -30.5q55 0 90.5 45.5t35.5 132.5q0 81 -30.5 123t-85.5 42q-52 0 -87 -36.5t-35 -98.5v-85zM162 -203h-90v871h90v-287q34 92 148 92q86 0 134 -60t48 -171q0 -110 -53.5 -182t-146.5 -72q-51 0 -84 20.5t-46 52.5v-264z" />
    <glyph glyph-name="ydieresis" unicode="&#xff;" horiz-adv-x="440" 
d="M186 208q12 -40 21 -76.5t12 -53.5l3 -16h4q8 55 35 146l77 254h94l-170 -500q-33 -97 -77.5 -133.5t-110.5 -36.5q-36 0 -67 11l8 77q28 -14 60 -14q37 0 60.5 23.5t43.5 83.5l-171 489h99zM67 595q0 26 17.5 43t41.5 17q25 0 42.5 -17t17.5 -43q0 -25 -17.5 -42
t-42.5 -17q-24 0 -41.5 17t-17.5 42zM263 594q0 26 17.5 43t41.5 17q26 0 43 -17t17 -43q0 -25 -17.5 -42t-42.5 -17q-24 0 -41.5 17t-17.5 42z" />
    <glyph glyph-name="Amacron" unicode="&#x100;" horiz-adv-x="569" 
d="M403 161h-241l-56 -161h-96l215 589h121l213 -589h-99zM188 237h188l-45 132q-15 41 -26.5 79.5t-15.5 57.5l-4 18h-4q-14 -62 -46 -154zM151 674v71h264v-71h-264z" />
    <glyph glyph-name="amacron" unicode="&#x101;" horiz-adv-x="479" 
d="M305 206q-178 4 -178 -83q0 -30 19 -48.5t55 -18.5q40 0 72 22.5t32 60.5v67zM396 109q0 -43 34 -43q14 0 26 5v-70q-21 -8 -49 -8q-84 0 -95 74q-33 -79 -137 -79q-62 0 -100 33.5t-38 91.5q0 165 268 152v57q0 79 -83 79q-78 0 -84 -74l-86 13q5 68 55.5 100.5
t122.5 32.5q74 0 120 -33.5t46 -108.5v-222zM99 558v73h262v-73h-262z" />
    <glyph glyph-name="Abreve" unicode="&#x102;" horiz-adv-x="569" 
d="M403 161h-241l-56 -161h-96l215 589h121l213 -589h-99zM188 237h188l-45 132q-15 41 -26.5 79.5t-15.5 57.5l-4 18h-4q-14 -62 -46 -154zM283 650q-64 0 -99.5 35t-35.5 96h71q2 -33 16.5 -49t47.5 -16t48 16.5t17 48.5h71q0 -61 -35.5 -96t-100.5 -35z" />
    <glyph glyph-name="abreve" unicode="&#x103;" horiz-adv-x="479" 
d="M305 206q-178 4 -178 -83q0 -30 19 -48.5t55 -18.5q40 0 72 22.5t32 60.5v67zM396 109q0 -43 34 -43q14 0 26 5v-70q-21 -8 -49 -8q-84 0 -95 74q-33 -79 -137 -79q-62 0 -100 33.5t-38 91.5q0 165 268 152v57q0 79 -83 79q-78 0 -84 -74l-86 13q5 68 55.5 100.5
t122.5 32.5q74 0 120 -33.5t46 -108.5v-222zM232 526q-65 0 -100.5 38.5t-35.5 102.5h71q3 -37 16 -55.5t49 -18.5q35 0 48.5 18.5t16.5 55.5h71q0 -64 -35.5 -102.5t-100.5 -38.5z" />
    <glyph glyph-name="Aogonek" unicode="&#x104;" horiz-adv-x="569" 
d="M322 -106q0 56 37.5 90t88.5 48l-45 129h-241l-56 -161h-96l215 589h121l213 -589h-54q-40 -3 -71.5 -27t-31.5 -66q0 -57 52 -57q45 0 70 42l29 -44q-35 -59 -115 -59q-53 0 -84.5 27t-31.5 78zM188 237h188l-45 132q-15 41 -26.5 79.5t-15.5 57.5l-4 18h-4
q-14 -62 -46 -154z" />
    <glyph glyph-name="aogonek" unicode="&#x105;" horiz-adv-x="479" 
d="M241 -106q0 45 28.5 75.5t68.5 46.5q-23 16 -26 51q-17 -39 -53.5 -59t-83.5 -20q-62 0 -100 33.5t-38 91.5q0 165 268 152v57q0 79 -83 79q-78 0 -84 -74l-86 13q5 68 55.5 100.5t122.5 32.5q74 0 120 -33.5t46 -108.5v-222q0 -43 34 -43q14 0 26 5v-70
q-136 -12 -136 -94q0 -27 14 -42t39 -15q43 0 70 42l29 -44q-36 -59 -115 -59q-53 0 -84.5 27t-31.5 78zM305 206q-178 4 -178 -83q0 -30 19 -48.5t55 -18.5q40 0 72 22.5t32 60.5v67z" />
    <glyph glyph-name="Cacute" unicode="&#x106;" horiz-adv-x="563" 
d="M539 110q-41 -64 -96 -93t-141 -29q-117 0 -187.5 80.5t-70.5 224.5q0 145 75 226.5t200 81.5q161 0 221 -142l-86 -42q-36 105 -140 105q-82 0 -128 -61.5t-46 -167.5t43 -164.5t126 -58.5q54 0 91.5 21.5t67.5 70.5zM264 653l63 123h120l-101 -123h-82z" />
    <glyph glyph-name="cacute" unicode="&#x107;" horiz-adv-x="458" 
d="M427 117q-11 -66 -59.5 -97.5t-121.5 -31.5q-93 0 -148.5 63.5t-55.5 176.5q0 115 57 180t154 65q74 0 119 -38t49 -106l-82 -17q-12 87 -90 87q-58 0 -89 -46.5t-31 -124.5q0 -74 34 -121t90 -47q76 0 96 76zM209 529l74 146h121l-116 -146h-79z" />
    <glyph glyph-name="Ccircumflex" unicode="&#x108;" horiz-adv-x="563" 
d="M539 110q-41 -64 -96 -93t-141 -29q-117 0 -187.5 80.5t-70.5 224.5q0 145 75 226.5t200 81.5q161 0 221 -142l-86 -42q-36 105 -140 105q-82 0 -128 -61.5t-46 -167.5t43 -164.5t126 -58.5q54 0 91.5 21.5t67.5 70.5zM344 782l125 -129h-97l-31 33q-8 9 -14 17.5
t-7 12.5l-2 4h-3q-4 -14 -23 -34l-32 -33h-96l124 129h56z" />
    <glyph glyph-name="ccircumflex" unicode="&#x109;" horiz-adv-x="458" 
d="M427 117q-11 -66 -59.5 -97.5t-121.5 -31.5q-93 0 -148.5 63.5t-55.5 176.5q0 115 57 180t154 65q74 0 119 -38t49 -106l-82 -17q-12 87 -90 87q-58 0 -89 -46.5t-31 -124.5q0 -74 34 -121t90 -47q76 0 96 76zM278 675l125 -147h-92l-34 42q-8 10 -14 19.5t-7 14.5l-2 4
h-5q-4 -15 -23 -38l-34 -42h-92l125 147h53z" />
    <glyph glyph-name="Cdotaccent" unicode="&#x10a;" horiz-adv-x="563" 
d="M539 110q-41 -64 -96 -93t-141 -29q-117 0 -187.5 80.5t-70.5 224.5q0 145 75 226.5t200 81.5q161 0 221 -142l-86 -42q-36 105 -140 105q-82 0 -128 -61.5t-46 -167.5t43 -164.5t126 -58.5q54 0 91.5 21.5t67.5 70.5zM249 713q0 26 17.5 43t42.5 17q27 0 44.5 -16.5
t17.5 -43.5q0 -25 -18 -42.5t-44 -17.5q-25 0 -42.5 17.5t-17.5 42.5z" />
    <glyph glyph-name="cdotaccent" unicode="&#x10b;" horiz-adv-x="458" 
d="M427 117q-11 -66 -59.5 -97.5t-121.5 -31.5q-93 0 -148.5 63.5t-55.5 176.5q0 115 57 180t154 65q74 0 119 -38t49 -106l-82 -17q-12 87 -90 87q-58 0 -89 -46.5t-31 -124.5q0 -74 34 -121t90 -47q76 0 96 76zM190 593q0 26 17.5 43t42.5 17q26 0 44 -17t18 -43
q0 -25 -18 -42.5t-44 -17.5q-25 0 -42.5 17.5t-17.5 42.5z" />
    <glyph glyph-name="Ccaron" unicode="&#x10c;" horiz-adv-x="563" 
d="M539 110q-41 -64 -96 -93t-141 -29q-117 0 -187.5 80.5t-70.5 224.5q0 145 75 226.5t200 81.5q161 0 221 -142l-86 -42q-36 105 -140 105q-82 0 -128 -61.5t-46 -167.5t43 -164.5t126 -58.5q54 0 91.5 21.5t67.5 70.5zM279 649l-124 129h96l32 -33q8 -9 14 -17.5t7 -12.5
l2 -4h3q4 14 23 34l31 33h97l-125 -129h-56z" />
    <glyph glyph-name="ccaron" unicode="&#x10d;" horiz-adv-x="458" 
d="M427 117q-11 -66 -59.5 -97.5t-121.5 -31.5q-93 0 -148.5 63.5t-55.5 176.5q0 115 57 180t154 65q74 0 119 -38t49 -106l-82 -17q-12 87 -90 87q-58 0 -89 -46.5t-31 -124.5q0 -74 34 -121t90 -47q76 0 96 76zM226 528l-125 147h92l34 -43q8 -10 14 -19.5t7 -14.5l2 -4h5
q4 15 23 38l34 43h92l-125 -147h-53z" />
    <glyph glyph-name="Dcaron" unicode="&#x10e;" horiz-adv-x="594" 
d="M254 77q92 0 145.5 53.5t53.5 166.5q0 215 -190 215h-88v-435h79zM83 0v589h183q131 0 207.5 -70t76.5 -218q0 -154 -79.5 -227.5t-207.5 -73.5h-180zM236 649l-124 129h96l32 -33q8 -9 14 -17.5t8 -12.5l1 -4h3q4 14 23 34l31 33h97l-125 -129h-56z" />
    <glyph glyph-name="dcaron" unicode="&#x10f;" 
d="M587 498h-66l16 176h102zM372 286q0 57 -35 87t-80 30q-56 0 -90 -42.5t-34 -134.5q0 -80 33 -123.5t90 -43.5q43 0 79.5 33.5t36.5 91.5v102zM371 668h91v-668h-80l-10 80q-34 -92 -147 -92q-77 0 -130 61.5t-53 173.5q0 118 54 184t153 66q43 0 77.5 -21t44.5 -52v268z
" />
    <glyph glyph-name="Dcroat" unicode="&#x110;" horiz-adv-x="594" 
d="M83 0v256h-59v78h59v255h183q131 0 207.5 -70t76.5 -218q0 -154 -79.5 -227.5t-207.5 -73.5h-180zM254 77q92 0 145.5 53.5t53.5 166.5q0 215 -190 215h-88v-178h111v-78h-111v-179h79z" />
    <glyph glyph-name="dcroat" unicode="&#x111;" 
d="M226 594h145v74h91v-74h67v-65h-67v-529h-80l-10 80q-34 -92 -147 -92q-77 0 -130 61.5t-53 173.5q0 118 54 184t153 66q43 0 77.5 -21t44.5 -52v129h-145v65zM372 286q0 57 -35 87t-80 30q-56 0 -90 -42.5t-34 -134.5q0 -80 33 -123.5t90 -43.5q43 0 79.5 33.5
t36.5 91.5v102z" />
    <glyph glyph-name="Emacron" unicode="&#x112;" horiz-adv-x="496" 
d="M446 0h-363v589h363v-80h-271v-174h240v-80h-240v-175h271v-80zM133 674v71h264v-71h-264z" />
    <glyph glyph-name="emacron" unicode="&#x113;" horiz-adv-x="478" 
d="M253 59q79 0 101 75l79 -21q-26 -125 -185 -125q-94 0 -150 63t-56 176q0 115 57 180.5t154 65.5q87 0 135 -54t48 -143q0 -39 -9 -64h-298q3 -70 35 -111.5t89 -41.5zM347 277q1 7 1 19q0 45 -27.5 75.5t-72.5 30.5q-49 0 -79.5 -32.5t-37.5 -92.5h216zM120 558v73h262
v-73h-262z" />
    <glyph glyph-name="Ebreve" unicode="&#x114;" horiz-adv-x="496" 
d="M446 0h-363v589h363v-80h-271v-174h240v-80h-240v-175h271v-80zM259 650q-64 0 -99.5 35t-35.5 96h71q2 -33 16.5 -49t47.5 -16t48 16.5t17 48.5h71q0 -61 -35.5 -96t-100.5 -35z" />
    <glyph glyph-name="ebreve" unicode="&#x115;" horiz-adv-x="478" 
d="M253 59q79 0 101 75l79 -21q-26 -125 -185 -125q-94 0 -150 63t-56 176q0 115 57 180.5t154 65.5q87 0 135 -54t48 -143q0 -39 -9 -64h-298q3 -70 35 -111.5t89 -41.5zM347 277q1 7 1 19q0 45 -27.5 75.5t-72.5 30.5q-49 0 -79.5 -32.5t-37.5 -92.5h216zM250 526
q-65 0 -100.5 38.5t-35.5 102.5h71q3 -37 16 -55.5t49 -18.5q35 0 48.5 18.5t16.5 55.5h71q0 -64 -35.5 -102.5t-100.5 -38.5z" />
    <glyph glyph-name="Edotaccent" unicode="&#x116;" horiz-adv-x="496" 
d="M446 0h-363v589h363v-80h-271v-174h240v-80h-240v-175h271v-80zM199 713q0 26 17.5 43t42.5 17q27 0 44.5 -16.5t17.5 -43.5q0 -25 -18 -42.5t-44 -17.5q-25 0 -42.5 17.5t-17.5 42.5z" />
    <glyph glyph-name="edotaccent" unicode="&#x117;" horiz-adv-x="478" 
d="M253 59q79 0 101 75l79 -21q-26 -125 -185 -125q-94 0 -150 63t-56 176q0 115 57 180.5t154 65.5q87 0 135 -54t48 -143q0 -39 -9 -64h-298q3 -70 35 -111.5t89 -41.5zM347 277q1 7 1 19q0 45 -27.5 75.5t-72.5 30.5q-49 0 -79.5 -32.5t-37.5 -92.5h216zM190 593
q0 26 17.5 43t42.5 17q26 0 44 -17t18 -43q0 -25 -18 -42.5t-44 -17.5q-25 0 -42.5 17.5t-17.5 42.5z" />
    <glyph glyph-name="Eogonek" unicode="&#x118;" horiz-adv-x="496" 
d="M446 0h-18q-49 0 -79 -24t-30 -68q0 -58 52 -58q45 0 70 42l29 -44q-35 -59 -115 -59q-53 0 -84.5 27t-31.5 78q0 73 70 106h-226v589h363v-80h-271v-174h240v-80h-240v-175h271v-80z" />
    <glyph glyph-name="eogonek" unicode="&#x119;" horiz-adv-x="478" 
d="M177 -106q0 57 44 96q-83 8 -131 69.5t-48 167.5q0 115 57 180.5t154 65.5q87 0 135 -54t48 -143q0 -39 -9 -64h-298q3 -70 35 -111.5t89 -41.5q79 0 101 75l79 -21q-10 -50 -38 -75t-69 -39q-69 -24 -69 -91q0 -58 52 -58q45 0 70 42l29 -44q-35 -59 -115 -59
q-53 0 -84.5 27t-31.5 78zM347 277q1 7 1 19q0 45 -27.5 75.5t-72.5 30.5q-49 0 -79.5 -32.5t-37.5 -92.5h216z" />
    <glyph glyph-name="Ecaron" unicode="&#x11a;" horiz-adv-x="496" 
d="M446 0h-363v589h363v-80h-271v-174h240v-80h-240v-175h271v-80zM234 649l-124 129h96l32 -33q8 -9 14 -17.5t8 -12.5l1 -4h3q4 14 23 34l31 33h97l-125 -129h-56z" />
    <glyph glyph-name="ecaron" unicode="&#x11b;" horiz-adv-x="478" 
d="M253 59q79 0 101 75l79 -21q-26 -125 -185 -125q-94 0 -150 63t-56 176q0 115 57 180.5t154 65.5q87 0 135 -54t48 -143q0 -39 -9 -64h-298q3 -70 35 -111.5t89 -41.5zM347 277q1 7 1 19q0 45 -27.5 75.5t-72.5 30.5q-49 0 -79.5 -32.5t-37.5 -92.5h216zM225 528
l-125 147h92l34 -43q8 -10 14 -19.5t8 -14.5l1 -4h5q4 15 23 38l34 43h92l-125 -147h-53z" />
    <glyph glyph-name="Gcircumflex" unicode="&#x11c;" horiz-adv-x="610" 
d="M547 304v-304h-73l-12 76q-17 -42 -62.5 -65t-99.5 -23q-116 0 -186 79t-70 225q0 145 75 227t200 82q166 0 221 -142l-86 -42q-18 52 -54.5 78.5t-85.5 26.5q-79 0 -126.5 -60.5t-47.5 -169.5q0 -104 43 -166t126 -62q63 0 105 30t42 86v44h-143v80h234zM347 782
l125 -129h-97l-31 33q-8 9 -14 17.5t-8 12.5l-1 4h-3q-4 -14 -23 -34l-32 -33h-96l124 129h56z" />
    <glyph glyph-name="gcircumflex" unicode="&#x11d;" horiz-adv-x="485" 
d="M229 473q84 0 134 -37q25 14 35 70l78 -27q-5 -32 -26.5 -54t-50.5 -29q21 -36 21 -87q0 -77 -54 -118.5t-136 -41.5q-39 0 -60 8q-31 -16 -31 -48q0 -38 49 -38h113q78 0 119.5 -33.5t41.5 -95.5q0 -57 -39 -93t-92 -48t-120 -12q-202 0 -202 121q0 45 31 73.5t88 32.5
q-31 4 -47.5 23.5t-16.5 48.5q0 63 68 81q-90 40 -90 140q0 77 51 120.5t136 43.5zM94 -80q0 -67 126 -67q155 0 155 76q0 61 -78 61h-100q-103 0 -103 -70zM132 310q0 -44 25.5 -70.5t71.5 -26.5q47 0 74 24.5t27 72.5t-27 73t-74 24q-46 0 -71.5 -25.5t-25.5 -71.5z
M269 677l125 -147h-92l-34 42q-8 10 -14 19.5t-8 14.5l-1 4h-5q-4 -15 -23 -38l-34 -42h-92l125 147h53z" />
    <glyph glyph-name="Gbreve" unicode="&#x11e;" horiz-adv-x="610" 
d="M547 304v-304h-73l-12 76q-17 -42 -62.5 -65t-99.5 -23q-116 0 -186 79t-70 225q0 145 75 227t200 82q166 0 221 -142l-86 -42q-18 52 -54.5 78.5t-85.5 26.5q-79 0 -126.5 -60.5t-47.5 -169.5q0 -104 43 -166t126 -62q63 0 105 30t42 86v44h-143v80h234zM320 650
q-64 0 -99.5 35t-35.5 96h71q2 -33 16.5 -49t47.5 -16t48 16.5t17 48.5h71q0 -61 -35.5 -96t-100.5 -35z" />
    <glyph glyph-name="gbreve" unicode="&#x11f;" horiz-adv-x="485" 
d="M229 473q84 0 134 -37q25 14 35 70l78 -27q-5 -32 -26.5 -54t-50.5 -29q21 -36 21 -87q0 -77 -54 -118.5t-136 -41.5q-39 0 -60 8q-31 -16 -31 -48q0 -38 49 -38h113q78 0 119.5 -33.5t41.5 -95.5q0 -57 -39 -93t-92 -48t-120 -12q-202 0 -202 121q0 45 31 73.5t88 32.5
q-31 4 -47.5 23.5t-16.5 48.5q0 63 68 81q-90 40 -90 140q0 77 51 120.5t136 43.5zM94 -80q0 -67 126 -67q155 0 155 76q0 61 -78 61h-100q-103 0 -103 -70zM132 310q0 -44 25.5 -70.5t71.5 -26.5q47 0 74 24.5t27 72.5t-27 73t-74 24q-46 0 -71.5 -25.5t-25.5 -71.5z
M236 526q-65 0 -100.5 38.5t-35.5 102.5h71q3 -37 16 -55.5t49 -18.5q35 0 48.5 18.5t16.5 55.5h71q0 -64 -35.5 -102.5t-100.5 -38.5z" />
    <glyph glyph-name="Gdotaccent" unicode="&#x120;" horiz-adv-x="610" 
d="M547 304v-304h-73l-12 76q-17 -42 -62.5 -65t-99.5 -23q-116 0 -186 79t-70 225q0 145 75 227t200 82q166 0 221 -142l-86 -42q-18 52 -54.5 78.5t-85.5 26.5q-79 0 -126.5 -60.5t-47.5 -169.5q0 -104 43 -166t126 -62q63 0 105 30t42 86v44h-143v80h234zM259 726
q0 26 17.5 43t42.5 17q27 0 44.5 -16.5t17.5 -43.5q0 -25 -18 -42.5t-44 -17.5q-25 0 -42.5 17.5t-17.5 42.5z" />
    <glyph glyph-name="gdotaccent" unicode="&#x121;" horiz-adv-x="485" 
d="M229 473q84 0 134 -37q25 14 35 70l78 -27q-5 -32 -26.5 -54t-50.5 -29q21 -36 21 -87q0 -77 -54 -118.5t-136 -41.5q-39 0 -60 8q-31 -16 -31 -48q0 -38 49 -38h113q78 0 119.5 -33.5t41.5 -95.5q0 -57 -39 -93t-92 -48t-120 -12q-202 0 -202 121q0 45 31 73.5t88 32.5
q-31 4 -47.5 23.5t-16.5 48.5q0 63 68 81q-90 40 -90 140q0 77 51 120.5t136 43.5zM94 -80q0 -67 126 -67q155 0 155 76q0 61 -78 61h-100q-103 0 -103 -70zM132 310q0 -44 25.5 -70.5t71.5 -26.5q47 0 74 24.5t27 72.5t-27 73t-74 24q-46 0 -71.5 -25.5t-25.5 -71.5z
M171 595q0 26 17.5 43t42.5 17q26 0 44 -17t18 -43q0 -25 -18 -42.5t-44 -17.5q-25 0 -42.5 17.5t-17.5 42.5z" />
    <glyph glyph-name="Gcommaaccent" unicode="&#x122;" horiz-adv-x="610" 
d="M547 304v-304h-73l-12 76q-17 -42 -62.5 -65t-99.5 -23q-116 0 -186 79t-70 225q0 145 75 227t200 82q166 0 221 -142l-86 -42q-18 52 -54.5 78.5t-85.5 26.5q-79 0 -126.5 -60.5t-47.5 -169.5q0 -104 43 -166t126 -62q63 0 105 30t42 86v44h-143v80h234zM390 -142
q0 -105 -121 -105v37q31 2 45.5 11t14.5 32q-27 -4 -44 9t-17 38t15.5 39t41.5 14q27 0 46 -20.5t19 -54.5z" />
    <glyph glyph-name="gcommaaccent" unicode="&#x123;" horiz-adv-x="485" 
d="M229 473q84 0 134 -37q25 14 35 70l78 -27q-5 -32 -26.5 -54t-50.5 -29q21 -36 21 -87q0 -77 -54 -118.5t-136 -41.5q-39 0 -60 8q-31 -16 -31 -48q0 -38 49 -38h113q78 0 119.5 -33.5t41.5 -95.5q0 -57 -39 -93t-92 -48t-120 -12q-202 0 -202 121q0 45 31 73.5t88 32.5
q-31 4 -47.5 23.5t-16.5 48.5q0 63 68 81q-90 40 -90 140q0 77 51 120.5t136 43.5zM94 -80q0 -67 126 -67q155 0 155 76q0 61 -78 61h-100q-103 0 -103 -70zM132 310q0 -44 25.5 -70.5t71.5 -26.5q47 0 74 24.5t27 72.5t-27 73t-74 24q-46 0 -71.5 -25.5t-25.5 -71.5z
M166 606q0 105 121 105v-37q-31 -2 -45.5 -11t-14.5 -32q27 4 44 -9t17 -38t-16 -39t-41 -14q-27 0 -46 20.5t-19 54.5z" />
    <glyph glyph-name="Hcircumflex" unicode="&#x124;" horiz-adv-x="631" 
d="M83 0v589h92v-250h281v250h92v-589h-92v259h-281v-259h-92zM343 782l125 -129h-97l-31 33q-8 9 -14 17.5t-8 12.5l-1 4h-3q-4 -14 -23 -34l-32 -33h-96l124 129h56z" />
    <glyph glyph-name="hcircumflex" unicode="&#x125;" horiz-adv-x="509" 
d="M162 374q33 99 140 99q61 0 100.5 -35.5t39.5 -107.5v-330h-90v304q0 91 -81 91q-48 0 -78.5 -30t-30.5 -100v-265h-90v668h90v-294zM147 828l125 -129h-97l-31 33q-8 9 -14 17.5t-8 12.5l-1 4h-3q-4 -14 -23 -34l-32 -33h-96l124 129h56z" />
    <glyph glyph-name="Hbar" unicode="&#x126;" horiz-adv-x="646" 
d="M13 494h76v95h92v-95h280v95h93v-95h79v-77h-79v-417h-93v257h-280v-257h-92v417h-76v77zM461 335v82h-280v-82h280z" />
    <glyph glyph-name="hbar" unicode="&#x127;" horiz-adv-x="509" 
d="M162 594h144v-65h-144v-155q33 99 140 99q61 0 100.5 -35.5t39.5 -107.5v-330h-90v304q0 91 -81 91q-48 0 -78.5 -30t-30.5 -100v-265h-90v529h-69v65h69v74h90v-74z" />
    <glyph glyph-name="Itilde" unicode="&#x128;" horiz-adv-x="258" 
d="M175 589v-589h-92v589h92zM200 653q-26 0 -72 24q-5 3 -14.5 8.5t-13 7t-10 4.5t-11.5 4t-11 1q-36 0 -30 -47h-55q-19 48 3.5 87t70.5 39q36 0 79 -26q38 -24 55 -24q33 0 29 49h57q18 -53 -3.5 -90t-73.5 -37z" />
    <glyph glyph-name="itilde" unicode="&#x129;" horiz-adv-x="234" 
d="M188 529q-28 0 -72 23q-42 25 -60 25q-36 0 -30 -47h-55q-19 49 3 86.5t71 37.5q34 0 79 -27q39 -23 55 -23q33 0 29 49h57q18 -53 -3 -88.5t-74 -35.5zM162 462v-462h-90v462h90z" />
    <glyph glyph-name="Imacron" unicode="&#x12a;" horiz-adv-x="258" 
d="M175 589v-589h-92v589h92zM-2 674v71h264v-71h-264z" />
    <glyph glyph-name="imacron" unicode="&#x12b;" horiz-adv-x="234" 
d="M3 558v73h227v-73h-227zM162 462v-462h-90v462h90z" />
    <glyph glyph-name="Ibreve" unicode="&#x12c;" horiz-adv-x="258" 
d="M175 589v-589h-92v589h92zM129 650q-64 0 -99.5 35t-35.5 96h71q2 -33 16.5 -49t47.5 -16t48 16.5t17 48.5h71q0 -61 -35.5 -96t-100.5 -35z" />
    <glyph glyph-name="ibreve" unicode="&#x12d;" horiz-adv-x="234" 
d="M117 526q-65 0 -100.5 38.5t-35.5 102.5h71q3 -37 16 -55.5t49 -18.5q35 0 48.5 18.5t16.5 55.5h71q0 -64 -35.5 -102.5t-100.5 -38.5zM162 462v-462h-90v462h90z" />
    <glyph glyph-name="Iogonek" unicode="&#x12e;" horiz-adv-x="258" 
d="M-15 -106q0 89 98 127v568h92v-589q-42 0 -76.5 -24.5t-34.5 -68.5q0 -27 14 -42t39 -15q45 0 70 42l29 -44q-36 -59 -115 -59q-53 0 -84.5 27t-31.5 78z" />
    <glyph glyph-name="iogonek" unicode="&#x12f;" horiz-adv-x="234" 
d="M-28 -106q0 90 100 128v440h90v-462q-42 0 -76.5 -24.5t-34.5 -68.5q0 -27 14 -42t39 -15q45 0 70 42l29 -44q-36 -59 -115 -59q-53 0 -84.5 27t-31.5 78zM56 610q0 26 17.5 43t42.5 17q27 0 45 -16.5t18 -43.5q0 -25 -18.5 -42.5t-44.5 -17.5q-24 0 -42 17.5t-18 42.5z
" />
    <glyph glyph-name="Idotaccent" unicode="&#x130;" horiz-adv-x="258" 
d="M175 589v-589h-92v589h92zM68 713q0 26 17.5 43t42.5 17q27 0 44.5 -16.5t17.5 -43.5q0 -25 -18 -42.5t-44 -17.5q-25 0 -42.5 17.5t-17.5 42.5z" />
    <glyph glyph-name="dotlessi" unicode="&#x131;" horiz-adv-x="234" 
d="M162 462v-462h-90v462h90z" />
    <glyph glyph-name="IJ" unicode="&#x132;" horiz-adv-x="658" 
d="M175 589v-589h-92v589h92zM595 589v-418q0 -95 -52 -139t-134 -44q-131 0 -187 115l72 54q24 -51 49 -71.5t67 -20.5q53 0 72.5 32t19.5 95v397h93z" />
    <glyph glyph-name="ij" unicode="&#x133;" horiz-adv-x="469" 
d="M56 610q0 26 17.5 43t42.5 17q27 0 45 -16.5t18 -43.5q0 -25 -18.5 -42.5t-44.5 -17.5q-24 0 -42 17.5t-18 42.5zM162 462v-462h-90v462h90zM396 462v-469q0 -109 -56 -154.5t-164 -41.5v76q68 -6 99 21.5t31 94.5v473h90zM291 610q0 26 17.5 43t42.5 17q26 0 44 -17
t18 -43q0 -25 -18 -42.5t-44 -17.5q-25 0 -42.5 17.5t-17.5 42.5z" />
    <glyph glyph-name="Jcircumflex" unicode="&#x134;" horiz-adv-x="437" 
d="M373 589v-418q0 -95 -52 -139t-134 -44q-131 0 -187 115l72 54q24 -51 49 -71.5t67 -20.5q53 0 72.5 32t19.5 95v397h93zM353 782l125 -129h-97l-31 33q-8 9 -14 17.5t-8 12.5l-1 4h-3q-4 -14 -23 -34l-32 -33h-96l124 129h56z" />
    <glyph glyph-name="jcircumflex" unicode="&#x135;" horiz-adv-x="234" 
d="M162 462v-469q0 -109 -56 -154.5t-164 -41.5v76q68 -6 99 21.5t31 94.5v473h90zM144 675l125 -147h-92l-34 42q-8 10 -14 19.5t-7 14.5l-2 4h-5q-4 -15 -23 -38l-34 -42h-92l125 147h53z" />
    <glyph glyph-name="Kcommaaccent" unicode="&#x136;" horiz-adv-x="537" 
d="M406 0l-185 259h-46v-259h-92v589h92v-250h49l172 250h108l-205 -286l220 -303h-113zM330 -142q0 -105 -121 -105v37q31 2 45.5 11t14.5 32q-27 -4 -44 9t-17 38t15.5 39t41.5 14q27 0 46 -20.5t19 -54.5z" />
    <glyph glyph-name="kcommaaccent" unicode="&#x137;" horiz-adv-x="468" 
d="M462 0h-111l-161 207h-28v-207h-90v668h90v-391h23l153 185h109l-186 -215zM314 -142q0 -105 -121 -105v37q31 2 45.5 11t14.5 32q-27 -4 -44 9t-17 38t15.5 39t41.5 14q27 0 46 -20.5t19 -54.5z" />
    <glyph glyph-name="kgreenlandic" unicode="&#x138;" horiz-adv-x="468" 
d="M462 0h-111l-161 207h-28v-207h-90v462h89v-185h24l153 185h109l-186 -215z" />
    <glyph glyph-name="Lacute" unicode="&#x139;" horiz-adv-x="461" 
d="M175 589v-509h264v-80h-356v589h92zM93 653l63 123h120l-101 -123h-82z" />
    <glyph glyph-name="lacute" unicode="&#x13a;" horiz-adv-x="261" 
d="M228 0q-32 -8 -56 -8q-46 0 -76 25.5t-30 74.5v576h90v-557q0 -41 41 -41q15 0 32 5zM69 718l63 123h120l-101 -123h-82z" />
    <glyph glyph-name="Lcommaaccent" unicode="&#x13b;" horiz-adv-x="461" 
d="M175 589v-509h264v-80h-356v589h92zM332 -142q0 -105 -121 -105v37q31 2 45.5 11t14.5 32q-27 -4 -44 9t-17 38t15.5 39t41.5 14q27 0 46 -20.5t19 -54.5z" />
    <glyph glyph-name="lcommaaccent" unicode="&#x13c;" horiz-adv-x="261" 
d="M228 0q-32 -8 -56 -8q-46 0 -76 25.5t-30 74.5v576h90v-557q0 -41 41 -41q15 0 32 5zM212 -142q0 -105 -121 -105v37q31 2 45.5 11t14.5 32q-27 -4 -44 9t-17 38t15.5 39t41.5 14q27 0 46 -20.5t19 -54.5z" />
    <glyph glyph-name="Lcaron" unicode="&#x13d;" horiz-adv-x="461" 
d="M175 589v-509h264v-80h-356v589h92zM361 433h-66l16 180h102z" />
    <glyph glyph-name="lcaron" unicode="&#x13e;" horiz-adv-x="261" 
d="M282 498h-65l16 176h102zM228 0q-32 -8 -56 -8q-46 0 -76 25.5t-30 74.5v576h90v-557q0 -41 41 -41q15 0 32 5z" />
    <glyph glyph-name="Ldot" unicode="&#x13f;" horiz-adv-x="461" 
d="M175 589v-509h264v-80h-356v589h92zM262 316q0 29 19.5 48.5t48.5 19.5t48.5 -19.5t19.5 -48.5q0 -28 -20 -48t-48 -20t-48 20t-20 48z" />
    <glyph glyph-name="ldot" unicode="&#x140;" horiz-adv-x="323" 
d="M228 0q-32 -8 -56 -8q-46 0 -76 25.5t-30 74.5v576h90v-557q0 -41 41 -41q15 0 32 5zM208 319q0 29 19.5 48.5t48.5 19.5t48.5 -19.5t19.5 -48.5t-20 -48.5t-48 -19.5t-48 19.5t-20 48.5z" />
    <glyph glyph-name="Lslash" unicode="&#x141;" horiz-adv-x="468" 
d="M30 288l60 22v279h92v-245l143 53v-74l-143 -52v-191h264v-80h-356v238l-60 -21v71z" />
    <glyph glyph-name="lslash" unicode="&#x142;" horiz-adv-x="271" 
d="M16 344l59 30v294h90v-247l74 39v-78l-74 -38v-233q0 -41 41 -41q15 0 32 5l-1 -75q-32 -8 -56 -8q-46 0 -76 25.5t-30 74.5v207l-59 -30v75z" />
    <glyph glyph-name="Nacute" unicode="&#x143;" horiz-adv-x="650" 
d="M409 252q16 -23 32.5 -51t25.5 -45l9 -16h4q-5 63 -5 137v312h92v-589h-91l-235 336q-16 24 -33 52.5t-26 45.5l-9 16h-4q6 -63 6 -139v-311h-92v589h94zM281 653l63 123h120l-101 -123h-82z" />
    <glyph glyph-name="nacute" unicode="&#x144;" horiz-adv-x="509" 
d="M154 373q36 100 148 100q61 0 100.5 -35.5t39.5 -107.5v-330h-90v303q0 92 -81 92q-48 0 -78.5 -30.5t-30.5 -99.5v-265h-90v462h71zM215 529l74 146h121l-116 -146h-79z" />
    <glyph glyph-name="Ncommaaccent" unicode="&#x145;" horiz-adv-x="650" 
d="M409 252q16 -23 32.5 -51t25.5 -45l9 -16h4q-5 63 -5 137v312h92v-589h-91l-235 336q-16 24 -33 52.5t-26 45.5l-9 16h-4q6 -63 6 -139v-311h-92v589h94zM396 -142q0 -105 -121 -105v37q31 2 45.5 11t14.5 32q-27 -4 -44 9t-17 38t15.5 39t41.5 14q27 0 46 -20.5
t19 -54.5z" />
    <glyph glyph-name="ncommaaccent" unicode="&#x146;" horiz-adv-x="509" 
d="M154 373q36 100 148 100q61 0 100.5 -35.5t39.5 -107.5v-330h-90v303q0 92 -81 92q-48 0 -78.5 -30.5t-30.5 -99.5v-265h-90v462h71zM323 -142q0 -105 -121 -105v37q31 2 45.5 11t14.5 32q-27 -4 -44 9t-17 38t15.5 39t41.5 14q27 0 46 -20.5t19 -54.5z" />
    <glyph glyph-name="Ncaron" unicode="&#x147;" horiz-adv-x="650" 
d="M409 252q16 -23 32.5 -51t25.5 -45l9 -16h4q-5 63 -5 137v312h92v-589h-91l-235 336q-16 24 -33 52.5t-26 45.5l-9 16h-4q6 -63 6 -139v-311h-92v589h94zM297 649l-124 129h96l32 -33q8 -9 14 -17.5t7 -12.5l2 -4h3q4 14 23 34l31 33h97l-125 -129h-56z" />
    <glyph glyph-name="ncaron" unicode="&#x148;" horiz-adv-x="509" 
d="M154 373q36 100 148 100q61 0 100.5 -35.5t39.5 -107.5v-330h-90v303q0 92 -81 92q-48 0 -78.5 -30.5t-30.5 -99.5v-265h-90v462h71zM234 528l-125 147h92l34 -43q8 -10 14 -19.5t7 -14.5l2 -4h5q4 15 23 38l34 43h92l-125 -147h-53z" />
    <glyph glyph-name="Eng" unicode="&#x14a;" horiz-adv-x="650" 
d="M567 -28q0 -97 -53 -140t-138 -43q-90 0 -150 62l54 70q42 -54 101 -54q54 0 74 31.5t20 94.5v7l-234 336q-16 24 -33 52.5t-26 45.5l-9 16h-4q6 -63 6 -139v-311h-92v589h94l232 -337q16 -23 32.5 -51t25.5 -45l9 -16h4q-5 63 -5 137v312h92v-617z" />
    <glyph glyph-name="eng" unicode="&#x14b;" horiz-adv-x="509" 
d="M72 0v462h71l11 -89q36 100 148 100q61 0 100.5 -35.5t39.5 -107.5v-337q0 -109 -56 -154.5t-164 -41.5v76q68 -6 99 21.5t31 93.5v315q0 92 -81 92q-48 0 -78.5 -30.5t-30.5 -99.5v-265h-90z" />
    <glyph glyph-name="Omacron" unicode="&#x14c;" horiz-adv-x="619" 
d="M310 -12q-123 0 -194.5 80.5t-71.5 225.5q0 146 71.5 226.5t194.5 80.5t194 -80.5t71 -226.5q0 -145 -71 -225.5t-194 -80.5zM310 520q-82 0 -125.5 -59.5t-43.5 -166.5t43.5 -166.5t125.5 -59.5t125 59.5t43 166.5q0 106 -43.5 166t-124.5 60zM178 674v71h264v-71h-264z
" />
    <glyph glyph-name="omacron" unicode="&#x14d;" horiz-adv-x="505" 
d="M252 -12q-97 0 -153.5 64.5t-56.5 181.5q0 116 56.5 177.5t153.5 61.5q98 0 154.5 -61.5t56.5 -177.5q0 -117 -57 -181.5t-154 -64.5zM252 400q-121 0 -121 -167q0 -174 121 -174q122 0 122 174q0 167 -122 167zM122 558v73h262v-73h-262z" />
    <glyph glyph-name="Obreve" unicode="&#x14e;" horiz-adv-x="619" 
d="M310 -12q-123 0 -194.5 80.5t-71.5 225.5q0 146 71.5 226.5t194.5 80.5t194 -80.5t71 -226.5q0 -145 -71 -225.5t-194 -80.5zM310 520q-82 0 -125.5 -59.5t-43.5 -166.5t43.5 -166.5t125.5 -59.5t125 59.5t43 166.5q0 106 -43.5 166t-124.5 60zM310 650q-64 0 -99.5 35
t-35.5 96h71q2 -33 16.5 -49t47.5 -16t48 16.5t17 48.5h71q0 -61 -35.5 -96t-100.5 -35z" />
    <glyph glyph-name="obreve" unicode="&#x14f;" horiz-adv-x="505" 
d="M252 -12q-97 0 -153.5 64.5t-56.5 181.5q0 116 56.5 177.5t153.5 61.5q98 0 154.5 -61.5t56.5 -177.5q0 -117 -57 -181.5t-154 -64.5zM252 400q-121 0 -121 -167q0 -174 121 -174q122 0 122 174q0 167 -122 167zM253 526q-65 0 -100.5 38.5t-35.5 102.5h71
q3 -37 16 -55.5t49 -18.5q35 0 48.5 18.5t16.5 55.5h71q0 -64 -35.5 -102.5t-100.5 -38.5z" />
    <glyph glyph-name="Ohungarumlaut" unicode="&#x150;" horiz-adv-x="619" 
d="M310 -12q-123 0 -194.5 80.5t-71.5 225.5q0 146 71.5 226.5t194.5 80.5t194 -80.5t71 -226.5q0 -145 -71 -225.5t-194 -80.5zM310 520q-82 0 -125.5 -59.5t-43.5 -166.5t43.5 -166.5t125.5 -59.5t125 59.5t43 166.5q0 106 -43.5 166t-124.5 60zM198 653l62 123h109
l-104 -123h-67zM344 653l74 123h113l-116 -123h-71z" />
    <glyph glyph-name="ohungarumlaut" unicode="&#x151;" horiz-adv-x="505" 
d="M252 -12q-97 0 -153.5 64.5t-56.5 181.5q0 116 56.5 177.5t153.5 61.5q98 0 154.5 -61.5t56.5 -177.5q0 -117 -57 -181.5t-154 -64.5zM252 400q-121 0 -121 -167q0 -174 121 -174q122 0 122 174q0 167 -122 167zM140 529l62 146h109l-104 -146h-67zM286 529l74 146h113
l-116 -146h-71z" />
    <glyph glyph-name="OE" unicode="&#x152;" horiz-adv-x="844" 
d="M310 -12q-123 0 -194.5 80.5t-71.5 225.5q0 146 71.5 226.5t194.5 80.5q46 0 86 -12h398v-80h-282q52 -66 61 -174h190v-80h-190q-9 -113 -61 -175h282v-80h-398q-40 -12 -86 -12zM310 520q-82 0 -124.5 -59.5t-42.5 -166.5t42.5 -166.5t124.5 -59.5t124 59t42 167
q0 107 -42.5 166.5t-123.5 59.5z" />
    <glyph glyph-name="oe" unicode="&#x153;" horiz-adv-x="811" 
d="M586 59q79 0 101 75l79 -21q-26 -125 -186 -125q-56 0 -99 23.5t-64 69.5q-39 -93 -165 -93q-97 0 -153.5 64.5t-56.5 181.5q0 116 56.5 177.5t153.5 61.5q130 0 167 -94q22 45 65.5 69.5t100.5 24.5q88 0 135.5 -54t47.5 -143q0 -42 -8 -64h-298q3 -70 35 -111.5
t89 -41.5zM252 400q-121 0 -121 -167q0 -174 121 -174q122 0 122 174q0 167 -122 167zM680 277q1 7 1 19q0 46 -27.5 76t-73.5 30q-49 0 -79 -32.5t-37 -92.5h216z" />
    <glyph glyph-name="Racute" unicode="&#x154;" horiz-adv-x="550" 
d="M414 0q-19 21 -26 55l-24 102q-12 49 -37.5 65.5t-72.5 16.5h-79v-239h-92v589h204q201 0 201 -168q0 -67 -38.5 -105t-97.5 -41v-3q43 -5 66.5 -26.5t35.5 -67.5l30 -116q11 -38 31 -62h-101zM175 316h108q109 0 109 98q0 47 -27 72.5t-81 25.5h-109v-196zM217 653
l63 123h120l-101 -123h-82z" />
    <glyph glyph-name="racute" unicode="&#x155;" horiz-adv-x="356" 
d="M331 371q-22 4 -41 4q-52 0 -90 -38.5t-38 -102.5v-234h-90v462h76l11 -125q14 65 59.5 102t119.5 33zM158 529l74 146h121l-116 -146h-79z" />
    <glyph glyph-name="Rcommaaccent" unicode="&#x156;" horiz-adv-x="550" 
d="M414 0q-19 21 -26 55l-24 102q-12 49 -37.5 65.5t-72.5 16.5h-79v-239h-92v589h204q201 0 201 -168q0 -67 -38.5 -105t-97.5 -41v-3q43 -5 66.5 -26.5t35.5 -67.5l30 -116q11 -38 31 -62h-101zM175 316h108q109 0 109 98q0 47 -27 72.5t-81 25.5h-109v-196zM332 -142
q0 -105 -121 -105v37q31 2 45.5 11t14.5 32q-27 -4 -44 9t-17 38t15.5 39t41.5 14q27 0 46 -20.5t19 -54.5z" />
    <glyph glyph-name="rcommaaccent" unicode="&#x157;" horiz-adv-x="356" 
d="M331 371q-22 4 -41 4q-52 0 -90 -38.5t-38 -102.5v-234h-90v462h76l11 -125q14 65 59.5 102t119.5 33zM178 -142q0 -105 -121 -105v37q31 2 45.5 11t14.5 32q-27 -4 -44 9t-17 38t15.5 39t41.5 14q27 0 46 -20.5t19 -54.5z" />
    <glyph glyph-name="Rcaron" unicode="&#x158;" horiz-adv-x="550" 
d="M414 0q-19 21 -26 55l-24 102q-12 49 -37.5 65.5t-72.5 16.5h-79v-239h-92v589h204q201 0 201 -168q0 -67 -38.5 -105t-97.5 -41v-3q43 -5 66.5 -26.5t35.5 -67.5l30 -116q11 -38 31 -62h-101zM175 316h108q109 0 109 98q0 47 -27 72.5t-81 25.5h-109v-196zM233 649
l-124 129h96l32 -33q8 -9 14 -17.5t7 -12.5l2 -4h3q4 14 23 34l31 33h97l-125 -129h-56z" />
    <glyph glyph-name="rcaron" unicode="&#x159;" horiz-adv-x="356" 
d="M331 371q-22 4 -41 4q-52 0 -90 -38.5t-38 -102.5v-234h-90v462h76l11 -125q14 65 59.5 102t119.5 33zM169 528l-125 147h92l34 -43q8 -10 14 -19.5t8 -14.5l1 -4h5q4 15 23 38l34 43h92l-125 -147h-53z" />
    <glyph glyph-name="Sacute" unicode="&#x15a;" horiz-adv-x="478" 
d="M114 164q18 -105 123 -105q48 0 77 22t29 62q0 39 -25 62.5t-97 50.5q-84 29 -128 67t-44 112q0 85 55 126t133 41q186 0 200 -155l-91 -18q-4 48 -33.5 73.5t-74.5 25.5q-42 0 -68.5 -22.5t-26.5 -62.5q0 -41 29 -62t100 -47q82 -30 123.5 -67t41.5 -112
q0 -83 -57.5 -125t-147.5 -42q-177 0 -204 153zM200 653l63 123h120l-101 -123h-82z" />
    <glyph glyph-name="sacute" unicode="&#x15b;" horiz-adv-x="419" 
d="M107 128q10 -76 100 -76q42 0 67 16t25 46q0 29 -16 46t-56 27l-68 16q-62 15 -89 47t-27 84q0 72 50 105.5t124 33.5q153 0 166 -125l-88 -10q-4 67 -84 67q-38 0 -59.5 -16.5t-21.5 -45.5q0 -26 13.5 -41.5t49.5 -23.5l64 -15q64 -16 96 -48t32 -91q0 -70 -48.5 -103
t-130.5 -33q-81 0 -125 27.5t-54 88.5zM177 529l74 146h121l-116 -146h-79z" />
    <glyph glyph-name="Scircumflex" unicode="&#x15c;" horiz-adv-x="478" 
d="M114 164q18 -105 123 -105q48 0 77 22t29 62q0 39 -25 62.5t-97 50.5q-84 29 -128 67t-44 112q0 85 55 126t133 41q186 0 200 -155l-91 -18q-4 48 -33.5 73.5t-74.5 25.5q-42 0 -68.5 -22.5t-26.5 -62.5q0 -41 29 -62t100 -47q82 -30 123.5 -67t41.5 -112
q0 -83 -57.5 -125t-147.5 -42q-177 0 -204 153zM272 782l125 -129h-97l-31 33q-8 9 -14 17.5t-7 12.5l-2 4h-3q-4 -14 -23 -34l-32 -33h-96l124 129h56z" />
    <glyph glyph-name="scircumflex" unicode="&#x15d;" horiz-adv-x="419" 
d="M107 128q10 -76 100 -76q42 0 67 16t25 46q0 29 -16 46t-56 27l-68 16q-62 15 -89 47t-27 84q0 72 50 105.5t124 33.5q153 0 166 -125l-88 -10q-4 67 -84 67q-38 0 -59.5 -16.5t-21.5 -45.5q0 -26 13.5 -41.5t49.5 -23.5l64 -15q64 -16 96 -48t32 -91q0 -70 -48.5 -103
t-130.5 -33q-81 0 -125 27.5t-54 88.5zM250 675l125 -147h-92l-34 42q-8 10 -14 19.5t-7 14.5l-2 4h-5q-4 -15 -23 -38l-34 -42h-92l125 147h53z" />
    <glyph glyph-name="Scedilla" unicode="&#x15e;" horiz-adv-x="478" 
d="M341 -124q0 -42 -29.5 -64.5t-75.5 -22.5q-62 0 -90 38l24 51q26 -36 63 -36q36 0 36 34q0 41 -66 42l5 71q-156 9 -180 152l86 23q18 -105 123 -105q48 0 77 22t29 62q0 39 -25 62.5t-97 50.5q-84 29 -128 67t-44 112q0 85 55 126t133 41q186 0 200 -155l-91 -18
q-4 48 -33.5 73.5t-74.5 25.5q-42 0 -68.5 -22.5t-26.5 -62.5q0 -41 29 -62t100 -47q82 -30 123.5 -67t41.5 -112q0 -77 -50 -118.5t-132 -47.5l-2 -30q88 -7 88 -83z" />
    <glyph glyph-name="scedilla" unicode="&#x15f;" horiz-adv-x="419" 
d="M310 -124q0 -42 -29.5 -64.5t-75.5 -22.5q-61 0 -90 38l24 51q25 -36 63 -36q36 0 36 34q0 41 -66 42l5 71q-67 5 -104 32t-46 83l80 24q10 -76 100 -76q42 0 67 16t25 46q0 29 -16 46t-56 27l-68 16q-62 15 -89 47t-27 84q0 72 50 105.5t124 33.5q153 0 166 -125
l-88 -10q-4 67 -84 67q-38 0 -59.5 -16.5t-21.5 -45.5q0 -26 13.5 -41.5t49.5 -23.5l64 -15q64 -16 96 -48t32 -91q0 -66 -43.5 -99t-117.5 -36l-2 -30q88 -7 88 -83z" />
    <glyph glyph-name="Scaron" unicode="&#x160;" horiz-adv-x="478" 
d="M114 164q18 -105 123 -105q48 0 77 22t29 62q0 39 -25 62.5t-97 50.5q-84 29 -128 67t-44 112q0 85 55 126t133 41q186 0 200 -155l-91 -18q-4 48 -33.5 73.5t-74.5 25.5q-42 0 -68.5 -22.5t-26.5 -62.5q0 -41 29 -62t100 -47q82 -30 123.5 -67t41.5 -112
q0 -83 -57.5 -125t-147.5 -42q-177 0 -204 153zM216 649l-124 129h96l32 -33q8 -9 14 -17.5t8 -12.5l1 -4h3q4 14 23 34l31 33h97l-125 -129h-56z" />
    <glyph glyph-name="scaron" unicode="&#x161;" horiz-adv-x="419" 
d="M107 128q10 -76 100 -76q42 0 67 16t25 46q0 29 -16 46t-56 27l-68 16q-62 15 -89 47t-27 84q0 72 50 105.5t124 33.5q153 0 166 -125l-88 -10q-4 67 -84 67q-38 0 -59.5 -16.5t-21.5 -45.5q0 -26 13.5 -41.5t49.5 -23.5l64 -15q64 -16 96 -48t32 -91q0 -70 -48.5 -103
t-130.5 -33q-81 0 -125 27.5t-54 88.5zM189 528l-125 147h92l34 -43q8 -10 14 -19.5t8 -14.5l1 -4h5q4 15 23 38l34 43h92l-125 -147h-53z" />
    <glyph glyph-name="uni0162" unicode="&#x162;" horiz-adv-x="456" 
d="M181 0v509h-171v80h436v-80h-172v-509h-93zM287 -142q0 -105 -121 -105v37q31 2 45.5 11t14.5 32q-27 -4 -44 9t-17 38t15.5 39t41.5 14q27 0 46 -20.5t19 -54.5z" />
    <glyph glyph-name="uni0163" unicode="&#x163;" horiz-adv-x="337" 
d="M322 15q-45 -27 -112 -27q-63 0 -98 33t-35 97v272h-67v72h67v98l91 11v-109h137v-72h-138v-254q0 -71 61 -71q39 0 77 25zM253 -142q0 -105 -121 -105v37q31 2 45.5 11t14.5 32q-27 -4 -44 9t-17 38t15.5 39t41.5 14q27 0 46 -20.5t19 -54.5z" />
    <glyph glyph-name="Tcaron" unicode="&#x164;" horiz-adv-x="456" 
d="M181 0v509h-171v80h436v-80h-172v-509h-93zM200 649l-124 129h96l32 -33q8 -9 14 -17.5t8 -12.5l1 -4h3q4 14 23 34l31 33h97l-125 -129h-56z" />
    <glyph glyph-name="tcaron" unicode="&#x165;" horiz-adv-x="337" 
d="M322 15q-45 -27 -112 -27q-63 0 -98 33t-35 97v272h-67v72h67v98l91 11v-109h137v-72h-138v-254q0 -71 61 -71q39 0 77 25zM281 514h-66l16 180h102z" />
    <glyph glyph-name="Tbar" unicode="&#x166;" horiz-adv-x="456" 
d="M181 0v253h-111v76h111v180h-171v80h436v-80h-172v-180h114v-76h-114v-253h-93z" />
    <glyph glyph-name="tbar" unicode="&#x167;" horiz-adv-x="337" 
d="M10 305h67v85h-67v72h67v98l91 11v-109h137v-72h-138v-85h138v-69h-138v-100q0 -71 61 -71q39 0 77 25l17 -75q-45 -27 -112 -27q-63 0 -98 33t-35 97v118h-67v69z" />
    <glyph glyph-name="Utilde" unicode="&#x168;" horiz-adv-x="582" 
d="M518 589v-396q0 -55 -19 -96t-52 -64t-72 -34t-84 -11q-62 0 -111 18.5t-82.5 66t-33.5 120.5v396h92v-372q0 -153 135 -153q134 0 134 151v374h93zM360 653q-26 0 -72 24q-5 3 -14.5 8.5t-13 7t-10 4.5t-11.5 4t-11 1q-36 0 -30 -47h-55q-19 48 3.5 87t70.5 39
q36 0 79 -26q38 -24 55 -24q33 0 29 49h57q18 -53 -3.5 -90t-73.5 -37z" />
    <glyph glyph-name="utilde" unicode="&#x169;" horiz-adv-x="508" 
d="M348 84q-31 -96 -142 -96q-140 0 -140 153v321h90v-307q0 -100 83 -100q41 0 74 36t33 98v273h90v-462h-77zM321 529q-28 0 -72 23q-42 25 -60 25q-36 0 -30 -47h-55q-19 49 3 86.5t71 37.5q34 0 79 -27q39 -23 55 -23q33 0 29 49h57q18 -53 -3 -88.5t-74 -35.5z" />
    <glyph glyph-name="Umacron" unicode="&#x16a;" horiz-adv-x="582" 
d="M518 589v-396q0 -55 -19 -96t-52 -64t-72 -34t-84 -11q-62 0 -111 18.5t-82.5 66t-33.5 120.5v396h92v-372q0 -153 135 -153q134 0 134 151v374h93zM159 674v71h264v-71h-264z" />
    <glyph glyph-name="umacron" unicode="&#x16b;" horiz-adv-x="508" 
d="M348 84q-31 -96 -142 -96q-140 0 -140 153v321h90v-307q0 -100 83 -100q41 0 74 36t33 98v273h90v-462h-77zM121 558v73h262v-73h-262z" />
    <glyph glyph-name="Ubreve" unicode="&#x16c;" horiz-adv-x="582" 
d="M518 589v-396q0 -55 -19 -96t-52 -64t-72 -34t-84 -11q-62 0 -111 18.5t-82.5 66t-33.5 120.5v396h92v-372q0 -153 135 -153q134 0 134 151v374h93zM290 650q-64 0 -99.5 35t-35.5 96h71q2 -33 16.5 -49t47.5 -16t48 16.5t17 48.5h71q0 -61 -35.5 -96t-100.5 -35z" />
    <glyph glyph-name="ubreve" unicode="&#x16d;" horiz-adv-x="508" 
d="M348 84q-31 -96 -142 -96q-140 0 -140 153v321h90v-307q0 -100 83 -100q41 0 74 36t33 98v273h90v-462h-77zM251 526q-65 0 -100.5 38.5t-35.5 102.5h71q3 -37 16 -55.5t49 -18.5q35 0 48.5 18.5t16.5 55.5h71q0 -64 -35.5 -102.5t-100.5 -38.5z" />
    <glyph glyph-name="Uring" unicode="&#x16e;" horiz-adv-x="582" 
d="M518 589v-396q0 -55 -19 -96t-52 -64t-72 -34t-84 -11q-62 0 -111 18.5t-82.5 66t-33.5 120.5v396h92v-372q0 -153 135 -153q134 0 134 151v374h93zM299 635q-48 0 -75.5 28.5t-27.5 71.5q0 40 29 68.5t74 28.5t74 -28.5t29 -68.5q0 -43 -27.5 -71.5t-75.5 -28.5z
M299 790q-25 0 -40 -16t-15 -41q0 -23 14.5 -38t40.5 -15t40.5 15t14.5 38q0 25 -15 41t-40 16z" />
    <glyph glyph-name="uring" unicode="&#x16f;" horiz-adv-x="508" 
d="M348 84q-31 -96 -142 -96q-140 0 -140 153v321h90v-307q0 -100 83 -100q41 0 74 36t33 98v273h90v-462h-77zM252 520q-48 0 -75.5 28.5t-27.5 71.5q0 40 29 68t74 28t74 -28t29 -68q0 -43 -27.5 -71.5t-75.5 -28.5zM252 674q-25 0 -40 -15.5t-15 -40.5q0 -24 14.5 -38.5
t40.5 -14.5t40.5 14.5t14.5 38.5q0 25 -15 40.5t-40 15.5z" />
    <glyph glyph-name="Uhungarumlaut" unicode="&#x170;" horiz-adv-x="582" 
d="M518 589v-396q0 -55 -19 -96t-52 -64t-72 -34t-84 -11q-62 0 -111 18.5t-82.5 66t-33.5 120.5v396h92v-372q0 -153 135 -153q134 0 134 151v374h93zM178 653l62 123h109l-104 -123h-67zM324 653l74 123h113l-116 -123h-71z" />
    <glyph glyph-name="uhungarumlaut" unicode="&#x171;" horiz-adv-x="508" 
d="M348 84q-31 -96 -142 -96q-140 0 -140 153v321h90v-307q0 -100 83 -100q41 0 74 36t33 98v273h90v-462h-77zM138 529l62 146h109l-104 -146h-67zM284 529l74 146h113l-116 -146h-71z" />
    <glyph glyph-name="Uogonek" unicode="&#x172;" horiz-adv-x="582" 
d="M186 -106q0 59 47 99q-76 12 -122.5 61t-46.5 139v396h92v-372q0 -153 135 -153q134 0 134 151v374h93v-396q0 -97 -54.5 -146.5t-139.5 -56.5q-58 -25 -58 -83q0 -57 52 -57q45 0 70 42l29 -44q-35 -59 -115 -59q-53 0 -84.5 27t-31.5 78z" />
    <glyph glyph-name="uogonek" unicode="&#x173;" horiz-adv-x="508" 
d="M250 -110q0 44 31 77t75 51l-8 70q-33 -100 -142 -100q-140 0 -140 153v321h90v-307q0 -100 81 -100q42 0 75.5 37.5t33.5 100.5v269h90v-462q-44 -2 -75.5 -27.5t-31.5 -66.5q0 -56 49 -56q45 0 70 42l29 -44q-36 -59 -115 -59q-52 0 -82 26.5t-30 74.5z" />
    <glyph glyph-name="Wcircumflex" unicode="&#x174;" horiz-adv-x="826" 
d="M562 220q10 -41 18 -80.5t11 -59.5l3 -19h4q8 68 30 158l93 370h93l-153 -589h-131l-90 347q-11 40 -17 79.5t-7 59.5l-1 19h-4q-4 -66 -27 -158l-89 -347h-131l-152 589h98l92 -367q10 -40 17.5 -80.5t10.5 -60.5l3 -20h4q7 69 31 160l95 368h107zM441 782l125 -129h-97
l-31 33q-8 9 -14 17.5t-8 12.5l-1 4h-3q-4 -14 -23 -34l-32 -33h-96l124 129h56z" />
    <glyph glyph-name="wcircumflex" unicode="&#x175;" horiz-adv-x="672" 
d="M448 222q12 -41 19.5 -80.5t9.5 -57.5l2 -19h4q3 63 26 157l62 240h91l-126 -462h-108l-61 219q-11 39 -18.5 75.5t-9.5 53.5l-2 17h-4q-5 -57 -28 -146l-58 -219h-108l-129 462h93l63 -240q11 -41 19 -80.5t10 -57.5l2 -19h4q3 66 28 158l64 239h90zM362 675l125 -147
h-92l-34 42q-8 10 -14 19.5t-7 14.5l-2 4h-5q-4 -15 -23 -38l-34 -42h-92l125 147h53z" />
    <glyph glyph-name="Ycircumflex" unicode="&#x176;" horiz-adv-x="484" 
d="M207 402q15 -30 25.5 -55t13.5 -35l2 -10h4q6 33 38 100l87 187h97l-180 -366v-223h-92v223l-192 366h105zM270 782l125 -129h-97l-31 33q-8 9 -14 17.5t-7 12.5l-2 4h-3q-4 -14 -23 -34l-32 -33h-96l124 129h56z" />
    <glyph glyph-name="ycircumflex" unicode="&#x177;" horiz-adv-x="440" 
d="M186 208q12 -40 21 -76.5t12 -53.5l3 -16h4q8 55 35 146l77 254h94l-170 -500q-33 -97 -77.5 -133.5t-110.5 -36.5q-36 0 -67 11l8 77q28 -14 60 -14q37 0 60.5 23.5t43.5 83.5l-171 489h99zM252 675l125 -147h-92l-34 42q-8 10 -14 19.5t-7 14.5l-2 4h-5q-4 -15 -23 -38
l-34 -42h-92l125 147h53z" />
    <glyph glyph-name="Ydieresis" unicode="&#x178;" horiz-adv-x="484" 
d="M207 402q15 -30 25.5 -55t13.5 -35l2 -10h4q6 33 38 100l87 187h97l-180 -366v-223h-92v223l-192 366h105zM84 713q0 26 17.5 43t41.5 17q25 0 42.5 -17t17.5 -43q0 -25 -17.5 -42t-42.5 -17q-24 0 -41.5 17t-17.5 42zM280 712q0 26 17.5 43t41.5 17q26 0 43 -17t17 -43
q0 -25 -17.5 -42t-42.5 -17q-24 0 -41.5 17t-17.5 42z" />
    <glyph glyph-name="Zacute" unicode="&#x179;" horiz-adv-x="475" 
d="M196 154q-15 -22 -29 -40t-21 -26l-7 -7v-4q25 3 86 3h228v-80h-431v55l253 380q14 22 28.5 40t21.5 25l7 8v4q-26 -3 -86 -3h-212v80h414v-62zM193 653l63 123h120l-101 -123h-82z" />
    <glyph glyph-name="zacute" unicode="&#x17a;" horiz-adv-x="394" 
d="M186 148q-15 -22 -29.5 -40t-20.5 -26l-7 -7v-4q25 3 86 3h157v-74h-350v51l177 261q15 22 29 40t21 26l7 7v4q-26 -3 -86 -3h-138v76h330v-60zM154 529l74 146h121l-116 -146h-79z" />
    <glyph glyph-name="Zdotaccent" unicode="&#x17b;" horiz-adv-x="475" 
d="M196 154q-15 -22 -29 -40t-21 -26l-7 -7v-4q25 3 86 3h228v-80h-431v55l253 380q14 22 28.5 40t21.5 25l7 8v4q-26 -3 -86 -3h-212v80h414v-62zM176 727q0 26 17.5 43t42.5 17q27 0 44.5 -16.5t17.5 -43.5q0 -25 -18 -42.5t-44 -17.5q-25 0 -42.5 17.5t-17.5 42.5z" />
    <glyph glyph-name="zdotaccent" unicode="&#x17c;" horiz-adv-x="394" 
d="M186 148q-15 -22 -29.5 -40t-20.5 -26l-7 -7v-4q25 3 86 3h157v-74h-350v51l177 261q15 22 29 40t21 26l7 7v4q-26 -3 -86 -3h-138v76h330v-60zM140 609q0 26 17.5 43t42.5 17q26 0 44 -17t18 -43q0 -25 -18 -42.5t-44 -17.5q-25 0 -42.5 17.5t-17.5 42.5z" />
    <glyph glyph-name="Zcaron" unicode="&#x17d;" horiz-adv-x="475" 
d="M196 154q-15 -22 -29 -40t-21 -26l-7 -7v-4q25 3 86 3h228v-80h-431v55l253 380q14 22 28.5 40t21.5 25l7 8v4q-26 -3 -86 -3h-212v80h414v-62zM209 649l-124 129h96l32 -33q8 -9 14 -17.5t7 -12.5l2 -4h3q4 14 23 34l31 33h97l-125 -129h-56z" />
    <glyph glyph-name="zcaron" unicode="&#x17e;" horiz-adv-x="394" 
d="M186 148q-15 -22 -29.5 -40t-20.5 -26l-7 -7v-4q25 3 86 3h157v-74h-350v51l177 261q15 22 29 40t21 26l7 7v4q-26 -3 -86 -3h-138v76h330v-60zM177 528l-125 147h92l34 -43q8 -10 14 -19.5t8 -14.5l1 -4h5q4 15 23 38l34 43h92l-125 -147h-53z" />
    <glyph glyph-name="uni018F" unicode="&#x18f;" horiz-adv-x="572" 
d="M50 444q20 79 78.5 118t143.5 39q117 0 186.5 -80t69.5 -225q0 -147 -69 -227.5t-188 -80.5q-110 0 -168.5 65t-58.5 181q0 32 7 78h382q-2 91 -46.5 149.5t-122.5 58.5q-104 0 -137 -106zM138 239q-2 -14 -2 -29q0 -66 35.5 -107t98.5 -41q70 0 113 49t49 128h-294z" />
    <glyph glyph-name="florin" unicode="&#x192;" horiz-adv-x="427" 
d="M88 167h-68l13 77h69l18 96q27 154 173 154q86 0 124 -54l-53 -67q-28 44 -79 44q-59 0 -74 -79l-18 -94h117l-13 -77h-118l-54 -287h-91z" />
    <glyph glyph-name="uni0198" unicode="&#x198;" horiz-adv-x="537" 
d="M299 300l220 -300h-113l-183 253h-48v-253h-92v589h92v-252h51l60 145q48 119 144 119q68 0 92 -63l-55 -56q-15 32 -40 32q-19 0 -32.5 -13t-28.5 -46z" />
    <glyph glyph-name="uni0199" unicode="&#x199;" horiz-adv-x="468" 
d="M162 0h-90v511q0 59 25.5 97.5t65 50.5t82 10.5t81.5 -15.5l-17 -81q-30 14 -54.5 19t-46.5 -1t-34.5 -31t-12.5 -68v-215h24l153 185h109l-186 -215l201 -247h-111l-161 207h-28v-207z" />
    <glyph glyph-name="uni01B7" unicode="&#x1b7;" horiz-adv-x="464" 
d="M253 435q15 21 29.5 39.5t21.5 25.5l6 8v4q-26 -3 -86 -3h-199v80h400v-62l-198 -265v-5q100 -1 156 -60t56 -155q0 -103 -65 -162.5t-165 -59.5q-96 0 -154.5 47.5t-68.5 134.5l76 28q10 -70 48.5 -105t96.5 -35q67 0 105.5 40.5t38.5 110.5q0 78 -56.5 121t-157.5 42
v66z" />
    <glyph glyph-name="uni01CD" unicode="&#x1cd;" horiz-adv-x="569" 
d="M403 161h-241l-56 -161h-96l215 589h121l213 -589h-99zM188 237h188l-45 132q-15 41 -26.5 79.5t-15.5 57.5l-4 18h-4q-14 -62 -46 -154zM254 649l-124 129h96l32 -33q8 -9 14 -17.5t8 -12.5l1 -4h3q4 14 23 34l31 33h97l-125 -129h-56z" />
    <glyph glyph-name="uni01CE" unicode="&#x1ce;" horiz-adv-x="479" 
d="M305 206q-178 4 -178 -83q0 -30 19 -48.5t55 -18.5q40 0 72 22.5t32 60.5v67zM396 109q0 -43 34 -43q14 0 26 5v-70q-21 -8 -49 -8q-84 0 -95 74q-33 -79 -137 -79q-62 0 -100 33.5t-38 91.5q0 165 268 152v57q0 79 -83 79q-78 0 -84 -74l-86 13q5 68 55.5 100.5
t122.5 32.5q74 0 120 -33.5t46 -108.5v-222zM206 528l-125 147h92l34 -43q8 -10 14 -19.5t7 -14.5l2 -4h5q4 15 23 38l34 43h92l-125 -147h-53z" />
    <glyph glyph-name="uni01CF" unicode="&#x1cf;" horiz-adv-x="258" 
d="M175 589v-589h-92v589h92zM101 649l-124 129h96l32 -33q8 -9 14 -17.5t7 -12.5l2 -4h3q4 14 23 34l31 33h97l-125 -129h-56z" />
    <glyph glyph-name="uni01D0" unicode="&#x1d0;" horiz-adv-x="234" 
d="M91 528l-125 147h92l34 -43q8 -10 14 -19.5t8 -14.5l1 -4h5q4 15 23 38l34 43h92l-125 -147h-53zM162 462v-462h-90v462h90z" />
    <glyph glyph-name="uni01D1" unicode="&#x1d1;" horiz-adv-x="619" 
d="M310 -12q-123 0 -194.5 80.5t-71.5 225.5q0 146 71.5 226.5t194.5 80.5t194 -80.5t71 -226.5q0 -145 -71 -225.5t-194 -80.5zM310 520q-82 0 -125.5 -59.5t-43.5 -166.5t43.5 -166.5t125.5 -59.5t125 59.5t43 166.5q0 106 -43.5 166t-124.5 60zM281 649l-124 129h96
l32 -33q8 -9 14 -17.5t7 -12.5l2 -4h3q4 14 23 34l31 33h97l-125 -129h-56z" />
    <glyph glyph-name="uni01D2" unicode="&#x1d2;" horiz-adv-x="505" 
d="M252 -12q-97 0 -153.5 64.5t-56.5 181.5q0 116 56.5 177.5t153.5 61.5q98 0 154.5 -61.5t56.5 -177.5q0 -117 -57 -181.5t-154 -64.5zM252 400q-121 0 -121 -167q0 -174 121 -174q122 0 122 174q0 167 -122 167zM226 528l-125 147h92l34 -43q8 -10 14 -19.5t7 -14.5l2 -4
h5q4 15 23 38l34 43h92l-125 -147h-53z" />
    <glyph glyph-name="uni01D3" unicode="&#x1d3;" horiz-adv-x="582" 
d="M518 589v-396q0 -55 -19 -96t-52 -64t-72 -34t-84 -11q-62 0 -111 18.5t-82.5 66t-33.5 120.5v396h92v-372q0 -153 135 -153q134 0 134 151v374h93zM262 649l-124 129h96l32 -33q8 -9 14 -17.5t8 -12.5l1 -4h3q4 14 23 34l31 33h97l-125 -129h-56z" />
    <glyph glyph-name="uni01D4" unicode="&#x1d4;" horiz-adv-x="508" 
d="M348 84q-31 -96 -142 -96q-140 0 -140 153v321h90v-307q0 -100 83 -100q41 0 74 36t33 98v273h90v-462h-77zM225 528l-125 147h92l34 -43q8 -10 14 -19.5t8 -14.5l1 -4h5q4 15 23 38l34 43h92l-125 -147h-53z" />
    <glyph glyph-name="uni01D9" unicode="&#x1d9;" horiz-adv-x="582" 
d="M518 589v-396q0 -55 -19 -96t-52 -64t-72 -34t-84 -11q-62 0 -111 18.5t-82.5 66t-33.5 120.5v396h92v-372q0 -153 135 -153q134 0 134 151v374h93zM132 683q0 26 17.5 43t41.5 17q25 0 42.5 -17t17.5 -43q0 -25 -17.5 -42t-42.5 -17q-24 0 -41.5 17t-17.5 42zM328 682
q0 26 17.5 43t41.5 17q26 0 43 -17t17 -43q0 -25 -17.5 -42t-42.5 -17q-24 0 -41.5 17t-17.5 42zM262 756l-124 129h96l32 -33q8 -9 13.5 -17.5t7.5 -12.5l2 -4h2q5 14 23 34l32 33h96l-124 -129h-56z" />
    <glyph glyph-name="uni01DA" unicode="&#x1da;" horiz-adv-x="508" 
d="M348 84q-31 -96 -142 -96q-140 0 -140 153v321h90v-307q0 -100 83 -100q41 0 74 36t33 98v273h90v-462h-77zM94 559q0 26 17 42.5t42 16.5t42 -16.5t17 -42.5q0 -25 -17 -42t-42 -17q-24 0 -41.5 17t-17.5 42zM290 558q0 26 17.5 43t41.5 17q25 0 42 -17t17 -43
q0 -25 -17 -42t-42 -17q-24 0 -41.5 17t-17.5 42zM224 632l-125 129h97l31 -33q8 -9 14 -17.5t7 -12.5l2 -4h3q4 14 23 34l31 33h97l-125 -129h-55z" />
    <glyph glyph-name="A_dieresis_macron" unicode="&#x1de;" horiz-adv-x="569" 
d="M403 161h-241l-56 -161h-96l215 589h121l213 -589h-99zM188 237h188l-45 132q-15 41 -26.5 79.5t-15.5 57.5l-4 18h-4q-14 -62 -46 -154zM151 803v71h264v-71h-264zM126 694q0 26 17.5 43t41.5 17q25 0 42.5 -17t17.5 -43q0 -25 -17.5 -42t-42.5 -17q-24 0 -41.5 17
t-17.5 42zM322 693q0 26 17.5 43t41.5 17q26 0 43 -17t17 -43q0 -25 -17.5 -42t-42.5 -17q-24 0 -41.5 17t-17.5 42z" />
    <glyph glyph-name="uni01DF" unicode="&#x1df;" horiz-adv-x="479" 
d="M305 206q-178 4 -178 -83q0 -30 19 -48.5t55 -18.5q40 0 72 22.5t32 60.5v67zM396 109q0 -43 34 -43q14 0 26 5v-70q-21 -8 -49 -8q-84 0 -95 74q-33 -79 -137 -79q-62 0 -100 33.5t-38 91.5q0 165 268 152v57q0 79 -83 79q-78 0 -84 -74l-86 13q5 68 55.5 100.5
t122.5 32.5q74 0 120 -33.5t46 -108.5v-222zM102 665v73h262v-73h-262zM74 564q0 26 17.5 43t41.5 17q25 0 42.5 -17t17.5 -43q0 -25 -17.5 -42t-42.5 -17q-24 0 -41.5 17t-17.5 42zM270 563q0 26 17.5 43t41.5 17q26 0 43 -17t17 -43q0 -25 -17.5 -42t-42.5 -17
q-24 0 -41.5 17t-17.5 42z" />
    <glyph glyph-name="uni01E2" unicode="&#x1e2;" horiz-adv-x="833" 
d="M420 0v161h-214l-98 -161h-100l361 589h414v-80h-271v-174h240v-80h-240v-175h271v-80h-363zM250 237h170v135q0 44 1.5 81.5t2.5 52.5l2 16h-4zM409 674v71h264v-71h-264z" />
    <glyph glyph-name="uni01E3" unicode="&#x1e3;" horiz-adv-x="725" 
d="M500 61q79 0 101 74l79 -22q-26 -125 -185 -125q-107 0 -162 79q-45 -79 -153 -79q-65 0 -104 33.5t-39 91.5q0 159 254 160q5 35 15 65q-8 63 -83 63q-79 0 -85 -74l-85 13q5 68 56 100.5t122 32.5q88 0 128 -52q55 52 141 52q87 0 134 -55t49 -145q0 -35 -6 -62h-298
q3 -68 34 -109t87 -41zM593 273q1 7 1 23q0 46 -26.5 76t-71.5 30q-49 0 -78.5 -34t-36.5 -95h212zM197 57q37 0 65 18.5t42 50.5q-13 36 -15 85q-87 -1 -123.5 -21t-36.5 -66q0 -30 18 -48.5t50 -18.5zM227 558v73h262v-73h-262z" />
    <glyph glyph-name="uni01E4" unicode="&#x1e4;" horiz-adv-x="632" 
d="M547 317v-114h59v-63h-59v-140h-73l-12 76q-17 -42 -62.5 -65t-99.5 -23q-116 0 -186 79t-70 225q0 145 75 227t200 82q166 0 221 -142l-86 -42q-18 52 -54.5 78.5t-85.5 26.5q-79 0 -125.5 -60t-46.5 -170q0 -104 42 -166.5t125 -62.5q117 0 146 77h-142v63h143v46h-143
v68h234z" />
    <glyph glyph-name="uni01E5" unicode="&#x1e5;" horiz-adv-x="536" 
d="M259 473q84 0 134 -37q25 14 35 70l78 -27q-5 -32 -26.5 -54t-51.5 -29q22 -35 22 -87q0 -77 -54 -118.5t-136 -41.5q-39 0 -60 8q-32 -17 -32 -48q0 -38 50 -38h113q78 0 119 -33.5t41 -95.5v-4h45v-35h-50q-17 -61 -85 -87.5t-160 -26.5q-196 0 -202 114h-39v35h42
q19 70 116 78q-31 4 -48 23.5t-17 48.5q0 63 69 81q-90 39 -90 140q0 77 51 120.5t136 43.5zM162 310q0 -44 25.5 -70.5t71.5 -26.5q47 0 74 24.5t27 72.5t-27 73t-74 24q-47 0 -72 -25.5t-25 -71.5zM225 -9q-90 0 -101 -53h281q-5 53 -78 53h-102zM249 -151q131 0 153 54
h-278q14 -54 125 -54z" />
    <glyph glyph-name="Gcaron" unicode="&#x1e6;" horiz-adv-x="610" 
d="M547 304v-304h-73l-12 76q-17 -42 -62.5 -65t-99.5 -23q-116 0 -186 79t-70 225q0 145 75 227t200 82q166 0 221 -142l-86 -42q-18 52 -54.5 78.5t-85.5 26.5q-79 0 -126.5 -60.5t-47.5 -169.5q0 -104 43 -166t126 -62q63 0 105 30t42 86v44h-143v80h234zM291 649
l-124 129h96l32 -33q8 -9 14 -17.5t7 -12.5l2 -4h3q4 14 23 34l31 33h97l-125 -129h-56z" />
    <glyph glyph-name="gcaron" unicode="&#x1e7;" horiz-adv-x="485" 
d="M229 473q84 0 134 -37q25 14 35 70l78 -27q-5 -32 -26.5 -54t-50.5 -29q21 -36 21 -87q0 -77 -54 -118.5t-136 -41.5q-39 0 -60 8q-31 -16 -31 -48q0 -38 49 -38h113q78 0 119.5 -33.5t41.5 -95.5q0 -57 -39 -93t-92 -48t-120 -12q-202 0 -202 121q0 45 31 73.5t88 32.5
q-31 4 -47.5 23.5t-16.5 48.5q0 63 68 81q-90 40 -90 140q0 77 51 120.5t136 43.5zM94 -80q0 -67 126 -67q155 0 155 76q0 61 -78 61h-100q-103 0 -103 -70zM132 310q0 -44 25.5 -70.5t71.5 -26.5q47 0 74 24.5t27 72.5t-27 73t-74 24q-46 0 -71.5 -25.5t-25.5 -71.5z
M213 528l-125 147h92l34 -43q8 -10 14 -19.5t8 -14.5l1 -4h5q4 15 23 38l34 43h92l-125 -147h-53z" />
    <glyph glyph-name="uni01E8" unicode="&#x1e8;" horiz-adv-x="537" 
d="M406 0l-185 259h-46v-259h-92v589h92v-250h49l172 250h108l-205 -286l220 -303h-113zM231 649l-124 129h96l32 -33q8 -9 14 -17.5t7 -12.5l2 -4h3q4 14 23 34l31 33h97l-125 -129h-56z" />
    <glyph glyph-name="uni01E9" unicode="&#x1e9;" horiz-adv-x="468" 
d="M462 0h-111l-161 207h-28v-207h-90v668h90v-391h23l153 185h109l-186 -215zM89 709l-124 129h96l32 -33q8 -9 14 -17.5t7 -12.5l2 -4h3q4 14 23 34l31 33h97l-125 -129h-56z" />
    <glyph glyph-name="uni01EA" unicode="&#x1ea;" horiz-adv-x="619" 
d="M201 -106q0 61 48 100q-97 18 -151 95.5t-54 204.5q0 146 71.5 226.5t194.5 80.5t194 -80.5t71 -226.5q0 -136 -63 -215.5t-173 -88.5q-59 -26 -59 -83q0 -27 14 -42t39 -15q45 0 70 42l29 -44q-36 -59 -115 -59q-53 0 -84.5 27t-31.5 78zM310 520q-82 0 -125.5 -59.5
t-43.5 -166.5t43.5 -166.5t125.5 -59.5t125 59.5t43 166.5q0 106 -43.5 166t-124.5 60z" />
    <glyph glyph-name="uni01EB" unicode="&#x1eb;" horiz-adv-x="505" 
d="M136 -106q0 63 52 103q-69 19 -107.5 80t-38.5 157q0 116 56.5 177.5t153.5 61.5q98 0 154.5 -61.5t56.5 -177.5q0 -110 -51 -174t-139 -71q-57 -26 -57 -82q0 -57 53 -57q44 0 69 42l29 -44q-35 -59 -115 -59q-53 0 -84.5 27t-31.5 78zM252 400q-121 0 -121 -167
q0 -174 121 -174q122 0 122 174q0 167 -122 167z" />
    <glyph glyph-name="O_ogonek_macron" unicode="&#x1ec;" horiz-adv-x="619" 
d="M178 674v71h264v-71h-264zM201 -106q0 61 48 100q-97 18 -151 95.5t-54 204.5q0 146 71.5 226.5t194.5 80.5t194 -80.5t71 -226.5q0 -136 -63 -215.5t-173 -88.5q-59 -26 -59 -83q0 -27 14 -42t39 -15q45 0 70 42l29 -44q-36 -59 -115 -59q-53 0 -84.5 27t-31.5 78z
M310 520q-82 0 -125.5 -59.5t-43.5 -166.5t43.5 -166.5t125.5 -59.5t125 59.5t43 166.5q0 106 -43.5 166t-124.5 60z" />
    <glyph glyph-name="uni01ED" unicode="&#x1ed;" horiz-adv-x="505" 
d="M122 558v73h262v-73h-262zM136 -106q0 63 52 103q-69 19 -107.5 80t-38.5 157q0 116 56.5 177.5t153.5 61.5q98 0 154.5 -61.5t56.5 -177.5q0 -110 -51 -174t-139 -71q-57 -26 -57 -82q0 -57 53 -57q44 0 69 42l29 -44q-35 -59 -115 -59q-53 0 -84.5 27t-31.5 78z
M252 400q-121 0 -121 -167q0 -174 121 -174q122 0 122 174q0 167 -122 167z" />
    <glyph glyph-name="uni01EE" unicode="&#x1ee;" horiz-adv-x="464" 
d="M253 435q15 21 29.5 39.5t21.5 25.5l6 8v4q-26 -3 -86 -3h-199v80h400v-62l-198 -265v-5q100 -1 156 -60t56 -155q0 -103 -65 -162.5t-165 -59.5q-96 0 -154.5 47.5t-68.5 134.5l76 28q10 -70 48.5 -105t96.5 -35q67 0 105.5 40.5t38.5 110.5q0 78 -56.5 121t-157.5 42
v66zM205 649l-124 129h96l32 -33q8 -9 14 -17.5t7 -12.5l2 -4h3q4 14 23 34l31 33h97l-125 -129h-56z" />
    <glyph glyph-name="uni01EF" unicode="&#x1ef;" horiz-adv-x="395" 
d="M192 312q16 21 32 39t24 26l8 8v4q-33 -3 -93 -3h-132v76h330v-60l-166 -202v-3q77 -2 122.5 -51.5t45.5 -125.5q0 -82 -55.5 -128t-143.5 -46q-72 0 -118.5 38.5t-56.5 101.5l80 23q7 -45 35 -68.5t68 -23.5q45 0 75 27.5t30 71.5q0 120 -164 139v58zM173 528l-125 147
h92l34 -43q8 -10 14 -19.5t8 -14.5l1 -4h5q4 15 23 38l34 43h92l-125 -147h-53z" />
    <glyph glyph-name="uni01F0" unicode="&#x1f0;" horiz-adv-x="234" 
d="M91 528l-125 147h92l34 -43q8 -10 14 -19.5t8 -14.5l1 -4h5q4 15 23 38l34 43h92l-125 -147h-53zM162 462v-469q0 -109 -56 -154.5t-164 -41.5v76q68 -6 99 21.5t31 94.5v473h90z" />
    <glyph glyph-name="uni01F4" unicode="&#x1f4;" horiz-adv-x="610" 
d="M547 304v-304h-73l-12 76q-17 -42 -62.5 -65t-99.5 -23q-116 0 -186 79t-70 225q0 145 75 227t200 82q166 0 221 -142l-86 -42q-18 52 -54.5 78.5t-85.5 26.5q-79 0 -126.5 -60.5t-47.5 -169.5q0 -104 43 -166t126 -62q63 0 105 30t42 86v44h-143v80h234zM275 653l63 123
h120l-101 -123h-82z" />
    <glyph glyph-name="uni01F5" unicode="&#x1f5;" horiz-adv-x="485" 
d="M229 473q84 0 134 -37q25 14 35 70l78 -27q-5 -32 -26.5 -54t-50.5 -29q21 -36 21 -87q0 -77 -54 -118.5t-136 -41.5q-39 0 -60 8q-31 -16 -31 -48q0 -38 49 -38h113q78 0 119.5 -33.5t41.5 -95.5q0 -57 -39 -93t-92 -48t-120 -12q-202 0 -202 121q0 45 31 73.5t88 32.5
q-31 4 -47.5 23.5t-16.5 48.5q0 63 68 81q-90 40 -90 140q0 77 51 120.5t136 43.5zM94 -80q0 -67 126 -67q155 0 155 76q0 61 -78 61h-100q-103 0 -103 -70zM132 310q0 -44 25.5 -70.5t71.5 -26.5q47 0 74 24.5t27 72.5t-27 73t-74 24q-46 0 -71.5 -25.5t-25.5 -71.5z
M195 529l74 146h121l-116 -146h-79z" />
    <glyph glyph-name="uni01F8" unicode="&#x1f8;" horiz-adv-x="650" 
d="M409 252q16 -23 32.5 -51t25.5 -45l9 -16h4q-5 63 -5 137v312h92v-589h-91l-235 336q-16 24 -33 52.5t-26 45.5l-9 16h-4q6 -63 6 -139v-311h-92v589h94zM288 653l-100 123h120l63 -123h-83z" />
    <glyph glyph-name="uni01F9" unicode="&#x1f9;" horiz-adv-x="509" 
d="M154 373q36 100 148 100q61 0 100.5 -35.5t39.5 -107.5v-330h-90v303q0 92 -81 92q-48 0 -78.5 -30.5t-30.5 -99.5v-265h-90v462h71zM230 529l-115 146h121l74 -146h-80z" />
    <glyph glyph-name="A_ring_acute" unicode="&#x1fa;" horiz-adv-x="569" 
d="M403 161h-241l-56 -161h-96l215 589h121l213 -589h-99zM188 237h188l-45 132q-15 41 -26.5 79.5t-15.5 57.5l-4 18h-4q-14 -62 -46 -154zM283 620q-48 0 -75.5 28.5t-27.5 71.5q0 40 29 68.5t74 28.5t74 -28.5t29 -68.5q0 -43 -27.5 -71.5t-75.5 -28.5zM283 775
q-25 0 -40 -16t-15 -41q0 -23 14.5 -38t40.5 -15t40.5 15t14.5 38q0 25 -15 41t-40 16zM239 848l63 123h120l-101 -123h-82z" />
    <glyph glyph-name="aringacute" unicode="&#x1fb;" horiz-adv-x="479" 
d="M305 206q-178 4 -178 -83q0 -30 19 -48.5t55 -18.5q40 0 72 22.5t32 60.5v67zM396 109q0 -43 34 -43q14 0 26 5v-70q-21 -8 -49 -8q-84 0 -95 74q-33 -79 -137 -79q-62 0 -100 33.5t-38 91.5q0 165 268 152v57q0 79 -83 79q-78 0 -84 -74l-86 13q5 68 55.5 100.5
t122.5 32.5q74 0 120 -33.5t46 -108.5v-222zM229 508q-48 0 -75.5 28.5t-27.5 71.5q0 40 29 68t74 28t74 -28t29 -68q0 -43 -27.5 -71.5t-75.5 -28.5zM229 662q-25 0 -40 -15.5t-15 -40.5q0 -24 14.5 -38.5t40.5 -14.5t40.5 14.5t14.5 38.5q0 25 -15 40.5t-40 15.5zM190 740
l63 123h120l-101 -123h-82z" />
    <glyph glyph-name="AEacute" unicode="&#x1fc;" horiz-adv-x="833" 
d="M420 0v161h-214l-98 -161h-100l361 589h414v-80h-271v-174h240v-80h-240v-175h271v-80h-363zM250 237h170v135q0 44 1.5 81.5t2.5 52.5l2 16h-4zM496 653l63 123h120l-101 -123h-82z" />
    <glyph glyph-name="aeacute" unicode="&#x1fd;" horiz-adv-x="725" 
d="M500 61q79 0 101 74l79 -22q-26 -125 -185 -125q-107 0 -162 79q-45 -79 -153 -79q-65 0 -104 33.5t-39 91.5q0 159 254 160q5 35 15 65q-8 63 -83 63q-79 0 -85 -74l-85 13q5 68 56 100.5t122 32.5q88 0 128 -52q55 52 141 52q87 0 134 -55t49 -145q0 -35 -6 -62h-298
q3 -68 34 -109t87 -41zM593 273q1 7 1 23q0 46 -26.5 76t-71.5 30q-49 0 -78.5 -34t-36.5 -95h212zM197 57q37 0 65 18.5t42 50.5q-13 36 -15 85q-87 -1 -123.5 -21t-36.5 -66q0 -30 18 -48.5t50 -18.5zM310 529l74 146h121l-116 -146h-79z" />
    <glyph glyph-name="Oslashacute" unicode="&#x1fe;" horiz-adv-x="619" 
d="M31 26l63 70q-50 76 -50 198q0 146 71.5 226.5t194.5 80.5q109 0 178 -64l54 60l46 -41l-61 -67q48 -77 48 -195q0 -145 -71 -225.5t-194 -80.5q-110 0 -178 63l-58 -65zM310 520q-82 0 -124.5 -59.5t-42.5 -166.5q0 -74 19 -122l265 296q-44 52 -117 52zM476 294
q0 69 -18 118l-265 -294q41 -50 117 -50q82 0 124 59t42 167zM265 653l63 123h120l-101 -123h-82z" />
    <glyph glyph-name="oslashacute" unicode="&#x1ff;" horiz-adv-x="505" 
d="M25 25l53 56q-36 63 -36 153q0 116 56.5 177.5t153.5 61.5q89 0 143 -51l47 50l45 -38l-55 -59q31 -57 31 -141q0 -117 -57 -181.5t-154 -64.5q-83 0 -136 47l-46 -49zM252 400q-121 0 -121 -167q0 -51 10 -84l199 214q-31 37 -88 37zM374 233q0 39 -8 71l-197 -212
q30 -33 83 -33q122 0 122 174zM213 529l74 146h121l-116 -146h-79z" />
    <glyph glyph-name="uni0200" unicode="&#x200;" horiz-adv-x="569" 
d="M403 161h-241l-56 -161h-96l215 589h121l213 -589h-99zM188 237h188l-45 132q-15 41 -26.5 79.5t-15.5 57.5l-4 18h-4q-14 -62 -46 -154zM333 653l-104 123h109l62 -123h-67zM182 653l-115 123h113l73 -123h-71z" />
    <glyph glyph-name="uni0201" unicode="&#x201;" horiz-adv-x="478" 
d="M253 59q79 0 101 75l79 -21q-26 -125 -185 -125q-94 0 -150 63t-56 176q0 115 57 180.5t154 65.5q87 0 135 -54t48 -143q0 -39 -9 -64h-298q3 -70 35 -111.5t89 -41.5zM347 277q1 7 1 19q0 45 -27.5 75.5t-72.5 30.5q-49 0 -79.5 -32.5t-37.5 -92.5h216zM300 529
l-104 146h109l62 -146h-67zM149 529l-115 146h113l73 -146h-71z" />
    <glyph glyph-name="uni0202" unicode="&#x202;" horiz-adv-x="569" 
d="M403 161h-241l-56 -161h-96l215 589h121l213 -589h-99zM188 237h188l-45 132q-15 41 -26.5 79.5t-15.5 57.5l-4 18h-4q-14 -62 -46 -154zM282 785q65 0 100.5 -35.5t35.5 -96.5h-71q-2 33 -17 49.5t-48 16.5t-47.5 -16.5t-16.5 -49.5h-71q0 61 35.5 96.5t99.5 35.5z" />
    <glyph glyph-name="uni0203" unicode="&#x203;" horiz-adv-x="479" 
d="M305 206q-178 4 -178 -83q0 -30 19 -48.5t55 -18.5q40 0 72 22.5t32 60.5v67zM396 109q0 -43 34 -43q14 0 26 5v-70q-21 -8 -49 -8q-84 0 -95 74q-33 -79 -137 -79q-62 0 -100 33.5t-38 91.5q0 165 268 152v57q0 79 -83 79q-78 0 -84 -74l-86 13q5 68 55.5 100.5
t122.5 32.5q74 0 120 -33.5t46 -108.5v-222zM230 672q65 0 100.5 -38.5t35.5 -102.5h-71q-3 37 -16.5 55.5t-48.5 18.5q-36 0 -49 -18.5t-16 -55.5h-71q0 64 35.5 102.5t100.5 38.5z" />
    <glyph glyph-name="uni0204" unicode="&#x204;" horiz-adv-x="496" 
d="M446 0h-363v589h363v-80h-271v-174h240v-80h-240v-175h271v-80zM313 653l-104 123h109l62 -123h-67zM162 653l-115 123h113l73 -123h-71z" />
    <glyph glyph-name="uni0206" unicode="&#x206;" horiz-adv-x="496" 
d="M446 0h-363v589h363v-80h-271v-174h240v-80h-240v-175h271v-80zM257 787q65 0 100.5 -35.5t35.5 -96.5h-71q-2 33 -17 49.5t-48 16.5t-47.5 -16.5t-16.5 -49.5h-71q0 61 35.5 96.5t99.5 35.5z" />
    <glyph glyph-name="uni0207" unicode="&#x207;" horiz-adv-x="478" 
d="M253 59q79 0 101 75l79 -21q-26 -125 -185 -125q-94 0 -150 63t-56 176q0 115 57 180.5t154 65.5q87 0 135 -54t48 -143q0 -39 -9 -64h-298q3 -70 35 -111.5t89 -41.5zM347 277q1 7 1 19q0 45 -27.5 75.5t-72.5 30.5q-49 0 -79.5 -32.5t-37.5 -92.5h216zM251 672
q65 0 100.5 -38.5t35.5 -102.5h-71q-3 37 -16.5 55.5t-48.5 18.5q-36 0 -49 -18.5t-16 -55.5h-71q0 64 35.5 102.5t100.5 38.5z" />
    <glyph glyph-name="uni0208" unicode="&#x208;" horiz-adv-x="258" 
d="M175 589v-589h-92v589h92zM178 653l-104 123h109l62 -123h-67zM27 653l-115 123h113l73 -123h-71z" />
    <glyph glyph-name="uni0209" unicode="&#x209;" horiz-adv-x="234" 
d="M162 462v-462h-90v462h90zM165 529l-104 146h109l62 -146h-67zM14 529l-115 146h113l73 -146h-71z" />
    <glyph glyph-name="uni020A" unicode="&#x20a;" horiz-adv-x="258" 
d="M175 589v-589h-92v589h92zM129 787q65 0 100.5 -35.5t35.5 -96.5h-71q-2 33 -17 49.5t-48 16.5t-47.5 -16.5t-16.5 -49.5h-71q0 61 35.5 96.5t99.5 35.5z" />
    <glyph glyph-name="uni020B" unicode="&#x20b;" horiz-adv-x="234" 
d="M162 462v-462h-90v462h90zM117 672q65 0 100.5 -38.5t35.5 -102.5h-71q-3 37 -16.5 55.5t-48.5 18.5q-36 0 -49 -18.5t-16 -55.5h-71q0 64 35.5 102.5t100.5 38.5z" />
    <glyph glyph-name="uni020C" unicode="&#x20c;" horiz-adv-x="619" 
d="M310 -12q-123 0 -194.5 80.5t-71.5 225.5q0 146 71.5 226.5t194.5 80.5t194 -80.5t71 -226.5q0 -145 -71 -225.5t-194 -80.5zM310 520q-82 0 -125.5 -59.5t-43.5 -166.5t43.5 -166.5t125.5 -59.5t125 59.5t43 166.5q0 106 -43.5 166t-124.5 60zM358 653l-104 123h109
l62 -123h-67zM207 653l-115 123h113l73 -123h-71z" />
    <glyph glyph-name="uni020D" unicode="&#x20d;" horiz-adv-x="505" 
d="M252 -12q-97 0 -153.5 64.5t-56.5 181.5q0 116 56.5 177.5t153.5 61.5q98 0 154.5 -61.5t56.5 -177.5q0 -117 -57 -181.5t-154 -64.5zM252 400q-121 0 -121 -167q0 -174 121 -174q122 0 122 174q0 167 -122 167zM300 529l-104 146h109l62 -146h-67zM149 529l-115 146h113
l73 -146h-71z" />
    <glyph glyph-name="uni020E" unicode="&#x20e;" horiz-adv-x="619" 
d="M310 -12q-123 0 -194.5 80.5t-71.5 225.5q0 146 71.5 226.5t194.5 80.5t194 -80.5t71 -226.5q0 -145 -71 -225.5t-194 -80.5zM310 520q-82 0 -125.5 -59.5t-43.5 -166.5t43.5 -166.5t125.5 -59.5t125 59.5t43 166.5q0 106 -43.5 166t-124.5 60zM310 787q65 0 100.5 -35.5
t35.5 -96.5h-71q-2 33 -17 49.5t-48 16.5t-47.5 -16.5t-16.5 -49.5h-71q0 61 35.5 96.5t99.5 35.5z" />
    <glyph glyph-name="uni020F" unicode="&#x20f;" horiz-adv-x="505" 
d="M252 -12q-97 0 -153.5 64.5t-56.5 181.5q0 116 56.5 177.5t153.5 61.5q98 0 154.5 -61.5t56.5 -177.5q0 -117 -57 -181.5t-154 -64.5zM252 400q-121 0 -121 -167q0 -174 121 -174q122 0 122 174q0 167 -122 167zM253 672q65 0 100.5 -38.5t35.5 -102.5h-71
q-3 37 -16.5 55.5t-48.5 18.5q-36 0 -49 -18.5t-16 -55.5h-71q0 64 35.5 102.5t100.5 38.5z" />
    <glyph glyph-name="uni0212" unicode="&#x212;" horiz-adv-x="550" 
d="M414 0q-19 21 -26 55l-24 102q-12 49 -37.5 65.5t-72.5 16.5h-79v-239h-92v589h204q201 0 201 -168q0 -67 -38.5 -105t-97.5 -41v-3q43 -5 66.5 -26.5t35.5 -67.5l30 -116q11 -38 31 -62h-101zM175 316h108q109 0 109 98q0 47 -27 72.5t-81 25.5h-109v-196zM261 787
q65 0 100.5 -35.5t35.5 -96.5h-71q-2 33 -17 49.5t-48 16.5t-47.5 -16.5t-16.5 -49.5h-71q0 61 35.5 96.5t99.5 35.5z" />
    <glyph glyph-name="uni0213" unicode="&#x213;" horiz-adv-x="356" 
d="M331 371q-22 4 -41 4q-52 0 -90 -38.5t-38 -102.5v-234h-90v462h76l11 -125q14 65 59.5 102t119.5 33zM205 672q65 0 100.5 -38.5t35.5 -102.5h-71q-3 37 -16.5 55.5t-48.5 18.5q-36 0 -49 -18.5t-16 -55.5h-71q0 64 35.5 102.5t100.5 38.5z" />
    <glyph glyph-name="uni0214" unicode="&#x214;" horiz-adv-x="582" 
d="M518 589v-396q0 -55 -19 -96t-52 -64t-72 -34t-84 -11q-62 0 -111 18.5t-82.5 66t-33.5 120.5v396h92v-372q0 -153 135 -153q134 0 134 151v374h93zM339 653l-104 123h109l62 -123h-67zM188 653l-115 123h113l73 -123h-71z" />
    <glyph glyph-name="uni0215" unicode="&#x215;" horiz-adv-x="508" 
d="M348 84q-31 -96 -142 -96q-140 0 -140 153v321h90v-307q0 -100 83 -100q41 0 74 36t33 98v273h90v-462h-77zM299 529l-104 146h109l62 -146h-67zM148 529l-115 146h113l73 -146h-71z" />
    <glyph glyph-name="uni0216" unicode="&#x216;" horiz-adv-x="582" 
d="M518 589v-396q0 -55 -19 -96t-52 -64t-72 -34t-84 -11q-62 0 -111 18.5t-82.5 66t-33.5 120.5v396h92v-372q0 -153 135 -153q134 0 134 151v374h93zM290 787q65 0 100.5 -35.5t35.5 -96.5h-71q-2 33 -17 49.5t-48 16.5t-47.5 -16.5t-16.5 -49.5h-71q0 61 35.5 96.5
t99.5 35.5z" />
    <glyph glyph-name="uni0217" unicode="&#x217;" horiz-adv-x="508" 
d="M348 84q-31 -96 -142 -96q-140 0 -140 153v321h90v-307q0 -100 83 -100q41 0 74 36t33 98v273h90v-462h-77zM251 672q65 0 100.5 -38.5t35.5 -102.5h-71q-3 37 -16.5 55.5t-48.5 18.5q-36 0 -49 -18.5t-16 -55.5h-71q0 64 35.5 102.5t100.5 38.5z" />
    <glyph glyph-name="Scommaaccent" unicode="&#x218;" horiz-adv-x="478" 
d="M114 164q18 -105 123 -105q48 0 77 22t29 62q0 39 -25 62.5t-97 50.5q-84 29 -128 67t-44 112q0 85 55 126t133 41q186 0 200 -155l-91 -18q-4 48 -33.5 73.5t-74.5 25.5q-42 0 -68.5 -22.5t-26.5 -62.5q0 -41 29 -62t100 -47q82 -30 123.5 -67t41.5 -112
q0 -83 -57.5 -125t-147.5 -42q-177 0 -204 153zM315 -142q0 -105 -121 -105v37q31 2 45.5 11t14.5 32q-27 -4 -44 9t-17 38t15.5 39t41.5 14q27 0 46 -20.5t19 -54.5z" />
    <glyph glyph-name="scommaaccent" unicode="&#x219;" horiz-adv-x="419" 
d="M107 128q10 -76 100 -76q42 0 67 16t25 46q0 29 -16 46t-56 27l-68 16q-62 15 -89 47t-27 84q0 72 50 105.5t124 33.5q153 0 166 -125l-88 -10q-4 67 -84 67q-38 0 -59.5 -16.5t-21.5 -45.5q0 -26 13.5 -41.5t49.5 -23.5l64 -15q64 -16 96 -48t32 -91q0 -70 -48.5 -103
t-130.5 -33q-81 0 -125 27.5t-54 88.5zM279 -142q0 -105 -121 -105v37q31 2 45.5 11t14.5 32q-27 -4 -44 9t-17 38t15.5 39t41.5 14q27 0 46 -20.5t19 -54.5z" />
    <glyph glyph-name="uni021E" unicode="&#x21e;" horiz-adv-x="631" 
d="M83 0v589h92v-250h281v250h92v-589h-92v259h-281v-259h-92zM287 649l-124 129h96l32 -33q8 -9 14 -17.5t7 -12.5l2 -4h3q4 14 23 34l31 33h97l-125 -129h-56z" />
    <glyph glyph-name="uni021F" unicode="&#x21f;" horiz-adv-x="509" 
d="M162 374q33 99 140 99q61 0 100.5 -35.5t39.5 -107.5v-330h-90v304q0 91 -81 91q-48 0 -78.5 -30t-30.5 -100v-265h-90v668h90v-294zM89 709l-124 129h96l32 -33q8 -9 14 -17.5t7 -12.5l2 -4h3q4 14 23 34l31 33h97l-125 -129h-56z" />
    <glyph glyph-name="uni0226" unicode="&#x226;" horiz-adv-x="569" 
d="M403 161h-241l-56 -161h-96l215 589h121l213 -589h-99zM188 237h188l-45 132q-15 41 -26.5 79.5t-15.5 57.5l-4 18h-4q-14 -62 -46 -154zM222 713q0 26 17.5 43t42.5 17q27 0 44.5 -16.5t17.5 -43.5q0 -25 -18 -42.5t-44 -17.5q-25 0 -42.5 17.5t-17.5 42.5z" />
    <glyph glyph-name="uni0227" unicode="&#x227;" horiz-adv-x="479" 
d="M305 206q-178 4 -178 -83q0 -30 19 -48.5t55 -18.5q40 0 72 22.5t32 60.5v67zM396 109q0 -43 34 -43q14 0 26 5v-70q-21 -8 -49 -8q-84 0 -95 74q-33 -79 -137 -79q-62 0 -100 33.5t-38 91.5q0 165 268 152v57q0 79 -83 79q-78 0 -84 -74l-86 13q5 68 55.5 100.5
t122.5 32.5q74 0 120 -33.5t46 -108.5v-222zM166 596q0 26 17.5 43t42.5 17q26 0 44 -17t18 -43q0 -25 -18 -42.5t-44 -17.5q-25 0 -42.5 17.5t-17.5 42.5z" />
    <glyph glyph-name="uni022C" unicode="&#x22c;" horiz-adv-x="619" 
d="M310 -12q-123 0 -194.5 80.5t-71.5 225.5q0 146 71.5 226.5t194.5 80.5t194 -80.5t71 -226.5q0 -145 -71 -225.5t-194 -80.5zM310 520q-82 0 -125.5 -59.5t-43.5 -166.5t43.5 -166.5t125.5 -59.5t125 59.5t43 166.5q0 106 -43.5 166t-124.5 60zM379 629q-26 0 -72 24
q-5 3 -14.5 8.5t-13 7t-10 4.5t-11.5 4t-11 1q-36 0 -30 -47h-55q-19 48 3.5 87t70.5 39q36 0 79 -26q38 -24 55 -24q33 0 29 49h57q18 -53 -3.5 -90t-73.5 -37zM178 801v71h264v-71h-264z" />
    <glyph glyph-name="uni022D" unicode="&#x22d;" horiz-adv-x="505" 
d="M252 -12q-97 0 -153.5 64.5t-56.5 181.5q0 116 56.5 177.5t153.5 61.5q98 0 154.5 -61.5t56.5 -177.5q0 -117 -57 -181.5t-154 -64.5zM252 400q-121 0 -121 -167q0 -174 121 -174q122 0 122 174q0 167 -122 167zM322 511q-28 0 -72 23q-42 25 -60 25q-36 0 -30 -47h-55
q-19 49 3 86.5t71 37.5q34 0 79 -27q39 -23 55 -23q33 0 29 49h57q18 -53 -3 -88.5t-74 -35.5zM122 682v73h262v-73h-262z" />
    <glyph glyph-name="uni022E" unicode="&#x22e;" horiz-adv-x="619" 
d="M310 -12q-123 0 -194.5 80.5t-71.5 225.5q0 146 71.5 226.5t194.5 80.5t194 -80.5t71 -226.5q0 -145 -71 -225.5t-194 -80.5zM310 520q-82 0 -125.5 -59.5t-43.5 -166.5t43.5 -166.5t125.5 -59.5t125 59.5t43 166.5q0 106 -43.5 166t-124.5 60zM249 713q0 26 17.5 43
t42.5 17q27 0 44.5 -16.5t17.5 -43.5q0 -25 -18 -42.5t-44 -17.5q-25 0 -42.5 17.5t-17.5 42.5z" />
    <glyph glyph-name="uni022F" unicode="&#x22f;" horiz-adv-x="505" 
d="M252 -12q-97 0 -153.5 64.5t-56.5 181.5q0 116 56.5 177.5t153.5 61.5q98 0 154.5 -61.5t56.5 -177.5q0 -117 -57 -181.5t-154 -64.5zM252 400q-121 0 -121 -167q0 -174 121 -174q122 0 122 174q0 167 -122 167zM191 595q0 26 17.5 43t42.5 17q26 0 44 -17t18 -43
q0 -25 -18 -42.5t-44 -17.5q-25 0 -42.5 17.5t-17.5 42.5z" />
    <glyph glyph-name="uni0231" unicode="&#x231;" horiz-adv-x="505" 
d="M252 -12q-97 0 -153.5 64.5t-56.5 181.5q0 116 56.5 177.5t153.5 61.5q98 0 154.5 -61.5t56.5 -177.5q0 -117 -57 -181.5t-154 -64.5zM252 400q-121 0 -121 -167q0 -174 121 -174q122 0 122 174q0 167 -122 167zM122 682v73h262v-73h-262zM191 580q0 26 17.5 43t42.5 17
q26 0 44 -17t18 -43q0 -25 -18 -42.5t-44 -17.5q-25 0 -42.5 17.5t-17.5 42.5z" />
    <glyph glyph-name="uni0232" unicode="&#x232;" horiz-adv-x="484" 
d="M207 402q15 -30 25.5 -55t13.5 -35l2 -10h4q6 33 38 100l87 187h97l-180 -366v-223h-92v223l-192 366h105zM111 674v71h264v-71h-264z" />
    <glyph glyph-name="uni0233" unicode="&#x233;" horiz-adv-x="440" 
d="M186 208q12 -40 21 -76.5t12 -53.5l3 -16h4q8 55 35 146l77 254h94l-170 -500q-33 -97 -77.5 -133.5t-110.5 -36.5q-36 0 -67 11l8 77q28 -14 60 -14q37 0 60.5 23.5t43.5 83.5l-171 489h99zM95 558v73h262v-73h-262z" />
    <glyph glyph-name="uni0237" unicode="&#x237;" horiz-adv-x="234" 
d="M162 462v-469q0 -109 -56 -154.5t-164 -41.5v76q68 -6 99 21.5t31 94.5v473h90z" />
    <glyph glyph-name="uni0259" unicode="&#x259;" horiz-adv-x="478" 
d="M226 400q-77 0 -102 -79l-79 21q14 66 64 98.5t121 32.5q94 0 150 -63t56 -176q0 -116 -55.5 -181t-152.5 -65q-88 0 -136 54.5t-50 146.5q0 30 6 57h298q-3 69 -34 111.5t-86 42.5zM133 184q-1 -8 -1 -20q0 -45 27.5 -75.5t72.5 -30.5q99 0 112 126h-211z" />
    <glyph glyph-name="uni0292" unicode="&#x292;" horiz-adv-x="395" 
d="M192 312q16 21 32 39t24 26l8 8v4q-33 -3 -93 -3h-132v76h330v-60l-166 -202v-3q77 -2 122.5 -51.5t45.5 -125.5q0 -82 -55.5 -128t-143.5 -46q-72 0 -118.5 38.5t-56.5 101.5l80 23q7 -45 35 -68.5t68 -23.5q45 0 75 27.5t30 71.5q0 120 -164 139v58z" />
    <glyph glyph-name="circumflex" unicode="&#x2c6;" horiz-adv-x="463" 
d="M258 675l125 -147h-92l-34 42q-8 10 -14 19.5t-7 14.5l-2 4h-5q-4 -15 -23 -38l-34 -42h-92l125 147h53z" />
    <glyph glyph-name="caron" unicode="&#x2c7;" horiz-adv-x="463" 
d="M205 528l-125 147h92l34 -43q8 -10 14 -19.5t8 -14.5l1 -4h5q4 15 23 38l34 43h92l-125 -147h-53z" />
    <glyph glyph-name="breve" unicode="&#x2d8;" horiz-adv-x="432" 
d="M216 526q-65 0 -100.5 38.5t-35.5 102.5h71q3 -37 16 -55.5t49 -18.5q35 0 48.5 18.5t16.5 55.5h71q0 -64 -35.5 -102.5t-100.5 -38.5z" />
    <glyph glyph-name="dotaccent" unicode="&#x2d9;" horiz-adv-x="282" 
d="M80 609q0 26 17.5 43t42.5 17q26 0 44 -17t18 -43q0 -25 -18 -42.5t-44 -17.5q-25 0 -42.5 17.5t-17.5 42.5z" />
    <glyph glyph-name="ring" unicode="&#x2da;" horiz-adv-x="366" 
d="M183 520q-48 0 -75.5 28.5t-27.5 71.5q0 40 29 68t74 28t74 -28t29 -68q0 -43 -27.5 -71.5t-75.5 -28.5zM183 674q-25 0 -40 -15.5t-15 -40.5q0 -24 14.5 -38.5t40.5 -14.5t40.5 14.5t14.5 38.5q0 25 -15 40.5t-40 15.5z" />
    <glyph glyph-name="ogonek" unicode="&#x2db;" horiz-adv-x="384" 
d="M62 -106q0 36 17 64.5t43.5 44.5t52.5 25t49 11l29 -39q-42 0 -76.5 -24.5t-34.5 -68.5q0 -57 52 -57q45 0 70 42l29 -44q-35 -59 -115 -59q-53 0 -84.5 27t-31.5 78z" />
    <glyph glyph-name="tilde" unicode="&#x2dc;" horiz-adv-x="472" 
d="M306 529q-28 0 -72 23q-42 25 -60 25q-36 0 -30 -47h-55q-19 49 3 86.5t71 37.5q34 0 79 -27q39 -23 55 -23q33 0 29 49h57q18 -53 -3 -88.5t-74 -35.5z" />
    <glyph glyph-name="hungarumlaut" unicode="&#x2dd;" horiz-adv-x="493" 
d="M80 529l62 146h109l-104 -146h-67zM226 529l74 146h113l-116 -146h-71z" />
    <glyph glyph-name="uni0312" unicode="&#x312;" horiz-adv-x="0" 
d="M-202 727q0 105 121 105v-37q-31 -2 -45.5 -11t-14.5 -32q27 4 44 -9t17 -38t-16 -39t-41 -14q-27 0 -46 20.5t-19 54.5z" />
    <glyph glyph-name="uni0320" unicode="&#x320;" horiz-adv-x="0" 
d="M-342 -182v72h262v-72h-262z" />
    <glyph glyph-name="uni0323" unicode="&#x323;" horiz-adv-x="0" 
d="M-202 -119q0 26 17.5 43t42.5 17q26 0 44 -17t18 -43q0 -25 -18 -42.5t-44 -17.5q-25 0 -42.5 17.5t-17.5 42.5z" />
    <glyph glyph-name="uni0329" unicode="&#x329;" horiz-adv-x="0" 
d="M-162 -53h82v-139l-82 -5v144z" />
    <glyph glyph-name="pi" unicode="&#x3c0;" horiz-adv-x="639" 
d="M579 481v-72h-107v-290q0 -58 38 -58q19 0 30 11t23 34l46 -46q-19 -38 -45.5 -55t-71.5 -17q-111 0 -111 119v302h-119l-44 -409h-91l49 409h-13q-77 0 -79 -91h-74q0 78 39.5 120.5t117.5 42.5h412z" />
    <glyph glyph-name="uni0E3F" unicode="&#xe3f;" horiz-adv-x="538" 
d="M245 0h-157v481h157v93h50v-93h10q76 0 120 -31.5t44 -91.5q0 -93 -90 -109v-4q50 -3 80.5 -34.5t30.5 -77.5q0 -133 -180 -133h-15v-106h-50v106zM295 209v-139h8q49 0 73 15.5t24 55.5q0 68 -90 68h-15zM381 344q0 34 -23.5 50.5t-62.5 17.5v-135h5q81 0 81 67zM179 70
h66v139h-66v-139zM245 277v135h-66v-135h66z" />
    <glyph glyph-name="uni1E0C" unicode="&#x1e0c;" horiz-adv-x="594" 
d="M254 77q92 0 145.5 53.5t53.5 166.5q0 215 -190 215h-88v-435h79zM83 0v589h183q131 0 207.5 -70t76.5 -218q0 -154 -79.5 -227.5t-207.5 -73.5h-180zM204 -139q0 26 17.5 43t42.5 17q26 0 44 -17t18 -43q0 -25 -18 -42.5t-44 -17.5q-25 0 -42.5 17.5t-17.5 42.5z" />
    <glyph glyph-name="uni1E0D" unicode="&#x1e0d;" 
d="M372 286q0 57 -35 87t-80 30q-56 0 -90 -42.5t-34 -134.5q0 -80 33 -123.5t90 -43.5q43 0 79.5 33.5t36.5 91.5v102zM371 668h91v-668h-80l-10 80q-34 -92 -147 -92q-77 0 -130 61.5t-53 173.5q0 118 54 184t153 66q43 0 77.5 -21t44.5 -52v268zM191 -139q0 26 17.5 43
t42.5 17q26 0 44 -17t18 -43q0 -25 -18 -42.5t-44 -17.5q-25 0 -42.5 17.5t-17.5 42.5z" />
    <glyph glyph-name="uni1E10" unicode="&#x1e10;" horiz-adv-x="594" 
d="M361 -124q0 -42 -29.5 -64.5t-75.5 -22.5q-62 0 -90 38l24 51q26 -36 63 -36q36 0 36 34q0 41 -66 42l6 82h-146v589h183q131 0 207.5 -70t76.5 -218q0 -150 -76 -224t-199 -77l-2 -41q88 -7 88 -83zM254 77q92 0 145.5 53.5t53.5 166.5q0 215 -190 215h-88v-435h79z" />
    <glyph glyph-name="uni1E11" unicode="&#x1e11;" 
d="M348 -124q0 -42 -29.5 -64.5t-75.5 -22.5q-61 0 -90 38l24 51q25 -36 63 -36q36 0 36 34q0 41 -66 42l5 70q-74 4 -123.5 65.5t-49.5 169.5q0 118 54 184t153 66q43 0 77.5 -21t44.5 -52v268h91v-668h-80l-10 80q-29 -77 -110 -89l-2 -32q88 -7 88 -83zM372 286
q0 57 -35 87t-80 30q-56 0 -90 -42.5t-34 -134.5q0 -80 33 -123.5t90 -43.5q43 0 79.5 33.5t36.5 91.5v102z" />
    <glyph glyph-name="uni1E24" unicode="&#x1e24;" horiz-adv-x="631" 
d="M83 0v589h92v-250h281v250h92v-589h-92v259h-281v-259h-92zM254 -139q0 26 17.5 43t42.5 17q26 0 44 -17t18 -43q0 -25 -18 -42.5t-44 -17.5q-25 0 -42.5 17.5t-17.5 42.5z" />
    <glyph glyph-name="uni1E25" unicode="&#x1e25;" horiz-adv-x="509" 
d="M162 374q33 99 140 99q61 0 100.5 -35.5t39.5 -107.5v-330h-90v304q0 91 -81 91q-48 0 -78.5 -30t-30.5 -100v-265h-90v668h90v-294zM196 -139q0 26 17.5 43t42.5 17q26 0 44 -17t18 -43q0 -25 -18 -42.5t-44 -17.5q-25 0 -42.5 17.5t-17.5 42.5z" />
    <glyph glyph-name="uni1E36" unicode="&#x1e36;" horiz-adv-x="461" 
d="M175 589v-509h264v-80h-356v589h92zM200 -139q0 26 17.5 43t42.5 17q26 0 44 -17t18 -43q0 -25 -18 -42.5t-44 -17.5q-25 0 -42.5 17.5t-17.5 42.5z" />
    <glyph glyph-name="uni1E37" unicode="&#x1e37;" horiz-adv-x="261" 
d="M228 0q-32 -8 -56 -8q-46 0 -76 25.5t-30 74.5v576h90v-557q0 -41 41 -41q15 0 32 5zM86 -139q0 26 17.5 43t42.5 17q26 0 44 -17t18 -43q0 -25 -18 -42.5t-44 -17.5q-25 0 -42.5 17.5t-17.5 42.5z" />
    <glyph glyph-name="L_dotbelowcomb_macron" unicode="&#x1e38;" horiz-adv-x="461" 
d="M175 589v-509h264v-80h-356v589h92zM200 -139q0 26 17.5 43t42.5 17q26 0 44 -17t18 -43q0 -25 -18 -42.5t-44 -17.5q-25 0 -42.5 17.5t-17.5 42.5zM15 674v71h264v-71h-264z" />
    <glyph glyph-name="uni1E39" unicode="&#x1e39;" horiz-adv-x="261" 
d="M228 0q-32 -8 -56 -8q-46 0 -76 25.5t-30 74.5v576h90v-557q0 -41 41 -41q15 0 32 5zM86 -139q0 26 17.5 43t42.5 17q26 0 44 -17t18 -43q0 -25 -18 -42.5t-44 -17.5q-25 0 -42.5 17.5t-17.5 42.5zM-17 741v71h264v-71h-264z" />
    <glyph glyph-name="uni1E42" unicode="&#x1e42;" horiz-adv-x="719" 
d="M329 144l-111 204q-15 28 -26 53.5t-14 36.5l-4 11h-4q5 -36 5 -106v-343h-92v589h107l140 -272q10 -20 17.5 -38t10.5 -26l2 -8h4q6 27 30 72l139 272h103v-589h-93v343q0 31 1.5 57.5t3.5 37.5l1 11h-4q-10 -37 -45 -101l-110 -204h-61zM298 -139q0 26 17.5 43t42.5 17
q26 0 44 -17t18 -43q0 -25 -18 -42.5t-44 -17.5q-25 0 -42.5 17.5t-17.5 42.5z" />
    <glyph glyph-name="uni1E43" unicode="&#x1e43;" horiz-adv-x="773" 
d="M424 371q16 52 55.5 77t89.5 25q62 0 99.5 -34.5t37.5 -104.5v-334h-90v304q0 91 -77 91q-44 0 -74.5 -32.5t-30.5 -97.5v-265h-90v304q0 91 -77 91q-43 0 -74 -33t-31 -97v-265h-90v462h71l11 -89q34 100 144 100q109 0 126 -102zM328 -139q0 26 17.5 43t42.5 17
q26 0 44 -17t18 -43q0 -25 -18 -42.5t-44 -17.5q-25 0 -42.5 17.5t-17.5 42.5z" />
    <glyph glyph-name="uni1E44" unicode="&#x1e44;" horiz-adv-x="650" 
d="M409 252q16 -23 32.5 -51t25.5 -45l9 -16h4q-5 63 -5 137v312h92v-589h-91l-235 336q-16 24 -33 52.5t-26 45.5l-9 16h-4q6 -63 6 -139v-311h-92v589h94zM264 712q0 26 17.5 43t42.5 17q27 0 44.5 -16.5t17.5 -43.5q0 -25 -18 -42.5t-44 -17.5q-25 0 -42.5 17.5
t-17.5 42.5z" />
    <glyph glyph-name="uni1E45" unicode="&#x1e45;" horiz-adv-x="509" 
d="M154 373q36 100 148 100q61 0 100.5 -35.5t39.5 -107.5v-330h-90v303q0 92 -81 92q-48 0 -78.5 -30.5t-30.5 -99.5v-265h-90v462h71zM201 596q0 26 17.5 43t42.5 17q26 0 44 -17t18 -43q0 -25 -18 -42.5t-44 -17.5q-25 0 -42.5 17.5t-17.5 42.5z" />
    <glyph glyph-name="uni1E46" unicode="&#x1e46;" horiz-adv-x="650" 
d="M409 252q16 -23 32.5 -51t25.5 -45l9 -16h4q-5 63 -5 137v312h92v-589h-91l-235 336q-16 24 -33 52.5t-26 45.5l-9 16h-4q6 -63 6 -139v-311h-92v589h94zM264 -139q0 26 17.5 43t42.5 17q26 0 44 -17t18 -43q0 -25 -18 -42.5t-44 -17.5q-25 0 -42.5 17.5t-17.5 42.5z" />
    <glyph glyph-name="uni1E47" unicode="&#x1e47;" horiz-adv-x="509" 
d="M154 373q36 100 148 100q61 0 100.5 -35.5t39.5 -107.5v-330h-90v303q0 92 -81 92q-48 0 -78.5 -30.5t-30.5 -99.5v-265h-90v462h71zM199 -139q0 26 17.5 43t42.5 17q26 0 44 -17t18 -43q0 -25 -18 -42.5t-44 -17.5q-25 0 -42.5 17.5t-17.5 42.5z" />
    <glyph glyph-name="uni1E5A" unicode="&#x1e5a;" horiz-adv-x="550" 
d="M414 0q-19 21 -26 55l-24 102q-12 49 -37.5 65.5t-72.5 16.5h-79v-239h-92v589h204q201 0 201 -168q0 -67 -38.5 -105t-97.5 -41v-3q43 -5 66.5 -26.5t35.5 -67.5l30 -116q11 -38 31 -62h-101zM175 316h108q109 0 109 98q0 47 -27 72.5t-81 25.5h-109v-196zM200 -139
q0 26 17.5 43t42.5 17q26 0 44 -17t18 -43q0 -25 -18 -42.5t-44 -17.5q-25 0 -42.5 17.5t-17.5 42.5z" />
    <glyph glyph-name="uni1E5B" unicode="&#x1e5b;" horiz-adv-x="356" 
d="M331 371q-22 4 -41 4q-52 0 -90 -38.5t-38 -102.5v-234h-90v462h76l11 -125q14 65 59.5 102t119.5 33zM55 -139q0 26 17.5 43t42.5 17q26 0 44 -17t18 -43q0 -25 -18 -42.5t-44 -17.5q-25 0 -42.5 17.5t-17.5 42.5z" />
    <glyph glyph-name="uni1E5C" unicode="&#x1e5c;" horiz-adv-x="550" 
d="M414 0q-19 21 -26 55l-24 102q-12 49 -37.5 65.5t-72.5 16.5h-79v-239h-92v589h204q201 0 201 -168q0 -67 -38.5 -105t-97.5 -41v-3q43 -5 66.5 -26.5t35.5 -67.5l30 -116q11 -38 31 -62h-101zM175 316h108q109 0 109 98q0 47 -27 72.5t-81 25.5h-109v-196zM200 -139
q0 26 17.5 43t42.5 17q26 0 44 -17t18 -43q0 -25 -18 -42.5t-44 -17.5q-25 0 -42.5 17.5t-17.5 42.5zM130 674v71h264v-71h-264z" />
    <glyph glyph-name="uni1E5D" unicode="&#x1e5d;" horiz-adv-x="356" 
d="M331 371q-22 4 -41 4q-52 0 -90 -38.5t-38 -102.5v-234h-90v462h76l11 -125q14 65 59.5 102t119.5 33zM74 558v73h262v-73h-262zM55 -139q0 26 17.5 43t42.5 17q26 0 44 -17t18 -43q0 -25 -18 -42.5t-44 -17.5q-25 0 -42.5 17.5t-17.5 42.5z" />
    <glyph glyph-name="uni1E62" unicode="&#x1e62;" horiz-adv-x="478" 
d="M114 164q18 -105 123 -105q48 0 77 22t29 62q0 39 -25 62.5t-97 50.5q-84 29 -128 67t-44 112q0 85 55 126t133 41q186 0 200 -155l-91 -18q-4 48 -33.5 73.5t-74.5 25.5q-42 0 -68.5 -22.5t-26.5 -62.5q0 -41 29 -62t100 -47q82 -30 123.5 -67t41.5 -112
q0 -83 -57.5 -125t-147.5 -42q-177 0 -204 153zM183 -139q0 26 17.5 43t42.5 17q26 0 44 -17t18 -43q0 -25 -18 -42.5t-44 -17.5q-25 0 -42.5 17.5t-17.5 42.5z" />
    <glyph glyph-name="uni1E63" unicode="&#x1e63;" horiz-adv-x="419" 
d="M107 128q10 -76 100 -76q42 0 67 16t25 46q0 29 -16 46t-56 27l-68 16q-62 15 -89 47t-27 84q0 72 50 105.5t124 33.5q153 0 166 -125l-88 -10q-4 67 -84 67q-38 0 -59.5 -16.5t-21.5 -45.5q0 -26 13.5 -41.5t49.5 -23.5l64 -15q64 -16 96 -48t32 -91q0 -70 -48.5 -103
t-130.5 -33q-81 0 -125 27.5t-54 88.5zM157 -139q0 26 17.5 43t42.5 17q26 0 44 -17t18 -43q0 -25 -18 -42.5t-44 -17.5q-25 0 -42.5 17.5t-17.5 42.5z" />
    <glyph glyph-name="uni1E6C" unicode="&#x1e6c;" horiz-adv-x="456" 
d="M181 0v509h-171v80h436v-80h-172v-509h-93zM167 -139q0 26 17.5 43t42.5 17q26 0 44 -17t18 -43q0 -25 -18 -42.5t-44 -17.5q-25 0 -42.5 17.5t-17.5 42.5z" />
    <glyph glyph-name="uni1E6D" unicode="&#x1e6d;" horiz-adv-x="337" 
d="M322 15q-45 -27 -112 -27q-63 0 -98 33t-35 97v272h-67v72h67v98l91 11v-109h137v-72h-138v-254q0 -71 61 -71q39 0 77 25zM124 -139q0 26 17.5 43t42.5 17q26 0 44 -17t18 -43q0 -25 -18 -42.5t-44 -17.5q-25 0 -42.5 17.5t-17.5 42.5z" />
    <glyph glyph-name="Wgrave" unicode="&#x1e80;" horiz-adv-x="826" 
d="M562 220q10 -41 18 -80.5t11 -59.5l3 -19h4q8 68 30 158l93 370h93l-153 -589h-131l-90 347q-11 40 -17 79.5t-7 59.5l-1 19h-4q-4 -66 -27 -158l-89 -347h-131l-152 589h98l92 -367q10 -40 17.5 -80.5t10.5 -60.5l3 -20h4q7 69 31 160l95 368h107zM376 653l-100 123h120
l63 -123h-83z" />
    <glyph glyph-name="wgrave" unicode="&#x1e81;" horiz-adv-x="672" 
d="M448 222q12 -41 19.5 -80.5t9.5 -57.5l2 -19h4q3 63 26 157l62 240h91l-126 -462h-108l-61 219q-11 39 -18.5 75.5t-9.5 53.5l-2 17h-4q-5 -57 -28 -146l-58 -219h-108l-129 462h93l63 -240q11 -41 19 -80.5t10 -57.5l2 -19h4q3 66 28 158l64 239h90zM303 529l-115 146
h121l74 -146h-80z" />
    <glyph glyph-name="Wacute" unicode="&#x1e82;" horiz-adv-x="826" 
d="M562 220q10 -41 18 -80.5t11 -59.5l3 -19h4q8 68 30 158l93 370h93l-153 -589h-131l-90 347q-11 40 -17 79.5t-7 59.5l-1 19h-4q-4 -66 -27 -158l-89 -347h-131l-152 589h98l92 -367q10 -40 17.5 -80.5t10.5 -60.5l3 -20h4q7 69 31 160l95 368h107zM368 653l63 123h120
l-101 -123h-82z" />
    <glyph glyph-name="wacute" unicode="&#x1e83;" horiz-adv-x="672" 
d="M448 222q12 -41 19.5 -80.5t9.5 -57.5l2 -19h4q3 63 26 157l62 240h91l-126 -462h-108l-61 219q-11 39 -18.5 75.5t-9.5 53.5l-2 17h-4q-5 -57 -28 -146l-58 -219h-108l-129 462h93l63 -240q11 -41 19 -80.5t10 -57.5l2 -19h4q3 66 28 158l64 239h90zM288 529l74 146h121
l-116 -146h-79z" />
    <glyph glyph-name="Wdieresis" unicode="&#x1e84;" horiz-adv-x="826" 
d="M562 220q10 -41 18 -80.5t11 -59.5l3 -19h4q8 68 30 158l93 370h93l-153 -589h-131l-90 347q-11 40 -17 79.5t-7 59.5l-1 19h-4q-4 -66 -27 -158l-89 -347h-131l-152 589h98l92 -367q10 -40 17.5 -80.5t10.5 -60.5l3 -20h4q7 69 31 160l95 368h107zM254 713q0 26 17.5 43
t41.5 17q25 0 42.5 -17t17.5 -43q0 -25 -17.5 -42t-42.5 -17q-24 0 -41.5 17t-17.5 42zM450 712q0 26 17.5 43t41.5 17q26 0 43 -17t17 -43q0 -25 -17.5 -42t-42.5 -17q-24 0 -41.5 17t-17.5 42z" />
    <glyph glyph-name="wdieresis" unicode="&#x1e85;" horiz-adv-x="672" 
d="M448 222q12 -41 19.5 -80.5t9.5 -57.5l2 -19h4q3 63 26 157l62 240h91l-126 -462h-108l-61 219q-11 39 -18.5 75.5t-9.5 53.5l-2 17h-4q-5 -57 -28 -146l-58 -219h-108l-129 462h93l63 -240q11 -41 19 -80.5t10 -57.5l2 -19h4q3 66 28 158l64 239h90zM177 595
q0 26 17.5 43t41.5 17q25 0 42.5 -17t17.5 -43q0 -25 -17.5 -42t-42.5 -17q-24 0 -41.5 17t-17.5 42zM373 594q0 26 17.5 43t41.5 17q26 0 43 -17t17 -43q0 -25 -17.5 -42t-42.5 -17q-24 0 -41.5 17t-17.5 42z" />
    <glyph glyph-name="uni1ECA" unicode="&#x1eca;" horiz-adv-x="258" 
d="M175 589v-589h-92v589h92zM68 -139q0 26 17.5 43t42.5 17q26 0 44 -17t18 -43q0 -25 -18 -42.5t-44 -17.5q-25 0 -42.5 17.5t-17.5 42.5z" />
    <glyph glyph-name="uni1ECB" unicode="&#x1ecb;" horiz-adv-x="234" 
d="M56 610q0 26 17.5 43t42.5 17q27 0 45 -16.5t18 -43.5q0 -25 -18.5 -42.5t-44.5 -17.5q-24 0 -42 17.5t-18 42.5zM162 462v-462h-90v462h90zM56 -139q0 26 17.5 43t42.5 17q26 0 44 -17t18 -43q0 -25 -18 -42.5t-44 -17.5q-25 0 -42.5 17.5t-17.5 42.5z" />
    <glyph glyph-name="uni1ECC" unicode="&#x1ecc;" horiz-adv-x="619" 
d="M310 -12q-123 0 -194.5 80.5t-71.5 225.5q0 146 71.5 226.5t194.5 80.5t194 -80.5t71 -226.5q0 -145 -71 -225.5t-194 -80.5zM310 520q-82 0 -125.5 -59.5t-43.5 -166.5t43.5 -166.5t125.5 -59.5t125 59.5t43 166.5q0 106 -43.5 166t-124.5 60zM249 -139q0 26 17.5 43
t42.5 17q26 0 44 -17t18 -43q0 -25 -18 -42.5t-44 -17.5q-25 0 -42.5 17.5t-17.5 42.5z" />
    <glyph glyph-name="uni1ECD" unicode="&#x1ecd;" horiz-adv-x="505" 
d="M252 -12q-97 0 -153.5 64.5t-56.5 181.5q0 116 56.5 177.5t153.5 61.5q98 0 154.5 -61.5t56.5 -177.5q0 -117 -57 -181.5t-154 -64.5zM252 400q-121 0 -121 -167q0 -174 121 -174q122 0 122 174q0 167 -122 167zM191 -139q0 26 17.5 43t42.5 17q26 0 44 -17t18 -43
q0 -25 -18 -42.5t-44 -17.5q-25 0 -42.5 17.5t-17.5 42.5z" />
    <glyph glyph-name="uni1EE4" unicode="&#x1ee4;" horiz-adv-x="582" 
d="M518 589v-396q0 -55 -19 -96t-52 -64t-72 -34t-84 -11q-62 0 -111 18.5t-82.5 66t-33.5 120.5v396h92v-372q0 -153 135 -153q134 0 134 151v374h93zM229 -139q0 26 17.5 43t42.5 17q26 0 44 -17t18 -43q0 -25 -18 -42.5t-44 -17.5q-25 0 -42.5 17.5t-17.5 42.5z" />
    <glyph glyph-name="uni1EE5" unicode="&#x1ee5;" horiz-adv-x="508" 
d="M348 84q-31 -96 -142 -96q-140 0 -140 153v321h90v-307q0 -100 83 -100q41 0 74 36t33 98v273h90v-462h-77zM190 -139q0 26 17.5 43t42.5 17q26 0 44 -17t18 -43q0 -25 -18 -42.5t-44 -17.5q-25 0 -42.5 17.5t-17.5 42.5z" />
    <glyph glyph-name="Ygrave" unicode="&#x1ef2;" horiz-adv-x="484" 
d="M207 402q15 -30 25.5 -55t13.5 -35l2 -10h4q6 33 38 100l87 187h97l-180 -366v-223h-92v223l-192 366h105zM205 653l-100 123h120l63 -123h-83z" />
    <glyph glyph-name="ygrave" unicode="&#x1ef3;" horiz-adv-x="440" 
d="M186 208q12 -40 21 -76.5t12 -53.5l3 -16h4q8 55 35 146l77 254h94l-170 -500q-33 -97 -77.5 -133.5t-110.5 -36.5q-36 0 -67 11l8 77q28 -14 60 -14q37 0 60.5 23.5t43.5 83.5l-171 489h99zM194 529l-115 146h121l74 -146h-80z" />
    <glyph glyph-name="uni1EF8" unicode="&#x1ef8;" horiz-adv-x="484" 
d="M207 402q15 -30 25.5 -55t13.5 -35l2 -10h4q6 33 38 100l87 187h97l-180 -366v-223h-92v223l-192 366h105zM312 653q-26 0 -72 24q-5 3 -14.5 8.5t-13 7t-10 4.5t-11.5 4t-11 1q-36 0 -30 -47h-55q-19 48 3.5 87t70.5 39q36 0 79 -26q38 -24 55 -24q33 0 29 49h57
q18 -53 -3.5 -90t-73.5 -37z" />
    <glyph glyph-name="uni1EF9" unicode="&#x1ef9;" horiz-adv-x="440" 
d="M186 208q12 -40 21 -76.5t12 -53.5l3 -16h4q8 55 35 146l77 254h94l-170 -500q-33 -97 -77.5 -133.5t-110.5 -36.5q-36 0 -67 11l8 77q28 -14 60 -14q37 0 60.5 23.5t43.5 83.5l-171 489h99zM297 529q-28 0 -72 23q-42 25 -60 25q-36 0 -30 -47h-55q-19 49 3 86.5
t71 37.5q34 0 79 -27q39 -23 55 -23q33 0 29 49h57q18 -53 -3 -88.5t-74 -35.5z" />
    <glyph glyph-name="uni2002" unicode="&#x2002;" horiz-adv-x="450" 
 />
    <glyph glyph-name="uni2003" unicode="&#x2003;" horiz-adv-x="900" 
 />
    <glyph glyph-name="uni2004" unicode="&#x2004;" horiz-adv-x="300" 
 />
    <glyph glyph-name="uni2005" unicode="&#x2005;" horiz-adv-x="225" 
 />
    <glyph glyph-name="uni2006" unicode="&#x2006;" horiz-adv-x="150" 
 />
    <glyph glyph-name="uni2007" unicode="&#x2007;" horiz-adv-x="513" 
 />
    <glyph glyph-name="uni2008" unicode="&#x2008;" horiz-adv-x="171" 
 />
    <glyph glyph-name="uni2009" unicode="&#x2009;" horiz-adv-x="90" 
 />
    <glyph glyph-name="uni200A" unicode="&#x200a;" horiz-adv-x="45" 
 />
    <glyph glyph-name="uni200B" unicode="&#x200b;" horiz-adv-x="0" 
 />
    <glyph glyph-name="figuredash" unicode="&#x2012;" horiz-adv-x="595" 
d="M68 284h459v-64h-459v64z" />
    <glyph glyph-name="endash" unicode="&#x2013;" horiz-adv-x="500" 
d="M68 284h364v-64h-364v64z" />
    <glyph glyph-name="emdash" unicode="&#x2014;" horiz-adv-x="1000" 
d="M68 284h864v-64h-864v64z" />
    <glyph glyph-name="uni2015" unicode="&#x2015;" horiz-adv-x="1250" 
d="M68 284h1114v-64h-1114v64z" />
    <glyph glyph-name="uni2016" unicode="&#x2016;" horiz-adv-x="438" 
d="M100 -203v872h77v-872h-77zM261 -203v872h77v-872h-77z" />
    <glyph glyph-name="quoteleft" unicode="&#x2018;" horiz-adv-x="228" 
d="M38 531q0 139 152 147v-43q-81 -12 -81 -74q31 6 51.5 -10t20.5 -46q0 -29 -18.5 -45.5t-48.5 -16.5q-32 0 -54 24.5t-22 63.5z" />
    <glyph glyph-name="quoteright" unicode="&#x2019;" horiz-adv-x="228" 
d="M190 590q0 -139 -152 -147v43q81 12 81 74q-31 -6 -51.5 10.5t-20.5 45.5t18.5 45.5t48.5 16.5q32 0 54 -24t22 -64z" />
    <glyph glyph-name="quotesinglbase" unicode="&#x201a;" horiz-adv-x="228" 
d="M190 31q0 -139 -152 -147v43q81 12 81 74q-31 -6 -51.5 10.5t-20.5 45.5t18.5 45.5t48.5 16.5q32 0 54 -24t22 -64z" />
    <glyph glyph-name="reversequoteleft" unicode="&#x201b;" horiz-adv-x="228" 
d="M38 590q0 40 22 64t54 24q30 0 48.5 -16.5t18.5 -45.5t-20.5 -45.5t-51.5 -10.5q0 -62 81 -74v-43q-152 8 -152 147z" />
    <glyph glyph-name="quotedblleft" unicode="&#x201c;" horiz-adv-x="421" 
d="M38 531q0 139 152 147v-43q-81 -12 -81 -74q31 6 51.5 -10t20.5 -46q0 -29 -18.5 -45.5t-48.5 -16.5q-32 0 -54 24.5t-22 63.5zM231 531q0 139 152 147v-43q-81 -12 -81 -74q31 6 51.5 -10t20.5 -46q0 -29 -18.5 -45.5t-48.5 -16.5q-32 0 -54 24.5t-22 63.5z" />
    <glyph glyph-name="quotedblright" unicode="&#x201d;" horiz-adv-x="421" 
d="M190 590q0 -139 -152 -147v43q81 12 81 74q-31 -6 -51.5 10t-20.5 46q0 29 18.5 45.5t48.5 16.5q32 0 54 -24.5t22 -63.5zM383 590q0 -139 -152 -147v43q81 12 81 74q-31 -6 -51.5 10t-20.5 46q0 29 18.5 45.5t48.5 16.5q32 0 54 -24.5t22 -63.5z" />
    <glyph glyph-name="quotedblbase" unicode="&#x201e;" horiz-adv-x="421" 
d="M190 31q0 -139 -152 -147v43q81 12 81 74q-31 -6 -51.5 10t-20.5 46q0 29 18.5 45.5t48.5 16.5q32 0 54 -24.5t22 -63.5zM383 31q0 -139 -152 -147v43q81 12 81 74q-31 -6 -51.5 10t-20.5 46q0 29 18.5 45.5t48.5 16.5q32 0 54 -24.5t22 -63.5z" />
    <glyph glyph-name="uni201F" unicode="&#x201f;" horiz-adv-x="421" 
d="M38 590q0 39 22 63.5t54 24.5q30 0 48.5 -16.5t18.5 -45.5q0 -30 -20.5 -46t-51.5 -10q0 -62 81 -74v-43q-152 8 -152 147zM231 590q0 39 22 63.5t54 24.5q30 0 48.5 -16.5t18.5 -45.5q0 -30 -20.5 -46t-51.5 -10q0 -62 81 -74v-43q-152 8 -152 147z" />
    <glyph glyph-name="dagger" unicode="&#x2020;" horiz-adv-x="546" 
d="M48 277v89l188 -10l-10 233h95l-10 -233l187 10v-89l-187 11l10 -437h-95l10 437z" />
    <glyph glyph-name="daggerdbl" unicode="&#x2021;" horiz-adv-x="546" 
d="M310 137l188 11v-88l-187 11l10 -221h-95l10 221l-188 -11v88l188 -11v169l-188 -11v87l188 -11l-10 218h95l-11 -218l188 11v-87l-187 11z" />
    <glyph glyph-name="bullet" unicode="&#x2022;" horiz-adv-x="330" 
d="M79 243q0 35 25 60.5t60 25.5q36 0 61.5 -25.5t25.5 -60.5t-25.5 -60t-61.5 -25q-34 0 -59.5 25t-25.5 60z" />
    <glyph glyph-name="ellipsis" unicode="&#x2026;" horiz-adv-x="858" 
d="M75 62q0 29 19.5 48.5t48.5 19.5t48.5 -19.5t19.5 -48.5q0 -28 -19.5 -48t-48.5 -20t-48.5 20t-19.5 48zM361 62q0 29 19.5 48.5t48.5 19.5t48.5 -19.5t19.5 -48.5q0 -28 -19.5 -48t-48.5 -20t-48.5 20t-19.5 48zM647 62q0 29 19.5 48.5t48.5 19.5t48.5 -19.5t19.5 -48.5
q0 -28 -19.5 -48t-48.5 -20t-48.5 20t-19.5 48z" />
    <glyph glyph-name="perthousand" unicode="&#x2030;" horiz-adv-x="1213" 
d="M175 229q-69 0 -105.5 50t-36.5 134q0 82 38.5 133t103.5 51t103 -51t38 -133q0 -84 -36.5 -134t-104.5 -50zM175 534q-34 0 -52 -33t-18 -89q0 -55 18.5 -89.5t51.5 -34.5t51.5 35t18.5 89q0 56 -18 89t-52 33zM554 590h62l-306 -590h-62zM689 -7q-69 0 -105.5 50
t-36.5 134q0 82 38.5 133t103.5 51t103 -51t38 -133q0 -84 -36.5 -134t-104.5 -50zM689 298q-34 0 -52 -33t-18 -89q0 -55 18.5 -89.5t51.5 -34.5t51.5 35t18.5 89q0 56 -18 89t-52 33zM1039 -7q-69 0 -105.5 50t-36.5 134q0 82 38.5 133t103.5 51t103 -51t38 -133
q0 -84 -36.5 -134t-104.5 -50zM1039 298q-34 0 -52 -33t-18 -89q0 -55 18.5 -89.5t51.5 -34.5t51.5 35t18.5 89q0 56 -18 89t-52 33z" />
    <glyph glyph-name="uni2034" unicode="&#x2034;" horiz-adv-x="496" 
d="M61 668h98l-42 -256h-56v256zM209 668h98l-42 -256h-56v256zM357 668h98l-42 -256h-56v256z" />
    <glyph glyph-name="guilsinglleft" unicode="&#x2039;" horiz-adv-x="294" 
d="M110 231q18 -6 55 -51l99 -116l-49 -43l-185 213l185 213l49 -49l-99 -114q-17 -20 -30.5 -32t-18.5 -14l-6 -3v-4z" />
    <glyph glyph-name="guilsinglright" unicode="&#x203a;" horiz-adv-x="294" 
d="M184 235q-16 5 -55 49l-99 114l49 49l185 -213l-185 -213l-48 43l98 116q17 20 30.5 32.5t18.5 15.5l6 3v4z" />
    <glyph glyph-name="fraction" unicode="&#x2044;" horiz-adv-x="164" 
d="M204 590h62l-306 -590h-62z" />
    <glyph glyph-name="uni2070" unicode="&#x2070;" horiz-adv-x="349" 
d="M175 229q-69 0 -105.5 50t-36.5 134q0 82 38.5 133t103.5 51t103 -51t38 -133q0 -84 -36.5 -134t-104.5 -50zM175 534q-34 0 -52 -33t-18 -89q0 -55 18.5 -89.5t51.5 -34.5t51.5 35t18.5 89q0 56 -18 89t-52 33z" />
    <glyph glyph-name="uni2074" unicode="&#x2074;" horiz-adv-x="342" 
d="M193 322h-179v54l176 213h75v-213h57v-54h-57v-86h-72v86zM195 459l4 71h-4q-10 -26 -35 -59l-42 -50q-11 -13 -23 -24.5t-19 -16.5l-6 -5v-4q15 4 56 4h69v84z" />
    <glyph glyph-name="uni2075" unicode="&#x2075;" horiz-adv-x="315" 
d="M59 589h210v-59h-154l-5 -93q22 28 71 28q47 0 76 -28.5t29 -81.5q0 -61 -38 -93.5t-104 -32.5q-53 0 -87 23t-39 61l62 27q10 -57 69 -57q67 0 67 67q0 31 -15 47.5t-41 16.5q-33 0 -52 -23h-58z" />
    <glyph glyph-name="uni2076" unicode="&#x2076;" horiz-adv-x="332" 
d="M246 499q-16 40 -62 40q-41 0 -64 -38.5t-23 -111.5h4q6 33 31 53t64 20q49 0 80 -32t31 -81q0 -51 -35.5 -85.5t-98.5 -34.5q-65 0 -102.5 44t-37.5 129q0 95 44 145t111 50q82 0 111 -68zM114 345q0 -29 18 -46.5t46 -17.5t46 17.5t18 46.5t-18 46.5t-45 17.5
q-28 0 -46.5 -17.5t-18.5 -46.5z" />
    <glyph glyph-name="uni2077" unicode="&#x2077;" horiz-adv-x="298" 
d="M81 528v-53h-62v114h268v-40l-141 -313h-73l135 292h-127z" />
    <glyph glyph-name="uni2078" unicode="&#x2078;" horiz-adv-x="348" 
d="M174 389q-27 0 -46 -14t-19 -40t17.5 -40.5t47.5 -14.5t47.5 14.5t17.5 40.5t-18.5 40t-46.5 14zM174 229q-62 0 -99.5 25.5t-37.5 72.5q0 34 21 56.5t56 28.5v4q-33 5 -51 27t-18 53q0 47 35.5 74t93.5 27t93.5 -27t35.5 -74q0 -31 -18 -53t-51 -27v-4q35 -6 56 -28.5
t21 -56.5q0 -47 -37.5 -72.5t-99.5 -25.5zM174 545q-28 0 -46 -14t-18 -37t19 -36.5t45 -13.5t45 13.5t19 36.5t-18 37t-46 14z" />
    <glyph glyph-name="uni2079" unicode="&#x2079;" horiz-adv-x="332" 
d="M82 327q16 -40 62 -40q43 0 67 38.5t24 111.5h-4q-6 -33 -31 -53t-64 -20q-50 0 -80.5 32t-30.5 81q0 51 35.5 85.5t98.5 34.5q65 0 102.5 -44t37.5 -129q0 -95 -44.5 -145t-111.5 -50q-85 0 -114 68zM218 479q0 29 -18.5 46.5t-45.5 17.5q-28 0 -46.5 -17.5t-18.5 -46.5
q0 -28 18.5 -46t44.5 -18q28 0 47 17.5t19 46.5z" />
    <glyph glyph-name="uni207A" unicode="&#x207a;" horiz-adv-x="445" 
d="M198 442v148h45v-148h157v-46h-157v-160h-45v160h-153v46h153z" />
    <glyph glyph-name="uni207B" unicode="&#x207b;" horiz-adv-x="445" 
d="M45 396v46h355v-46h-355z" />
    <glyph glyph-name="uni207C" unicode="&#x207c;" horiz-adv-x="445" 
d="M45 340v46h355v-46h-355zM45 461v46h355v-46h-355z" />
    <glyph glyph-name="uni207D" unicode="&#x207d;" horiz-adv-x="230" 
d="M97 409q0 -68 22 -118.5t69 -108.5h-58q-85 103 -85 227t85 227h58q-46 -56 -68.5 -107.5t-22.5 -119.5z" />
    <glyph glyph-name="uni207E" unicode="&#x207e;" horiz-adv-x="230" 
d="M136 409q0 68 -22.5 119.5t-68.5 107.5h57q86 -102 86 -227t-86 -227h-57q47 58 69 108.5t22 118.5z" />
    <glyph glyph-name="n.superior" unicode="&#x207f;" horiz-adv-x="392" 
d="M128 534q23 67 103 67q45 0 76 -26.5t31 -82.5v-205h-76v190q0 65 -55 65q-72 0 -72 -93v-162h-76v306h60z" />
    <glyph glyph-name="uni2080" unicode="&#x2080;" horiz-adv-x="349" 
d="M175 -7q-69 0 -105.5 50t-36.5 134q0 82 38.5 133t103.5 51t103 -51t38 -133q0 -84 -36.5 -134t-104.5 -50zM175 298q-34 0 -52 -33t-18 -89q0 -55 18.5 -89.5t51.5 -34.5t51.5 35t18.5 89q0 56 -18 89t-52 33z" />
    <glyph glyph-name="uni2081" unicode="&#x2081;" horiz-adv-x="298" 
d="M32 0v56h96v228l-106 -11v58l178 23v-298h86v-56h-254z" />
    <glyph glyph-name="uni2082" unicode="&#x2082;" horiz-adv-x="309" 
d="M288 0h-266v52q97 68 136 107.5t39 85.5q0 53 -54 53q-29 0 -44 -19t-16 -49l-60 27q1 41 36 72.5t95 31.5q51 0 84.5 -28t33.5 -81q0 -35 -15.5 -66.5t-43.5 -55.5t-49.5 -38.5t-51.5 -30.5v-4h176v-57z" />
    <glyph glyph-name="uni2083" unicode="&#x2083;" horiz-adv-x="317" 
d="M182 181q98 -9 98 -91q0 -46 -37 -71.5t-98 -25.5q-57 0 -92 22t-43 59l62 25q6 -23 26.5 -37.5t47.5 -14.5q60 0 60 48q0 29 -23.5 44t-81.5 16v48q96 3 96 55q0 21 -14 33.5t-38 12.5q-49 0 -59 -46l-61 23q9 37 42 58.5t84 21.5q50 0 83.5 -23t33.5 -69q0 -74 -86 -85
v-3z" />
    <glyph glyph-name="uni2084" unicode="&#x2084;" horiz-adv-x="342" 
d="M193 86h-179v54l176 213h75v-213h57v-54h-57v-86h-72v86zM195 223l4 71h-4q-10 -26 -35 -59l-42 -50q-11 -13 -23 -24.5t-19 -16.5l-6 -5v-4q15 4 56 4h69v84z" />
    <glyph glyph-name="uni2085" unicode="&#x2085;" horiz-adv-x="315" 
d="M59 353h210v-59h-154l-5 -93q22 28 71 28q47 0 76 -28.5t29 -81.5q0 -61 -38 -93.5t-104 -32.5q-53 0 -87 23t-39 61l62 27q10 -57 69 -57q67 0 67 67q0 31 -15 47.5t-41 16.5q-33 0 -52 -23h-58z" />
    <glyph glyph-name="uni2086" unicode="&#x2086;" horiz-adv-x="332" 
d="M246 263q-16 40 -62 40q-41 0 -64 -38.5t-23 -111.5h4q6 33 31 53t64 20q49 0 80 -32t31 -81q0 -51 -35.5 -85.5t-98.5 -34.5q-65 0 -102.5 44t-37.5 129q0 95 44 145t111 50q82 0 111 -68zM114 109q0 -29 18 -46.5t46 -17.5t46 17.5t18 46.5t-18 46.5t-45 17.5
q-28 0 -46.5 -17.5t-18.5 -46.5z" />
    <glyph glyph-name="uni2087" unicode="&#x2087;" horiz-adv-x="298" 
d="M81 292v-53h-62v114h268v-40l-141 -313h-73l135 292h-127z" />
    <glyph glyph-name="uni2088" unicode="&#x2088;" horiz-adv-x="348" 
d="M174 153q-27 0 -46 -14t-19 -40t17.5 -40.5t47.5 -14.5t47.5 14.5t17.5 40.5t-18.5 40t-46.5 14zM174 -7q-62 0 -99.5 25.5t-37.5 72.5q0 34 21 56.5t56 28.5v4q-33 5 -51 27t-18 53q0 47 35.5 74t93.5 27t93.5 -27t35.5 -74q0 -31 -18 -53t-51 -27v-4q35 -6 56 -28.5
t21 -56.5q0 -47 -37.5 -72.5t-99.5 -25.5zM174 309q-28 0 -46 -14t-18 -37t19 -36.5t45 -13.5t45 13.5t19 36.5t-18 37t-46 14z" />
    <glyph glyph-name="uni2089" unicode="&#x2089;" horiz-adv-x="332" 
d="M82 91q16 -40 62 -40q43 0 67 38.5t24 111.5h-4q-6 -33 -31 -53t-64 -20q-50 0 -80.5 32t-30.5 81q0 51 35.5 85.5t98.5 34.5q65 0 102.5 -44t37.5 -129q0 -95 -44.5 -145t-111.5 -50q-85 0 -114 68zM218 243q0 29 -18.5 46.5t-45.5 17.5q-28 0 -46.5 -17.5t-18.5 -46.5
q0 -28 18.5 -46t44.5 -18q28 0 47 17.5t19 46.5z" />
    <glyph glyph-name="uni208A" unicode="&#x208a;" horiz-adv-x="445" 
d="M198 206v149h45v-149h157v-45h-157v-161h-45v161h-153v45h153z" />
    <glyph glyph-name="uni208B" unicode="&#x208b;" horiz-adv-x="445" 
d="M45 160v46h355v-46h-355z" />
    <glyph glyph-name="uni208C" unicode="&#x208c;" horiz-adv-x="445" 
d="M45 104v46h355v-46h-355zM45 225v46h355v-46h-355z" />
    <glyph glyph-name="uni208D" unicode="&#x208d;" horiz-adv-x="230" 
d="M97 174q0 -69 22 -119.5t69 -108.5h-58q-85 103 -85 228q0 123 85 226h58q-46 -56 -68.5 -107.5t-22.5 -118.5z" />
    <glyph glyph-name="uni208E" unicode="&#x208e;" horiz-adv-x="230" 
d="M136 174q0 67 -22.5 118.5t-68.5 107.5h57q86 -102 86 -226q0 -126 -86 -228h-57q47 58 69 108.5t22 119.5z" />
    <glyph glyph-name="colonmonetary" unicode="&#x20a1;" horiz-adv-x="509" 
d="M138 28q-90 64 -90 211q0 120 64.5 187t170.5 67h14l29 84l47 -16l-26 -75q22 -4 44 -16l28 81l47 -16l-33 -97q23 -25 40 -63l-76 -41l-93 -272q61 8 99 75l70 -48q-60 -99 -194 -101l-33 -96l-47 16l28 84q-24 5 -44 12l-29 -87l-48 17zM139 243q0 -79 30 -124l103 302
q-63 -3 -98 -50t-35 -128zM209 79q20 -12 43 -16l110 322q-18 20 -40 28z" />
    <glyph glyph-name="uni20A2" unicode="&#x20a2;" horiz-adv-x="521" 
d="M477 89q-62 -101 -199 -101q-101 0 -163.5 64.5t-62.5 186.5q0 120 64.5 187t170.5 67q140 0 190 -118l-81 -44q-32 90 -113 90q-66 0 -103 -47.5t-37 -130.5q0 -71 25.5 -117t72.5 -61v203h65l7 -66q8 33 33.5 52.5t61.5 19.5l-4 -83q-10 5 -22 5q-26 0 -47 -17.5
t-21 -48.5v-69q61 10 96 74z" />
    <glyph glyph-name="franc" unicode="&#x20a3;" horiz-adv-x="449" 
d="M197 150v-150h-92v150h-73v50h73v50h-73v50h73v181h325v-76h-233v-105h156v-50h-156v-50h156v-50h-156z" />
    <glyph glyph-name="lira" unicode="&#x20a4;" horiz-adv-x="496" 
d="M217 154v-1q0 -59 -44 -77h167q62 0 73 49l67 -36q-10 -43 -43.5 -66t-84.5 -23h-293v78h29q22 0 34.5 17.5t12.5 45.5q0 9 -1 13h-98v50h84q-2 6 -8.5 21.5t-9.5 24.5h-66v50h55q-2 22 -2 37q0 77 52.5 116.5t125.5 39.5q145 0 164 -130l-83 -17q-7 38 -26.5 56.5
t-58.5 18.5q-87 0 -87 -87q0 -19 4 -34h153v-50h-139q9 -25 15 -46h124v-50h-116z" />
    <glyph glyph-name="uni20A6" unicode="&#x20a6;" horiz-adv-x="672" 
d="M556 160v-160h-93l-187 249q-20 26 -37.5 54t-25.5 43l-8 15h-4q5 -72 5 -149v-212h-92v160h-77v50h77v44h-77v50h77v177h100l185 -253q19 -26 35.5 -52.5t23.5 -39.5l6 -13h4q-4 75 -4 149v209h92v-177h79v-50h-79v-44h79v-50h-79z" />
    <glyph glyph-name="peseta" unicode="&#x20a7;" horiz-adv-x="1195" 
d="M86 0v481h169q152 0 191 -90h330q14 53 62.5 77.5t114.5 24.5q162 0 173 -130l-91 -9q-5 71 -91 71q-39 0 -62 -18t-23 -49q0 -29 16 -46t52 -24l68 -14q63 -13 98.5 -50t35.5 -96q0 -72 -51 -106t-138 -34q-168 0 -187 127l83 18q12 -78 110 -78q95 0 95 65q0 31 -16 47
t-59 26l-74 16q-104 22 -118 106h-120v-315h-92v315h-102v-1q0 -173 -203 -173h-80v-141h-91zM177 215h71q63 0 90.5 22t27.5 77q0 49 -28 71t-89 22h-72v-192z" />
    <glyph glyph-name="uni20A8" unicode="&#x20a8;" horiz-adv-x="842" 
d="M177 253h88q51 0 72.5 18t21.5 58q0 78 -94 78h-88v-154zM277 481q178 0 178 -145q0 -58 -33 -88t-89 -32v-4q23 -3 38.5 -12t37 -30.5t27.5 -26.5l59 -49q47 -41 137 -41q70 0 70 40q0 18 -11.5 29.5t-41.5 17.5l-53 11q-90 21 -90 106q0 56 41 82t100 26q124 0 133 -98
l-80 -8q-6 46 -61 46q-51 0 -51 -41q0 -32 48 -42l43 -9q56 -13 80.5 -41t24.5 -77q0 -54 -43.5 -80.5t-120.5 -26.5q-85 0 -134 18.5t-95 62.5l-51 49q-4 4 -16.5 15.5t-17 15.5t-16 12.5t-19.5 11.5t-20 6t-25 3h-49v-182h-91v481h191z" />
    <glyph glyph-name="uni20A9" unicode="&#x20a9;" horiz-adv-x="855" 
d="M684 177l-48 -177h-112l-74 261q-9 33 -14.5 67t-6.5 52l-1 17h-3q-1 -61 -22 -136l-72 -261h-115l-47 177h-129v51h116l-12 43h-104v51h91l-42 159h94l74 -287q9 -33 14.5 -66.5t6.5 -49.5l2 -17h3q4 58 24 132l76 288h94l75 -288q9 -33 15 -66t8 -49l2 -17h3
q3 57 21 131l75 289h90l-43 -159h92v-51h-106l-11 -43h117v-51h-131z" />
    <glyph glyph-name="uni20AA" unicode="&#x20aa;" horiz-adv-x="719" 
d="M395 124v215q0 70 -72 70h-143v-409h-92v481h251q83 0 113 -38.5t30 -113.5v-205h-87zM641 481v-329q0 -76 -30.5 -114t-113.5 -38h-252v356h87v-284h146q71 0 71 69v340h92z" />
    <glyph glyph-name="Euro" unicode="&#x20ac;" horiz-adv-x="538" 
d="M196 162q30 -100 126 -100q41 0 68 17.5t49 58.5l68 -49q-31 -53 -77.5 -77t-114.5 -24q-80 0 -136.5 44.5t-74.5 129.5h-76v51h69v26q0 23 1 34h-70v50h78q20 82 77.5 126t140.5 44q70 0 114 -28.5t70 -89.5l-79 -44q-31 88 -109 88q-94 0 -124 -96h168l-10 -50h-167
q-1 -10 -1 -30q0 -21 1 -30h160l-10 -51h-141z" />
    <glyph glyph-name="uni20AE" unicode="&#x20ae;" horiz-adv-x="458" 
d="M182 0v139l-108 -18v51l108 18v49l-108 -18v51l108 18v115h-162v76h418v-76h-164v-99l106 18v-51l-106 -18v-49l106 18v-51l-106 -18v-155h-92z" />
    <glyph glyph-name="uni20B1" unicode="&#x20b1;" horiz-adv-x="574" 
d="M476 280q-18 -139 -200 -139h-79v-141h-92v280h-75v51h75v150h169q194 0 204 -150h76v-51h-78zM197 331h187q-4 41 -32.5 59.5t-83.5 18.5h-71v-78zM267 213q52 0 79.5 15t35.5 52h-185v-67h70z" />
    <glyph glyph-name="uni2113" unicode="&#x2113;" horiz-adv-x="336" 
d="M9 177l66 46v240q0 206 138 206q105 0 105 -127q0 -108 -46.5 -197t-113.5 -147v-58q0 -44 15.5 -60.5t51.5 -16.5q31 0 58 12l-1 -75q-36 -12 -76 -12q-131 0 -131 127v40l-36 -27zM158 273q44 42 73.5 114.5t29.5 160.5q0 63 -44 63q-59 0 -59 -130v-208z" />
    <glyph glyph-name="uni2116" unicode="&#x2116;" horiz-adv-x="993" 
d="M654 70h297v-70h-297v70zM177 118q0 -68 -30.5 -101t-93.5 -43l-25 83q32 5 44 21t12 57v454h94l228 -333q16 -23 33 -51t25 -45l9 -16h4q-5 63 -5 137v178q0 68 30.5 101t93.5 43l25 -83q-33 -5 -44.5 -21t-11.5 -57v-442h-92l-230 332q-17 24 -34 52.5t-25 45.5l-9 16
h-4q6 -63 6 -140v-188zM801 153q-68 0 -107.5 42.5t-39.5 120.5q0 77 39.5 118t107.5 41q67 0 106.5 -41t39.5 -118q0 -78 -39.5 -120.5t-106.5 -42.5zM799 412q-64 0 -64 -97q0 -103 64 -103t64 103q0 97 -64 97z" />
    <glyph glyph-name="uni2117" unicode="&#x2117;" horiz-adv-x="703" 
d="M311 244v-131h-76v372h146q64 0 100 -29.5t36 -89.5q0 -61 -38.5 -91.5t-98.5 -30.5h-69zM311 307h59q71 0 71 57q0 58 -71 58h-59v-115zM45 294q0 132 89 219.5t217 87.5t217.5 -87.5t89.5 -219.5t-89.5 -219t-217.5 -87t-217 87t-89 219zM76 294q0 -120 80 -198.5
t196 -78.5t196 78.5t80 198.5t-80 199t-196 79t-196 -79t-80 -199z" />
    <glyph glyph-name="uni2120" unicode="&#x2120;" horiz-adv-x="596" 
d="M75 413q7 -35 52 -35q40 0 40 28q0 25 -35 33l-35 8q-67 15 -67 71q0 40 28.5 58.5t71.5 18.5q90 0 97 -66l-57 -7q-4 31 -42 31q-39 0 -39 -28q0 -24 35 -33l31 -7q72 -14 72 -77q0 -71 -102 -71q-95 0 -105 64zM492 342v163h-5l-48 -113h-47l-50 113h-5v-163h-56v248
h71l62 -134h4l61 134h69v-248h-56z" />
    <glyph glyph-name="trademark" unicode="&#x2122;" horiz-adv-x="592" 
d="M93 341v200h-73v48h202v-48h-73v-200h-56zM488 341v163h-5l-48 -113h-47l-50 113h-5v-163h-56v248h71l62 -134h4l61 134h69v-248h-56z" />
    <glyph glyph-name="uni2126" unicode="&#x2126;" horiz-adv-x="651" 
d="M326 521q-82 0 -125 -57.5t-43 -157.5q0 -81 32.5 -139.5t80.5 -82.5v-84h-210v84h108q-42 24 -75.5 89t-33.5 142q0 132 72 209t194 77t193.5 -77t71.5 -209q0 -78 -33 -143t-76 -88h108v-84h-209v84q47 25 79.5 83t32.5 139q0 100 -43 157.5t-124 57.5z" />
    <glyph glyph-name="estimated" unicode="&#x212e;" horiz-adv-x="647" 
d="M323 601q71 0 126 -25.5t87.5 -69.5t49 -98t16.5 -114v-26h-431v-169q60 -58 152 -58q130 0 184 104h66q-30 -73 -93 -115t-157 -42q-93 0 -157.5 45t-92.5 112.5t-28 148.5q0 82 28 149.5t92.5 112.5t157.5 45zM323 548q-94 0 -152 -58v-170h304v170q-58 58 -152 58z
" />
    <glyph glyph-name="uni2153" unicode="&#x2153;" horiz-adv-x="864" 
d="M51 236v56h96v228l-106 -11v58l178 23v-298h86v-56h-254zM554 590h62l-306 -590h-62zM696 181q98 -9 98 -91q0 -46 -37 -71.5t-98 -25.5q-57 0 -92 22t-43 59l62 25q6 -23 26.5 -37.5t47.5 -14.5q60 0 60 48q0 29 -23.5 44t-81.5 16v48q96 3 96 55q0 21 -14 33.5
t-38 12.5q-49 0 -59 -46l-61 23q9 37 42 58.5t84 21.5q50 0 83.5 -23t33.5 -69q0 -74 -86 -85v-3z" />
    <glyph glyph-name="uni2154" unicode="&#x2154;" horiz-adv-x="864" 
d="M315 236h-266v52q97 68 136 107.5t39 85.5q0 53 -54 53q-29 0 -44 -19t-16 -49l-60 27q1 41 36 72.5t95 31.5q51 0 84.5 -28t33.5 -81q0 -35 -15.5 -66.5t-43.5 -55.5t-49.5 -38.5t-51.5 -30.5v-4h176v-57zM554 590h62l-306 -590h-62zM696 181q98 -9 98 -91
q0 -46 -37 -71.5t-98 -25.5q-57 0 -92 22t-43 59l62 25q6 -23 26.5 -37.5t47.5 -14.5q60 0 60 48q0 29 -23.5 44t-81.5 16v48q96 3 96 55q0 21 -14 33.5t-38 12.5q-49 0 -59 -46l-61 23q9 37 42 58.5t84 21.5q50 0 83.5 -23t33.5 -69q0 -74 -86 -85v-3z" />
    <glyph glyph-name="uni215B" unicode="&#x215b;" horiz-adv-x="864" 
d="M51 236v56h96v228l-106 -11v58l178 23v-298h86v-56h-254zM554 590h62l-306 -590h-62zM688 153q-27 0 -46 -14t-19 -40t17.5 -40.5t47.5 -14.5t47.5 14.5t17.5 40.5t-18.5 40t-46.5 14zM688 -7q-62 0 -99.5 25.5t-37.5 72.5q0 34 21 56.5t56 28.5v4q-33 5 -51 27t-18 53
q0 47 35.5 74t93.5 27t93.5 -27t35.5 -74q0 -31 -18 -53t-51 -27v-4q35 -6 56 -28.5t21 -56.5q0 -47 -37.5 -72.5t-99.5 -25.5zM688 309q-28 0 -46 -14t-18 -37t19 -36.5t45 -13.5t45 13.5t19 36.5t-18 37t-46 14z" />
    <glyph glyph-name="uni215C" unicode="&#x215c;" horiz-adv-x="864" 
d="M211 417q98 -9 98 -91q0 -46 -37 -71.5t-98 -25.5q-57 0 -92 22t-43 59l62 25q6 -23 26.5 -37.5t47.5 -14.5q60 0 60 48q0 29 -23.5 44t-81.5 16v48q96 3 96 55q0 21 -14 33.5t-38 12.5q-49 0 -59 -46l-61 23q9 37 42 58.5t84 21.5q50 0 83.5 -23t33.5 -69q0 -74 -86 -85
v-3zM554 590h62l-306 -590h-62zM688 153q-27 0 -46 -14t-19 -40t17.5 -40.5t47.5 -14.5t47.5 14.5t17.5 40.5t-18.5 40t-46.5 14zM688 -7q-62 0 -99.5 25.5t-37.5 72.5q0 34 21 56.5t56 28.5v4q-33 5 -51 27t-18 53q0 47 35.5 74t93.5 27t93.5 -27t35.5 -74q0 -31 -18 -53
t-51 -27v-4q35 -6 56 -28.5t21 -56.5q0 -47 -37.5 -72.5t-99.5 -25.5zM688 309q-28 0 -46 -14t-18 -37t19 -36.5t45 -13.5t45 13.5t19 36.5t-18 37t-46 14z" />
    <glyph glyph-name="uni215D" unicode="&#x215d;" horiz-adv-x="864" 
d="M81 589h210v-59h-154l-5 -93q22 28 71 28q47 0 76 -28.5t29 -81.5q0 -61 -38 -93.5t-104 -32.5q-53 0 -87 23t-39 61l62 27q10 -57 69 -57q67 0 67 67q0 31 -15 47.5t-41 16.5q-33 0 -52 -23h-58zM554 590h62l-306 -590h-62zM688 153q-27 0 -46 -14t-19 -40t17.5 -40.5
t47.5 -14.5t47.5 14.5t17.5 40.5t-18.5 40t-46.5 14zM688 -7q-62 0 -99.5 25.5t-37.5 72.5q0 34 21 56.5t56 28.5v4q-33 5 -51 27t-18 53q0 47 35.5 74t93.5 27t93.5 -27t35.5 -74q0 -31 -18 -53t-51 -27v-4q35 -6 56 -28.5t21 -56.5q0 -47 -37.5 -72.5t-99.5 -25.5z
M688 309q-28 0 -46 -14t-18 -37t19 -36.5t45 -13.5t45 13.5t19 36.5t-18 37t-46 14z" />
    <glyph glyph-name="uni215E" unicode="&#x215e;" horiz-adv-x="807" 
d="M103 528v-53h-62v114h268v-40l-141 -313h-73l135 292h-127zM499 590h62l-306 -590h-62zM633 153q-27 0 -46 -14t-19 -40t17.5 -40.5t47.5 -14.5t47.5 14.5t17.5 40.5t-18.5 40t-46.5 14zM633 -7q-62 0 -99.5 25.5t-37.5 72.5q0 34 21 56.5t56 28.5v4q-33 5 -51 27t-18 53
q0 47 35.5 74t93.5 27t93.5 -27t35.5 -74q0 -31 -18 -53t-51 -27v-4q35 -6 56 -28.5t21 -56.5q0 -47 -37.5 -72.5t-99.5 -25.5zM633 309q-28 0 -46 -14t-18 -37t19 -36.5t45 -13.5t45 13.5t19 36.5t-18 37t-46 14z" />
    <glyph glyph-name="arrowleft" unicode="&#x2190;" horiz-adv-x="672" 
d="M627 336v-82h-459l205 -209l-60 -57l-293 305l292 308l62 -56l-204 -209h457z" />
    <glyph glyph-name="arrowup" unicode="&#x2191;" horiz-adv-x="685" 
d="M384 0h-82v453l-209 -206l-57 61l305 293l308 -292l-57 -62l-208 204v-451z" />
    <glyph glyph-name="arrowright" unicode="&#x2192;" horiz-adv-x="672" 
d="M477 336l-201 209l62 56l289 -308l-288 -305l-61 57l202 209h-460v82h457z" />
    <glyph glyph-name="arrowdown" unicode="&#x2193;" horiz-adv-x="685" 
d="M301 589h82v-453l209 206l57 -60l-305 -294l-308 293l57 62l208 -204v450z" />
    <glyph glyph-name="uni2196" unicode="&#x2196;" horiz-adv-x="683" 
d="M158 452v-353h-79v490h470v-77h-334l450 -453l-58 -59z" />
    <glyph glyph-name="uni2197" unicode="&#x2197;" horiz-adv-x="683" 
d="M76 0l-58 59l450 453h-333v77h469v-490h-79v353z" />
    <glyph glyph-name="uni2198" unicode="&#x2198;" horiz-adv-x="683" 
d="M525 138v352h79v-490h-469v77h333l-450 453l58 59z" />
    <glyph glyph-name="uni2199" unicode="&#x2199;" horiz-adv-x="683" 
d="M607 589l58 -59l-450 -453h334v-77h-470v490h79v-352z" />
    <glyph glyph-name="partialdiff" unicode="&#x2202;" horiz-adv-x="518" 
d="M201 674q124 -54 196.5 -167t72.5 -243q0 -138 -56 -204.5t-155 -66.5q-98 0 -154.5 62.5t-56.5 177.5q0 111 54 171.5t137 60.5q77 0 125 -62q-61 141 -224 220zM380 231q0 77 -32 118t-92 41q-118 0 -118 -159q0 -79 30.5 -121.5t89.5 -42.5q122 0 122 164z" />
    <glyph glyph-name="uni2206" unicode="&#x2206;" horiz-adv-x="569" 
d="M10 0l215 589h121l213 -589h-549zM331 369q-15 41 -26.5 79t-16.5 56l-4 17h-4q-13 -59 -45 -151l-102 -292l300 -1z" />
    <glyph glyph-name="product" unicode="&#x220f;" horiz-adv-x="623" 
d="M79 -202v791h465v-791h-92v706h-282v-706h-91z" />
    <glyph glyph-name="summation" unicode="&#x2211;" horiz-adv-x="446" 
d="M252 509l-95 3v-4q28 -23 64 -70l111 -143l-117 -144q-16 -20 -32.5 -37.5t-24.5 -25.5l-8 -7v-4q35 3 95 3h157v-80h-402l223 296l-223 293h402v-80h-150z" />
    <glyph glyph-name="minus" unicode="&#x2212;" horiz-adv-x="498" 
d="M45 221v54h408v-54h-408z" />
    <glyph glyph-name="radical" unicode="&#x221a;" horiz-adv-x="577" 
d="M327 101h3l153 583l84 -9l-188 -675h-92l-142 346l-93 -49l-34 69l175 97z" />
    <glyph glyph-name="infinity" unicode="&#x221e;" horiz-adv-x="864" 
d="M127 248q0 -52 28 -81.5t69 -29.5q62 0 109 50l55 61l-55 61q-46 50 -109 50q-41 0 -69 -29.5t-28 -81.5zM383 145q-70 -78 -161 -78q-76 0 -124.5 48.5t-48.5 132.5t48.5 132.5t124.5 48.5q92 0 161 -78l49 -54l49 54q72 78 161 78q76 0 124.5 -48.5t48.5 -132.5
t-48.5 -132.5t-124.5 -48.5q-92 0 -161 78l-49 54zM737 248q0 52 -28 81.5t-69 29.5q-63 0 -109 -50l-55 -61l55 -61q46 -50 109 -50q41 0 69 29.5t28 81.5z" />
    <glyph glyph-name="integral" unicode="&#x222b;" horiz-adv-x="282" 
d="M89 515q0 81 46.5 118.5t115.5 37.5q48 0 93 -16l-17 -82q-39 21 -73 21q-74 0 -74 -90v-552q0 -81 -46.5 -118.5t-115.5 -37.5q-50 0 -92 17l17 81q37 -21 73 -21q73 0 73 90v552z" />
    <glyph glyph-name="approxequal" unicode="&#x2248;" horiz-adv-x="498" 
d="M361 252q-38 0 -112.5 24t-107.5 24q-55 0 -96 -47v55q34 45 95 45q36 0 111.5 -23.5t110.5 -23.5q52 0 91 45v-63q-33 -36 -92 -36zM361 134q-38 0 -112.5 24.5t-107.5 24.5q-54 0 -96 -49v57q36 45 95 45q36 0 111.5 -24.5t110.5 -24.5q51 0 91 46v-63q-33 -36 -92 -36
z" />
    <glyph glyph-name="notequal" unicode="&#x2260;" horiz-adv-x="498" 
d="M326 285l-65 -78h192v-53h-236l-103 -125l-41 34l75 91h-103v53h146l65 78h-211v53h254l94 113l42 -34l-67 -79h85v-53h-127z" />
    <glyph glyph-name="lessequal" unicode="&#x2264;" horiz-adv-x="405" 
d="M144 292l203 -148l-39 -46l-259 193l261 192l36 -45zM45 21v53h315v-53h-315z" />
    <glyph glyph-name="greaterequal" unicode="&#x2265;" horiz-adv-x="405" 
d="M59 438l37 45l259 -192l-258 -193l-39 46l203 148zM45 21v53h315v-53h-315z" />
    <glyph glyph-name="filledbox" unicode="&#x25a0;" horiz-adv-x="755" 
d="M83 589h589v-589h-589v589z" />
    <glyph glyph-name="uni25A1" unicode="&#x25a1;" horiz-adv-x="755" 
d="M83 589h589v-589h-589v589zM126 43h503v503h-503v-503z" />
    <glyph glyph-name="uni25AA" unicode="&#x25aa;" horiz-adv-x="492" 
d="M83 464h326v-325h-326v325z" />
    <glyph glyph-name="uni25AB" unicode="&#x25ab;" horiz-adv-x="492" 
d="M83 464h326v-325h-326v325zM126 182h240v239h-240v-239z" />
    <glyph glyph-name="triagup" unicode="&#x25b2;" horiz-adv-x="571" 
d="M285 601l246 -601h-491z" />
    <glyph glyph-name="triagrt" unicode="&#x25ba;" horiz-adv-x="684" 
d="M684 291l-601 -246v491z" />
    <glyph glyph-name="triagdn" unicode="&#x25bc;" horiz-adv-x="571" 
d="M40 589h491l-246 -601z" />
    <glyph glyph-name="triaglf" unicode="&#x25c4;" horiz-adv-x="684" 
d="M601 536v-491l-601 246z" />
    <glyph glyph-name="lozenge" unicode="&#x25ca;" horiz-adv-x="509" 
d="M287 -33h-66l-173 336l173 328h66l174 -328zM256 546l-125 -244l125 -253l124 253z" />
    <glyph glyph-name="uni25CF" unicode="&#x25cf;" horiz-adv-x="701" 
d="M44 294q0 127 89.5 217t216.5 90t217 -90t90 -217t-90 -216.5t-217 -89.5t-216.5 89.5t-89.5 216.5z" />
    <glyph glyph-name="circle" unicode="&#x25ef;" horiz-adv-x="701" 
d="M44 294q0 127 89.5 217t216.5 90t217 -90t90 -217t-90 -216.5t-217 -89.5t-216.5 89.5t-89.5 216.5zM88 293q0 -110 76.5 -187.5t185.5 -77.5q108 0 185 78t77 187q0 110 -77 188.5t-185 78.5q-109 0 -185.5 -78.5t-76.5 -188.5z" />
    <glyph glyph-name="uni3008" unicode="&#x3008;" horiz-adv-x="328" 
d="M202 -203l-153 441l153 430h86l-150 -433l150 -438h-86z" />
    <glyph glyph-name="uni3009" unicode="&#x3009;" horiz-adv-x="328" 
d="M40 -203l150 438l-150 433h86l153 -430l-153 -441h-86z" />
    <glyph glyph-name="uniA790" unicode="&#xa790;" horiz-adv-x="650" 
d="M475 -203v205l-234 334q-16 24 -33 52.5t-26 45.5l-9 16h-4q6 -63 6 -139v-311h-92v589h94l232 -337q16 -23 32.5 -51t25.5 -45l9 -16h4q-5 63 -5 137v312h92v-792h-92z" />
    <glyph glyph-name="uniA791" unicode="&#xa791;" horiz-adv-x="509" 
d="M154 373q36 100 148 100q61 0 100.5 -35.5t39.5 -107.5v-534h-90v507q0 92 -81 92q-48 0 -78.5 -30.5t-30.5 -99.5v-265h-90v462h71z" />
    <glyph glyph-name="lcedilla" unicode="&#xe100;" horiz-adv-x="261" 
d="M252 -124q0 -42 -29.5 -64.5t-75.5 -22.5q-61 0 -90 38l24 51q25 -36 63 -36q36 0 36 34q0 41 -66 42l6 84q-54 24 -54 90v576h90v-557q0 -41 41 -41q15 0 32 5l-1 -75q-32 -8 -56 -8h-6l-2 -33q88 -7 88 -83z" />
    <glyph glyph-name="E_grave_dotbelowcomb" unicode="&#xe101;" horiz-adv-x="496" 
d="M446 0h-363v589h363v-80h-271v-174h240v-80h-240v-175h271v-80zM203 -139q0 26 17.5 43t42.5 17q26 0 44 -17t18 -43q0 -25 -18 -42.5t-44 -17.5q-25 0 -42.5 17.5t-17.5 42.5zM220 653l63 123h120l-101 -123h-82z" />
    <glyph glyph-name="e_grave_dotbelowcomb" unicode="&#xe102;" horiz-adv-x="478" 
d="M253 59q79 0 101 75l79 -21q-26 -125 -185 -125q-94 0 -150 63t-56 176q0 115 57 180.5t154 65.5q87 0 135 -54t48 -143q0 -39 -9 -64h-298q3 -70 35 -111.5t89 -41.5zM347 277q1 7 1 19q0 45 -27.5 75.5t-72.5 30.5q-49 0 -79.5 -32.5t-37.5 -92.5h216zM204 529l74 146
h121l-116 -146h-79zM190 -139q0 26 17.5 43t42.5 17q26 0 44 -17t18 -43q0 -25 -18 -42.5t-44 -17.5q-25 0 -42.5 17.5t-17.5 42.5z" />
    <glyph glyph-name="E_acute_dotbelowcomb" unicode="&#xe103;" horiz-adv-x="496" 
d="M446 0h-363v589h363v-80h-271v-174h240v-80h-240v-175h271v-80zM203 -139q0 26 17.5 43t42.5 17q26 0 44 -17t18 -43q0 -25 -18 -42.5t-44 -17.5q-25 0 -42.5 17.5t-17.5 42.5zM228 653l-100 123h120l63 -123h-83z" />
    <glyph glyph-name="e_acute_dotbelowcomb" unicode="&#xe104;" horiz-adv-x="478" 
d="M253 59q79 0 101 75l79 -21q-26 -125 -185 -125q-94 0 -150 63t-56 176q0 115 57 180.5t154 65.5q87 0 135 -54t48 -143q0 -39 -9 -64h-298q3 -70 35 -111.5t89 -41.5zM347 277q1 7 1 19q0 45 -27.5 75.5t-72.5 30.5q-49 0 -79.5 -32.5t-37.5 -92.5h216zM218 529
l-115 146h121l74 -146h-80zM190 -139q0 26 17.5 43t42.5 17q26 0 44 -17t18 -43q0 -25 -18 -42.5t-44 -17.5q-25 0 -42.5 17.5t-17.5 42.5z" />
    <glyph glyph-name="uniE105" unicode="&#xe105;" horiz-adv-x="610" 
d="M547 304v-304h-73l-12 76q-17 -42 -62.5 -65t-99.5 -23q-116 0 -186 79t-70 225q0 145 75 227t200 82q166 0 221 -142l-86 -42q-18 52 -54.5 78.5t-85.5 26.5q-79 0 -126.5 -60.5t-47.5 -169.5q0 -104 43 -166t126 -62q63 0 105 30t42 86v44h-143v80h234zM389 653
q-26 0 -72 24q-5 3 -14.5 8.5t-13 7t-10 4.5t-11.5 4t-11 1q-36 0 -30 -47h-55q-19 48 3.5 87t70.5 39q36 0 79 -26q38 -24 55 -24q33 0 29 49h57q18 -53 -3.5 -90t-73.5 -37z" />
    <glyph glyph-name="uniE106" unicode="&#xe106;" horiz-adv-x="485" 
d="M229 473q84 0 134 -37q25 14 35 70l78 -27q-5 -32 -26.5 -54t-50.5 -29q21 -36 21 -87q0 -77 -54 -118.5t-136 -41.5q-39 0 -60 8q-31 -16 -31 -48q0 -38 49 -38h113q78 0 119.5 -33.5t41.5 -95.5q0 -57 -39 -93t-92 -48t-120 -12q-202 0 -202 121q0 45 31 73.5t88 32.5
q-31 4 -47.5 23.5t-16.5 48.5q0 63 68 81q-90 40 -90 140q0 77 51 120.5t136 43.5zM94 -80q0 -67 126 -67q155 0 155 76q0 61 -78 61h-100q-103 0 -103 -70zM132 310q0 -44 25.5 -70.5t71.5 -26.5q47 0 74 24.5t27 72.5t-27 73t-74 24q-46 0 -71.5 -25.5t-25.5 -71.5z
M308 529q-28 0 -72 23q-42 25 -60 25q-36 0 -30 -47h-55q-19 49 3 86.5t71 37.5q34 0 79 -27q39 -23 55 -23q33 0 29 49h57q18 -53 -3 -88.5t-74 -35.5z" />
    <glyph glyph-name="uniE107" unicode="&#xe107;" horiz-adv-x="610" 
d="M547 304v-304h-73l-12 76q-17 -42 -62.5 -65t-99.5 -23q-116 0 -186 79t-70 225q0 145 75 227t200 82q166 0 221 -142l-86 -42q-18 52 -54.5 78.5t-85.5 26.5q-79 0 -126.5 -60.5t-47.5 -169.5q0 -104 43 -166t126 -62q63 0 105 30t42 86v44h-143v80h234zM243 727
q0 105 121 105v-37q-31 -2 -45.5 -11t-14.5 -32q27 4 44 -9t17 -38t-16 -39t-41 -14q-27 0 -46 20.5t-19 54.5z" />
    <glyph glyph-name="uniE108" unicode="&#xe108;" horiz-adv-x="485" 
d="M229 473q84 0 134 -37q25 14 35 70l78 -27q-5 -32 -26.5 -54t-50.5 -29q21 -36 21 -87q0 -77 -54 -118.5t-136 -41.5q-39 0 -60 8q-31 -16 -31 -48q0 -38 49 -38h113q78 0 119.5 -33.5t41.5 -95.5q0 -57 -39 -93t-92 -48t-120 -12q-202 0 -202 121q0 45 31 73.5t88 32.5
q-31 4 -47.5 23.5t-16.5 48.5q0 63 68 81q-90 40 -90 140q0 77 51 120.5t136 43.5zM94 -80q0 -67 126 -67q155 0 155 76q0 61 -78 61h-100q-103 0 -103 -70zM132 310q0 -44 25.5 -70.5t71.5 -26.5q47 0 74 24.5t27 72.5t-27 73t-74 24q-46 0 -71.5 -25.5t-25.5 -71.5z
M166 606q0 105 121 105v-37q-31 -2 -45.5 -11t-14.5 -32q27 4 44 -9t17 -38t-16 -39t-41 -14q-27 0 -46 20.5t-19 54.5z" />
    <glyph glyph-name="uniE109" unicode="&#xe109;" horiz-adv-x="631" 
d="M83 0v589h92v-250h281v250h92v-589h-92v259h-281v-259h-92zM185 -182v72h262v-72h-262z" />
    <glyph glyph-name="uniE10A" unicode="&#xe10a;" horiz-adv-x="509" 
d="M162 374q33 99 140 99q61 0 100.5 -35.5t39.5 -107.5v-330h-90v304q0 91 -81 91q-48 0 -78.5 -30t-30.5 -100v-265h-90v668h90v-294zM127 -182v72h262v-72h-262z" />
    <glyph glyph-name="uniE10B" unicode="&#xe10b;" horiz-adv-x="437" 
d="M373 589v-418q0 -95 -52 -139t-134 -44q-131 0 -187 115l72 54q24 -51 49 -71.5t67 -20.5q53 0 72.5 32t19.5 95v397h93zM298 649l-124 129h96l32 -33q8 -9 14 -17.5t8 -12.5l1 -4h3q4 14 23 34l31 33h97l-125 -129h-56z" />
    <glyph glyph-name="Kcedilla" unicode="&#xe10d;" horiz-adv-x="537" 
d="M406 0l-185 259h-46v-259h-92v589h92v-250h49l172 250h108l-205 -286l220 -303h-113zM356 -124q0 -42 -29.5 -64.5t-75.5 -22.5q-61 0 -90 38l24 51q25 -36 63 -36q36 0 36 34q0 41 -66 42l7 90h46l-3 -49q88 -7 88 -83z" />
    <glyph glyph-name="kcedilla" unicode="&#xe10e;" horiz-adv-x="468" 
d="M462 0h-111l-161 207h-28v-207h-90v668h90v-391h23l153 185h109l-186 -215zM342 -124q0 -42 -29.5 -64.5t-75.5 -22.5q-61 0 -90 38l24 51q25 -36 63 -36q36 0 36 34q0 41 -66 42l7 90h46l-3 -49q88 -7 88 -83z" />
    <glyph glyph-name="Lcedilla" unicode="&#xe10f;" horiz-adv-x="461" 
d="M357 -124q0 -42 -29.5 -64.5t-75.5 -22.5q-62 0 -90 38l24 51q26 -36 63 -36q36 0 36 34q0 41 -66 42l6 82h-142v589h92v-509h264v-80h-168l-2 -41q88 -7 88 -83z" />
    <glyph glyph-name="uniE110" unicode="&#xe110;" horiz-adv-x="505" 
d="M357 -124q0 -42 -29.5 -64.5t-75.5 -22.5q-62 0 -90 38l24 51q26 -36 63 -36q36 0 36 34q0 41 -66 42l5 72q-85 8 -133.5 71.5t-48.5 172.5q0 116 56.5 177.5t153.5 61.5q98 0 154.5 -61.5t56.5 -177.5q0 -111 -51.5 -175t-140.5 -70l-2 -30q88 -7 88 -83zM252 400
q-121 0 -121 -167q0 -174 121 -174q122 0 122 174q0 167 -122 167z" />
    <glyph glyph-name="uniE111" unicode="&#xe111;" horiz-adv-x="719" 
d="M329 144l-111 204q-15 28 -26 53.5t-14 36.5l-4 11h-4q5 -36 5 -106v-343h-92v589h107l140 -272q10 -20 17.5 -38t10.5 -26l2 -8h4q6 27 30 72l139 272h103v-589h-93v343q0 31 1.5 57.5t3.5 37.5l1 11h-4q-10 -37 -45 -101l-110 -204h-61zM228 674v71h264v-71h-264z" />
    <glyph glyph-name="uniE112" unicode="&#xe112;" horiz-adv-x="773" 
d="M424 371q16 52 55.5 77t89.5 25q62 0 99.5 -34.5t37.5 -104.5v-334h-90v304q0 91 -77 91q-44 0 -74.5 -32.5t-30.5 -97.5v-265h-90v304q0 91 -77 91q-43 0 -74 -33t-31 -97v-265h-90v462h71l11 -89q34 100 144 100q109 0 126 -102zM259 558v73h262v-73h-262z" />
    <glyph glyph-name="uniE113" unicode="&#xe113;" horiz-adv-x="719" 
d="M329 144l-111 204q-15 28 -26 53.5t-14 36.5l-4 11h-4q5 -36 5 -106v-343h-92v589h107l140 -272q10 -20 17.5 -38t10.5 -26l2 -8h4q6 27 30 72l139 272h103v-589h-93v343q0 31 1.5 57.5t3.5 37.5l1 11h-4q-10 -37 -45 -101l-110 -204h-61zM456 -124q0 -42 -29.5 -64.5
t-75.5 -22.5q-61 0 -90 38l24 51q25 -36 63 -36q36 0 36 34q0 41 -66 42l7 90h46l-3 -49q88 -7 88 -83z" />
    <glyph glyph-name="uniE114" unicode="&#xe114;" horiz-adv-x="773" 
d="M495 -124q0 -42 -29.5 -64.5t-75.5 -22.5q-62 0 -90 38l24 51q26 -36 63 -36q36 0 36 34q0 41 -66 42l6 82h-19v304q0 91 -77 91q-43 0 -74 -33t-31 -97v-265h-90v462h71l11 -89q34 100 144 100q109 0 126 -102q16 52 55.5 77t89.5 25q62 0 99.5 -34.5t37.5 -104.5v-334
h-90v304q0 91 -77 91q-44 0 -74.5 -32.5t-30.5 -97.5v-265h-25l-2 -41q88 -7 88 -83z" />
    <glyph glyph-name="uniE115" unicode="&#xe115;" horiz-adv-x="650" 
d="M409 252q16 -23 32.5 -51t25.5 -45l9 -16h4q-5 63 -5 137v312h92v-589h-91l-235 336q-16 24 -33 52.5t-26 45.5l-9 16h-4q6 -63 6 -139v-311h-92v589h94zM167 713q0 26 17.5 43t41.5 17q25 0 42.5 -17t17.5 -43q0 -25 -17.5 -42t-42.5 -17q-24 0 -41.5 17t-17.5 42z
M363 712q0 26 17.5 43t41.5 17q26 0 43 -17t17 -43q0 -25 -17.5 -42t-42.5 -17q-24 0 -41.5 17t-17.5 42z" />
    <glyph glyph-name="uniE116" unicode="&#xe116;" horiz-adv-x="509" 
d="M154 373q36 100 148 100q61 0 100.5 -35.5t39.5 -107.5v-330h-90v303q0 92 -81 92q-48 0 -78.5 -30.5t-30.5 -99.5v-265h-90v462h71zM104 595q0 26 17.5 43t41.5 17q25 0 42.5 -17t17.5 -43q0 -25 -17.5 -42t-42.5 -17q-24 0 -41.5 17t-17.5 42zM300 594q0 26 17.5 43
t41.5 17q26 0 43 -17t17 -43q0 -25 -17.5 -42t-42.5 -17q-24 0 -41.5 17t-17.5 42z" />
    <glyph glyph-name="uniE117" unicode="&#xe117;" horiz-adv-x="650" 
d="M409 252q16 -23 32.5 -51t25.5 -45l9 -16h4q-5 63 -5 137v312h92v-589h-91l-235 336q-16 24 -33 52.5t-26 45.5l-9 16h-4q6 -63 6 -139v-311h-92v589h94zM194 674v71h264v-71h-264z" />
    <glyph glyph-name="uniE118" unicode="&#xe118;" horiz-adv-x="509" 
d="M154 373q36 100 148 100q61 0 100.5 -35.5t39.5 -107.5v-330h-90v303q0 92 -81 92q-48 0 -78.5 -30.5t-30.5 -99.5v-265h-90v462h71zM132 558v73h262v-73h-262z" />
    <glyph glyph-name="Ncedilla" unicode="&#xe119;" horiz-adv-x="650" 
d="M409 252q16 -23 32.5 -51t25.5 -45l9 -16h4q-5 63 -5 137v312h92v-589h-91l-235 336q-16 24 -33 52.5t-26 45.5l-9 16h-4q6 -63 6 -139v-311h-92v589h94zM422 -124q0 -42 -29.5 -64.5t-75.5 -22.5q-61 0 -90 38l24 51q25 -36 63 -36q36 0 36 34q0 41 -66 42l7 90h46
l-3 -49q88 -7 88 -83z" />
    <glyph glyph-name="ncedilla" unicode="&#xe11a;" horiz-adv-x="509" 
d="M154 373q36 100 148 100q61 0 100.5 -35.5t39.5 -107.5v-330h-90v303q0 92 -81 92q-48 0 -78.5 -30.5t-30.5 -99.5v-265h-90v462h71zM359 -124q0 -42 -29.5 -64.5t-75.5 -22.5q-61 0 -90 38l24 51q26 -36 63 -36q36 0 36 34q0 41 -66 42l7 90h46l-3 -49q88 -7 88 -83z
" />
    <glyph glyph-name="uniE11B" unicode="&#xe11b;" horiz-adv-x="619" 
d="M310 -12q-123 0 -194.5 80.5t-71.5 225.5q0 146 71.5 226.5t194.5 80.5t194 -80.5t71 -226.5q0 -145 -71 -225.5t-194 -80.5zM310 520q-82 0 -125.5 -59.5t-43.5 -166.5t43.5 -166.5t125.5 -59.5t125 59.5t43 166.5q0 106 -43.5 166t-124.5 60zM246 727q0 105 121 105
v-37q-31 -2 -45.5 -11t-14.5 -32q27 4 44 -9t17 -38t-16 -39t-41 -14q-27 0 -46 20.5t-19 54.5z" />
    <glyph glyph-name="uniE11C" unicode="&#xe11c;" horiz-adv-x="505" 
d="M252 -12q-97 0 -153.5 64.5t-56.5 181.5q0 116 56.5 177.5t153.5 61.5q98 0 154.5 -61.5t56.5 -177.5q0 -117 -57 -181.5t-154 -64.5zM252 400q-121 0 -121 -167q0 -174 121 -174q122 0 122 174q0 167 -122 167zM192 607q0 105 121 105v-37q-31 -2 -45.5 -11t-14.5 -32
q27 4 44 -9t17 -38t-16 -39t-41 -14q-27 0 -46 20.5t-19 54.5z" />
    <glyph glyph-name="O_dotaccent_macron" unicode="&#xe11d;" horiz-adv-x="619" 
d="M298 -12q-2 0 -6 0.5t-6 0.5q-4 1 -12 1l-11 2q-14 2 -22 4l-11 2q-88 24 -137 100t-49 196q0 29 1 43l2 13q2 18 4 26q1 9 5 25l3 12q14 51 44 92l13 16q21 24 47 40l9 6q3 1 9 5q14 7 39 16l10 3l22 5l22 3l24 2h12q4 0 12 -0.5t12 -0.5l23 -3q22 -3 43 -9
q1 0 4.5 -1.5t5.5 -2.5q8 -3 10 -4q6 -2 9 -4q34 -15 60 -40l21 -23l6 -8l6 -9l12 -19l5 -9q5 -10 13 -32q5 -13 8 -23l6 -24q6 -31 7 -52l2 -29v-14q0 -33 -5 -70l-4 -25l-6 -24q-9 -29 -12 -34l-4 -10l-10 -20l-12 -19l-6 -8l-6 -9l-21 -23q-13 -12 -33 -25l-27 -15
q-6 -2 -9 -4q-19 -7 -41 -12q-6 -2 -22 -4l-23 -3q-4 0 -12 -0.5t-12 -0.5h-12zM302 520q-21 -2 -39 -6q-1 0 -7 -2q-7 -2 -19 -8l-7 -3l-12 -7l-5 -4l-6 -5q-7 -6 -19 -20q-10 -14 -16 -24l-7 -14l-3 -7l-3 -8q-4 -10 -5 -16q-13 -42 -13 -102v-11q3 -150 89 -197l13 -6
l13 -5q3 0 7 -2q20 -5 39 -5h8q16 0 24 1q2 1 7 1l15 3q6 2 7 2l13 5q11 5 19 10q4 2 6 4l5 4l11 9l14 15q6 8 8 12q11 17 21 41l2 8q4 10 5 16q2 6 2 8q2 6 4 18t2 19q0 2 3 39v11q0 14 -2 40q0 7 -1 10q-1 18 -6 36l-4 16l-5 16l-3 8l-3 7q-8 17 -19 32q-11 16 -29 31
q-18 12 -24 14q-22 11 -48 14q-3 1 -8 1q-5 1 -16 1h-8zM178 801v71h264v-71h-264zM249 703q0 26 17.5 43t42.5 17q27 0 44.5 -16.5t17.5 -43.5q0 -25 -18 -42.5t-44 -17.5q-25 0 -42.5 17.5t-17.5 42.5z" />
    <glyph glyph-name="uniE11F" unicode="&#xe11f;" horiz-adv-x="619" 
d="M406 -124q0 -42 -29.5 -64.5t-75.5 -22.5q-61 0 -90 38l24 51q25 -36 63 -36q36 0 36 34q0 41 -66 42l5 72q-107 11 -168 90.5t-61 213.5q0 146 71.5 226.5t194.5 80.5t194 -80.5t71 -226.5q0 -142 -68 -222t-187 -84l-2 -29q88 -7 88 -83zM310 520q-82 0 -125.5 -59.5
t-43.5 -166.5t43.5 -166.5t125.5 -59.5t125 59.5t43 166.5q0 106 -43.5 166t-124.5 60z" />
    <glyph glyph-name="uniE121" unicode="&#xe121;" horiz-adv-x="619" 
d="M310 -12q-123 0 -194.5 80.5t-71.5 225.5q0 146 71.5 226.5t194.5 80.5t194 -80.5t71 -226.5q0 -145 -71 -225.5t-194 -80.5zM310 520q-82 0 -125.5 -59.5t-43.5 -166.5t43.5 -166.5t125.5 -59.5t125 59.5t43 166.5q0 106 -43.5 166t-124.5 60zM275 -203v150h70v-150h-70
z" />
    <glyph glyph-name="uniE122" unicode="&#xe122;" horiz-adv-x="505" 
d="M252 -12q-97 0 -153.5 64.5t-56.5 181.5q0 116 56.5 177.5t153.5 61.5q98 0 154.5 -61.5t56.5 -177.5q0 -117 -57 -181.5t-154 -64.5zM252 400q-121 0 -121 -167q0 -174 121 -174q122 0 122 174q0 167 -122 167zM217 -203v150h70v-150h-70z" />
    <glyph glyph-name="uniE123" unicode="&#xe123;" horiz-adv-x="499" 
d="M175 292h85q62 0 88 28.5t26 82.5q0 109 -115 109h-84v-220zM83 0v589h178q208 0 208 -181q0 -90 -51 -141t-148 -51h-95v-216h-92zM118 674v71h264v-71h-264z" />
    <glyph glyph-name="uniE124" unicode="&#xe124;" 
d="M162 179q0 -62 33.5 -92.5t78.5 -30.5q55 0 90.5 45.5t35.5 132.5q0 81 -30.5 123t-85.5 42q-52 0 -87 -36.5t-35 -98.5v-85zM162 -203h-90v665h74l11 -89q19 52 61.5 76t91.5 24q86 0 134 -60t48 -171q0 -110 -53.5 -182t-146.5 -72q-51 0 -84 20.5t-46 52.5v-264z
M151 558v73h262v-73h-262z" />
    <glyph glyph-name="uniE125" unicode="&#xe125;" horiz-adv-x="550" 
d="M414 0q-19 21 -26 55l-24 102q-12 49 -37.5 65.5t-72.5 16.5h-79v-239h-92v589h204q201 0 201 -168q0 -67 -38.5 -105t-97.5 -41v-3q43 -5 66.5 -26.5t35.5 -67.5l30 -116q11 -38 31 -62h-101zM175 316h108q109 0 109 98q0 47 -27 72.5t-81 25.5h-109v-196zM310 653
l-104 123h109l62 -123h-67zM159 653l-115 123h113l73 -123h-71z" />
    <glyph glyph-name="uniE126" unicode="&#xe126;" horiz-adv-x="356" 
d="M331 371q-22 4 -41 4q-52 0 -90 -38.5t-38 -102.5v-234h-90v462h76l11 -125q14 65 59.5 102t119.5 33zM252 529l-104 146h109l62 -146h-67zM101 529l-115 146h113l73 -146h-71z" />
    <glyph glyph-name="Rcedilla" unicode="&#xe127;" horiz-adv-x="550" 
d="M414 0q-19 21 -26 55l-24 102q-12 49 -37.5 65.5t-72.5 16.5h-79v-239h-92v589h204q201 0 201 -168q0 -67 -38.5 -105t-97.5 -41v-3q43 -5 66.5 -26.5t35.5 -67.5l30 -116q11 -38 31 -62h-101zM175 316h108q109 0 109 98q0 47 -27 72.5t-81 25.5h-109v-196zM358 -124
q0 -42 -29.5 -64.5t-75.5 -22.5q-61 0 -90 38l24 51q25 -36 63 -36q36 0 36 34q0 41 -66 42l7 90h46l-3 -49q88 -7 88 -83z" />
    <glyph glyph-name="rcedilla" unicode="&#xe128;" horiz-adv-x="356" 
d="M225 -124q0 -42 -29.5 -64.5t-75.5 -22.5q-62 0 -90 38l24 51q26 -36 63 -36q36 0 36 34q0 41 -66 42l6 82h-21v462h76l11 -125q14 65 59.5 102t119.5 33l-7 -101q-22 4 -41 4q-52 0 -90 -38.5t-38 -102.5v-234h-23l-2 -41q88 -7 88 -83z" />
    <glyph glyph-name="uniE129" unicode="&#xe129;" horiz-adv-x="456" 
d="M335 -124q0 -42 -29.5 -64.5t-75.5 -22.5q-62 0 -90 38l24 51q26 -36 63 -36q36 0 36 34q0 41 -66 42l6 82h-22v509h-171v80h436v-80h-172v-509h-25l-2 -41q88 -7 88 -83z" />
    <glyph glyph-name="uniE12A" unicode="&#xe12a;" horiz-adv-x="337" 
d="M283 -124q0 -42 -29.5 -64.5t-75.5 -22.5q-61 0 -90 38l24 51q26 -36 63 -36q36 0 36 34q0 41 -66 42l6 79q-74 27 -74 121v272h-67v72h67v98l91 11v-109h137v-72h-138v-254q0 -71 61 -71q39 0 77 25l17 -75q-45 -27 -112 -27q-9 0 -13 1l-2 -30q88 -7 88 -83z" />
    <glyph glyph-name="uniE12B" unicode="&#xe12b;" horiz-adv-x="582" 
d="M518 589v-396q0 -55 -19 -96t-52 -64t-72 -34t-84 -11q-62 0 -111 18.5t-82.5 66t-33.5 120.5v396h92v-372q0 -153 135 -153q134 0 134 151v374h93zM160 -182v72h262v-72h-262z" />
    <glyph glyph-name="uniE12C" unicode="&#xe12c;" horiz-adv-x="508" 
d="M348 84q-31 -96 -142 -96q-140 0 -140 153v321h90v-307q0 -100 83 -100q41 0 74 36t33 98v273h90v-462h-77zM121 -182v72h262v-72h-262z" />
    <glyph glyph-name="R.alt" unicode="&#xe141;" horiz-adv-x="527" 
d="M513 0h-110l-160 229h-68v-229h-92v589h180q206 0 206 -179q0 -67 -34 -112.5t-94 -58.5zM175 301h89q109 0 109 104q0 50 -27 78.5t-82 28.5h-89v-211z" />
    <glyph glyph-name="Racute.alt" unicode="&#xe142;" horiz-adv-x="527" 
d="M513 0h-110l-160 229h-68v-229h-92v589h180q206 0 206 -179q0 -67 -34 -112.5t-94 -58.5zM175 301h89q109 0 109 104q0 50 -27 78.5t-82 28.5h-89v-211zM178 653l63 123h120l-101 -123h-82z" />
    <glyph glyph-name="Rcaron.alt" unicode="&#xe143;" horiz-adv-x="527" 
d="M513 0h-110l-160 229h-68v-229h-92v589h180q206 0 206 -179q0 -67 -34 -112.5t-94 -58.5zM175 301h89q109 0 109 104q0 50 -27 78.5t-82 28.5h-89v-211zM222 649l-124 129h96l32 -33q8 -9 14 -17.5t8 -12.5l1 -4h3q4 14 23 34l31 33h97l-125 -129h-56z" />
    <glyph glyph-name="uni0212.alt" unicode="&#xe144;" horiz-adv-x="527" 
d="M513 0h-110l-160 229h-68v-229h-92v589h180q206 0 206 -179q0 -67 -34 -112.5t-94 -58.5zM175 301h89q109 0 109 104q0 50 -27 78.5t-82 28.5h-89v-211zM250 787q65 0 100.5 -35.5t35.5 -96.5h-71q-2 33 -17 49.5t-48 16.5t-47.5 -16.5t-16.5 -49.5h-71q0 61 35.5 96.5
t99.5 35.5z" />
    <glyph glyph-name="uniE145" unicode="&#xe145;" horiz-adv-x="527" 
d="M513 0h-110l-160 229h-68v-229h-92v589h180q206 0 206 -179q0 -67 -34 -112.5t-94 -58.5zM175 301h89q109 0 109 104q0 50 -27 78.5t-82 28.5h-89v-211zM301 653l-104 123h109l62 -123h-67zM150 653l-115 123h113l73 -123h-71z" />
    <glyph glyph-name="Rcommaaccent.alt" unicode="&#xe147;" horiz-adv-x="527" 
d="M513 0h-110l-160 229h-68v-229h-92v589h180q206 0 206 -179q0 -67 -34 -112.5t-94 -58.5zM175 301h89q109 0 109 104q0 50 -27 78.5t-82 28.5h-89v-211zM370 -124q0 -42 -29.5 -64.5t-75.5 -22.5q-61 0 -90 38l24 51q25 -36 63 -36q36 0 36 34q0 41 -66 42l7 90h46
l-3 -49q88 -7 88 -83z" />
    <glyph glyph-name="uni1E5A.alt" unicode="&#xe148;" horiz-adv-x="527" 
d="M513 0h-110l-160 229h-68v-229h-92v589h180q206 0 206 -179q0 -67 -34 -112.5t-94 -58.5zM175 301h89q109 0 109 104q0 50 -27 78.5t-82 28.5h-89v-211zM202 -139q0 26 17.5 43t42.5 17q26 0 44 -17t18 -43q0 -25 -18 -42.5t-44 -17.5q-25 0 -42.5 17.5t-17.5 42.5z" />
    <glyph glyph-name="uni1E5C.alt" unicode="&#xe149;" horiz-adv-x="527" 
d="M513 0h-110l-160 229h-68v-229h-92v589h180q206 0 206 -179q0 -67 -34 -112.5t-94 -58.5zM175 301h89q109 0 109 104q0 50 -27 78.5t-82 28.5h-89v-211zM208 -139q0 26 17.5 43t42.5 17q26 0 44 -17t18 -43q0 -25 -18 -42.5t-44 -17.5q-25 0 -42.5 17.5t-17.5 42.5z
M113 674v71h264v-71h-264z" />
    <glyph glyph-name="aogonek.school" unicode="&#xe150;" 
d="M401 462h61v-462q-45 -2 -76 -27.5t-31 -66.5q0 -56 49 -56q44 0 69 42l29 -44q-35 -59 -115 -59q-52 0 -82 26.5t-30 74.5q0 46 30 78t75 49l-8 63q-34 -92 -147 -92q-77 0 -130 62t-53 173q0 118 54 184t153 66q44 0 78.5 -20.5t46.5 -50.5zM372 288q0 56 -35 86
t-80 30q-56 0 -90 -42.5t-34 -135.5q0 -80 33 -123t90 -43q43 0 79.5 33t36.5 91v104z" />
    <glyph glyph-name="a.school" unicode="&#xe151;" 
d="M372 287q0 56 -35 86t-80 30q-56 0 -90 -42.5t-34 -134.5q0 -80 33 -123.5t90 -43.5q43 0 79.5 33t36.5 91v104zM401 462h61v-462h-80l-10 80q-34 -92 -147 -92q-77 0 -130 62t-53 173q0 118 54 184t153 66q44 0 78.5 -20.5t46.5 -50.5z" />
    <glyph glyph-name="agrave.school" unicode="&#xe152;" 
d="M372 287q0 56 -35 86t-80 30q-56 0 -90 -42.5t-34 -134.5q0 -80 33 -123.5t90 -43.5q43 0 79.5 33t36.5 91v104zM401 462h61v-462h-80l-10 80q-34 -92 -147 -92q-77 0 -130 62t-53 173q0 118 54 184t153 66q44 0 78.5 -20.5t46.5 -50.5zM219 529l-115 146h121l74 -146
h-80z" />
    <glyph glyph-name="aacute.school" unicode="&#xe153;" 
d="M372 287q0 56 -35 86t-80 30q-56 0 -90 -42.5t-34 -134.5q0 -80 33 -123.5t90 -43.5q43 0 79.5 33t36.5 91v104zM401 462h61v-462h-80l-10 80q-34 -92 -147 -92q-77 0 -130 62t-53 173q0 118 54 184t153 66q44 0 78.5 -20.5t46.5 -50.5zM216 529l74 146h121l-116 -146
h-79z" />
    <glyph glyph-name="acircumflex.school" unicode="&#xe154;" 
d="M372 287q0 56 -35 86t-80 30q-56 0 -90 -42.5t-34 -134.5q0 -80 33 -123.5t90 -43.5q43 0 79.5 33t36.5 91v104zM401 462h61v-462h-80l-10 80q-34 -92 -147 -92q-77 0 -130 62t-53 173q0 118 54 184t153 66q44 0 78.5 -20.5t46.5 -50.5zM291 675l125 -147h-92l-34 42
q-8 10 -14 19.5t-8 14.5l-1 4h-5q-4 -15 -23 -38l-34 -42h-92l125 147h53z" />
    <glyph glyph-name="adieresis.school" unicode="&#xe155;" 
d="M372 287q0 56 -35 86t-80 30q-56 0 -90 -42.5t-34 -134.5q0 -80 33 -123.5t90 -43.5q43 0 79.5 33t36.5 91v104zM401 462h61v-462h-80l-10 80q-34 -92 -147 -92q-77 0 -130 62t-53 173q0 118 54 184t153 66q44 0 78.5 -20.5t46.5 -50.5zM109 595q0 26 17.5 43t41.5 17
q25 0 42.5 -17t17.5 -43q0 -25 -17.5 -42t-42.5 -17q-24 0 -41.5 17t-17.5 42zM305 594q0 26 17.5 43t41.5 17q26 0 43 -17t17 -43q0 -25 -17.5 -42t-42.5 -17q-24 0 -41.5 17t-17.5 42z" />
    <glyph glyph-name="atilde.school" unicode="&#xe156;" 
d="M372 287q0 56 -35 86t-80 30q-56 0 -90 -42.5t-34 -134.5q0 -80 33 -123.5t90 -43.5q43 0 79.5 33t36.5 91v104zM401 462h61v-462h-80l-10 80q-34 -92 -147 -92q-77 0 -130 62t-53 173q0 118 54 184t153 66q44 0 78.5 -20.5t46.5 -50.5zM334 529q-28 0 -72 23
q-42 25 -60 25q-36 0 -30 -47h-55q-19 49 3 86.5t71 37.5q34 0 79 -27q39 -23 55 -23q33 0 29 49h57q18 -53 -3 -88.5t-74 -35.5z" />
    <glyph glyph-name="aring.school" unicode="&#xe157;" 
d="M372 287q0 56 -35 86t-80 30q-56 0 -90 -42.5t-34 -134.5q0 -80 33 -123.5t90 -43.5q43 0 79.5 33t36.5 91v104zM401 462h61v-462h-80l-10 80q-34 -92 -147 -92q-77 0 -130 62t-53 173q0 118 54 184t153 66q44 0 78.5 -20.5t46.5 -50.5zM264 520q-48 0 -75.5 28.5
t-27.5 71.5q0 40 29 68t74 28t74 -28t29 -68q0 -43 -27.5 -71.5t-75.5 -28.5zM264 674q-25 0 -40 -15.5t-15 -40.5q0 -24 14.5 -38.5t40.5 -14.5t40.5 14.5t14.5 38.5q0 25 -15 40.5t-40 15.5z" />
    <glyph glyph-name="uni01CE.school" unicode="&#xe158;" 
d="M372 287q0 56 -35 86t-80 30q-56 0 -90 -42.5t-34 -134.5q0 -80 33 -123.5t90 -43.5q43 0 79.5 33t36.5 91v104zM401 462h61v-462h-80l-10 80q-34 -92 -147 -92q-77 0 -130 62t-53 173q0 118 54 184t153 66q44 0 78.5 -20.5t46.5 -50.5zM237 528l-125 147h92l34 -43
q8 -10 14 -19.5t8 -14.5l1 -4h5q4 15 23 38l34 43h92l-125 -147h-53z" />
    <glyph glyph-name="amacron.school" unicode="&#xe159;" 
d="M372 287q0 56 -35 86t-80 30q-56 0 -90 -42.5t-34 -134.5q0 -80 33 -123.5t90 -43.5q43 0 79.5 33t36.5 91v104zM401 462h61v-462h-80l-10 80q-34 -92 -147 -92q-77 0 -130 62t-53 173q0 118 54 184t153 66q44 0 78.5 -20.5t46.5 -50.5zM137 558v73h262v-73h-262z" />
    <glyph glyph-name="abreve.school" unicode="&#xe15a;" 
d="M372 287q0 56 -35 86t-80 30q-56 0 -90 -42.5t-34 -134.5q0 -80 33 -123.5t90 -43.5q43 0 79.5 33t36.5 91v104zM401 462h61v-462h-80l-10 80q-34 -92 -147 -92q-77 0 -130 62t-53 173q0 118 54 184t153 66q44 0 78.5 -20.5t46.5 -50.5zM262 526q-65 0 -100.5 38.5
t-35.5 102.5h71q3 -37 16 -55.5t49 -18.5q35 0 48.5 18.5t16.5 55.5h71q0 -64 -35.5 -102.5t-100.5 -38.5z" />
    <glyph glyph-name="uni0203.school" unicode="&#xe15b;" 
d="M372 287q0 56 -35 86t-80 30q-56 0 -90 -42.5t-34 -134.5q0 -80 33 -123.5t90 -43.5q43 0 79.5 33t36.5 91v104zM401 462h61v-462h-80l-10 80q-34 -92 -147 -92q-77 0 -130 62t-53 173q0 118 54 184t153 66q44 0 78.5 -20.5t46.5 -50.5zM265 672q65 0 100.5 -38.5
t35.5 -102.5h-71q-3 37 -16.5 55.5t-48.5 18.5q-36 0 -49 -18.5t-16 -55.5h-71q0 64 35.5 102.5t100.5 38.5z" />
    <glyph glyph-name="uniE15C" unicode="&#xe15c;" 
d="M372 287q0 56 -35 86t-80 30q-56 0 -90 -42.5t-34 -134.5q0 -80 33 -123.5t90 -43.5q43 0 79.5 33t36.5 91v104zM401 462h61v-462h-80l-10 80q-34 -92 -147 -92q-77 0 -130 62t-53 173q0 118 54 184t153 66q44 0 78.5 -20.5t46.5 -50.5zM309 529l-104 146h109l62 -146
h-67zM158 529l-115 146h113l73 -146h-71z" />
    <glyph glyph-name="uniE15D" unicode="&#xe15d;" 
d="M372 287q0 56 -35 86t-80 30q-56 0 -90 -42.5t-34 -134.5q0 -80 33 -123.5t90 -43.5q43 0 79.5 33t36.5 91v104zM401 462h61v-462h-80l-10 80q-34 -92 -147 -92q-77 0 -130 62t-53 173q0 118 54 184t153 66q44 0 78.5 -20.5t46.5 -50.5zM200 595q0 26 17.5 43t42.5 17
q26 0 44 -17t18 -43q0 -25 -18 -42.5t-44 -17.5q-25 0 -42.5 17.5t-17.5 42.5z" />
    <glyph glyph-name="aringacute.school" unicode="&#xe15e;" 
d="M372 287q0 56 -35 86t-80 30q-56 0 -90 -42.5t-34 -134.5q0 -80 33 -123.5t90 -43.5q43 0 79.5 33t36.5 91v104zM401 462h61v-462h-80l-10 80q-34 -92 -147 -92q-77 0 -130 62t-53 173q0 118 54 184t153 66q44 0 78.5 -20.5t46.5 -50.5zM257 503q-48 0 -75.5 28.5
t-27.5 71.5q0 40 29 68t74 28t74 -28t29 -68q0 -43 -27.5 -71.5t-75.5 -28.5zM257 657q-25 0 -40 -15.5t-15 -40.5q0 -24 14.5 -38.5t40.5 -14.5t40.5 14.5t14.5 38.5q0 25 -15 40.5t-40 15.5zM210 735l63 123h120l-101 -123h-82z" />
    <glyph glyph-name="uni01DF.school" unicode="&#xe15f;" 
d="M372 287q0 56 -35 86t-80 30q-56 0 -90 -42.5t-34 -134.5q0 -80 33 -123.5t90 -43.5q43 0 79.5 33t36.5 91v104zM401 462h61v-462h-80l-10 80q-34 -92 -147 -92q-77 0 -130 62t-53 173q0 118 54 184t153 66q44 0 78.5 -20.5t46.5 -50.5zM110 568q0 26 17.5 43t41.5 17
q25 0 42.5 -17t17.5 -43q0 -25 -17.5 -42t-42.5 -17q-24 0 -41.5 17t-17.5 42zM306 567q0 26 17.5 43t41.5 17q26 0 43 -17t17 -43q0 -25 -17.5 -42t-42.5 -17q-24 0 -41.5 17t-17.5 42zM138 671v73h262v-73h-262z" />
    <glyph glyph-name="uni1EF9.school" unicode="&#xe160;" horiz-adv-x="508" 
d="M156 462v-303q0 -101 83 -101q41 0 74 36t33 98v270h90v-456q0 -111 -58 -164t-155 -53q-144 0 -189 121l73 42q28 -93 117 -93q122 0 122 136v82q-27 -86 -139 -86q-141 0 -141 153v318h90zM322 529q-28 0 -72 23q-42 25 -60 25q-36 0 -30 -47h-55q-19 49 3 86.5
t71 37.5q34 0 79 -27q39 -23 55 -23q33 0 29 49h57q18 -53 -3 -88.5t-74 -35.5z" />
    <glyph glyph-name="g.school" unicode="&#xe161;" 
d="M462 462v-446q0 -61 -19.5 -106.5t-52.5 -71t-71 -37.5t-79 -12q-160 0 -207 122l75 42q31 -93 131 -93q60 0 96.5 37.5t36.5 107.5v78q-35 -92 -148 -92q-76 0 -129 60.5t-53 172.5q0 115 54.5 182t151.5 67q44 0 79 -21t47 -51l27 61h61zM372 287q0 56 -35 86t-80 30
q-56 0 -90 -42.5t-34 -134.5q0 -80 33 -122.5t90 -42.5q43 0 79.5 33t36.5 93v100z" />
    <glyph glyph-name="uni01F5.school" unicode="&#xe162;" 
d="M462 462v-446q0 -61 -19.5 -106.5t-52.5 -71t-71 -37.5t-79 -12q-160 0 -207 122l75 42q31 -93 131 -93q60 0 96.5 37.5t36.5 107.5v78q-35 -92 -148 -92q-76 0 -129 60.5t-53 172.5q0 115 54.5 182t151.5 67q44 0 79 -21t47 -51l27 61h61zM372 287q0 56 -35 86t-80 30
q-56 0 -90 -42.5t-34 -134.5q0 -80 33 -122.5t90 -42.5q43 0 79.5 33t36.5 93v100zM218 529l74 146h121l-116 -146h-79z" />
    <glyph glyph-name="gcircumflex.school" unicode="&#xe163;" 
d="M462 462v-446q0 -61 -19.5 -106.5t-52.5 -71t-71 -37.5t-79 -12q-160 0 -207 122l75 42q31 -93 131 -93q60 0 96.5 37.5t36.5 107.5v78q-35 -92 -148 -92q-76 0 -129 60.5t-53 172.5q0 115 54.5 182t151.5 67q44 0 79 -21t47 -51l27 61h61zM372 287q0 56 -35 86t-80 30
q-56 0 -90 -42.5t-34 -134.5q0 -80 33 -122.5t90 -42.5q43 0 79.5 33t36.5 93v100zM294 675l125 -147h-92l-34 42q-8 10 -14 19.5t-7 14.5l-2 4h-5q-4 -15 -23 -38l-34 -42h-92l125 147h53z" />
    <glyph glyph-name="uniE164" unicode="&#xe164;" 
d="M462 462v-446q0 -61 -19.5 -106.5t-52.5 -71t-71 -37.5t-79 -12q-160 0 -207 122l75 42q31 -93 131 -93q60 0 96.5 37.5t36.5 107.5v78q-35 -92 -148 -92q-76 0 -129 60.5t-53 172.5q0 115 54.5 182t151.5 67q44 0 79 -21t47 -51l27 61h61zM372 287q0 56 -35 86t-80 30
q-56 0 -90 -42.5t-34 -134.5q0 -80 33 -122.5t90 -42.5q43 0 79.5 33t36.5 93v100zM343 529q-28 0 -72 23q-42 25 -60 25q-36 0 -30 -47h-55q-19 49 3 86.5t71 37.5q34 0 79 -27q39 -23 55 -23q33 0 29 49h57q18 -53 -3 -88.5t-74 -35.5z" />
    <glyph glyph-name="gcaron.school" unicode="&#xe165;" 
d="M462 462v-446q0 -61 -19.5 -106.5t-52.5 -71t-71 -37.5t-79 -12q-160 0 -207 122l75 42q31 -93 131 -93q60 0 96.5 37.5t36.5 107.5v78q-35 -92 -148 -92q-76 0 -129 60.5t-53 172.5q0 115 54.5 182t151.5 67q44 0 79 -21t47 -51l27 61h61zM372 287q0 56 -35 86t-80 30
q-56 0 -90 -42.5t-34 -134.5q0 -80 33 -122.5t90 -42.5q43 0 79.5 33t36.5 93v100zM239 528l-125 147h92l34 -43q8 -10 14 -19.5t8 -14.5l1 -4h5q4 15 23 38l34 43h92l-125 -147h-53z" />
    <glyph glyph-name="gbreve.school" unicode="&#xe166;" 
d="M462 462v-446q0 -61 -19.5 -106.5t-52.5 -71t-71 -37.5t-79 -12q-160 0 -207 122l75 42q31 -93 131 -93q60 0 96.5 37.5t36.5 107.5v78q-35 -92 -148 -92q-76 0 -129 60.5t-53 172.5q0 115 54.5 182t151.5 67q44 0 79 -21t47 -51l27 61h61zM372 287q0 56 -35 86t-80 30
q-56 0 -90 -42.5t-34 -134.5q0 -80 33 -122.5t90 -42.5q43 0 79.5 33t36.5 93v100zM262 526q-65 0 -100.5 38.5t-35.5 102.5h71q3 -37 16 -55.5t49 -18.5q35 0 48.5 18.5t16.5 55.5h71q0 -64 -35.5 -102.5t-100.5 -38.5z" />
    <glyph glyph-name="gdotaccent.school" unicode="&#xe167;" 
d="M462 462v-446q0 -61 -19.5 -106.5t-52.5 -71t-71 -37.5t-79 -12q-160 0 -207 122l75 42q31 -93 131 -93q60 0 96.5 37.5t36.5 107.5v78q-35 -92 -148 -92q-76 0 -129 60.5t-53 172.5q0 115 54.5 182t151.5 67q44 0 79 -21t47 -51l27 61h61zM372 287q0 56 -35 86t-80 30
q-56 0 -90 -42.5t-34 -134.5q0 -80 33 -122.5t90 -42.5q43 0 79.5 33t36.5 93v100zM201 595q0 26 17.5 43t42.5 17q26 0 44 -17t18 -43q0 -25 -18 -42.5t-44 -17.5q-25 0 -42.5 17.5t-17.5 42.5z" />
    <glyph glyph-name="gcommaaccent.school" unicode="&#xe168;" 
d="M462 462v-446q0 -61 -19.5 -106.5t-52.5 -71t-71 -37.5t-79 -12q-160 0 -207 122l75 42q31 -93 131 -93q60 0 96.5 37.5t36.5 107.5v78q-35 -92 -148 -92q-76 0 -129 60.5t-53 172.5q0 115 54.5 182t151.5 67q44 0 79 -21t47 -51l27 61h61zM372 287q0 56 -35 86t-80 30
q-56 0 -90 -42.5t-34 -134.5q0 -80 33 -122.5t90 -42.5q43 0 79.5 33t36.5 93v100zM207 611q0 105 121 105v-37q-31 -2 -45.5 -11t-14.5 -32q27 4 44 -9t17 -38t-16 -39t-41 -14q-27 0 -46 20.5t-19 54.5z" />
    <glyph glyph-name="uniE169" unicode="&#xe169;" 
d="M462 462v-446q0 -61 -19.5 -106.5t-52.5 -71t-71 -37.5t-79 -12q-160 0 -207 122l75 42q31 -93 131 -93q60 0 96.5 37.5t36.5 107.5v78q-35 -92 -148 -92q-76 0 -129 60.5t-53 172.5q0 115 54.5 182t151.5 67q44 0 79 -21t47 -51l27 61h61zM372 287q0 56 -35 86t-80 30
q-56 0 -90 -42.5t-34 -134.5q0 -80 33 -122.5t90 -42.5q43 0 79.5 33t36.5 93v100zM207 611q0 105 121 105v-37q-31 -2 -45.5 -11t-14.5 -32q27 4 44 -9t17 -38t-16 -39t-41 -14q-27 0 -46 20.5t-19 54.5z" />
    <glyph glyph-name="uni01E5.school" unicode="&#xe16a;" 
d="M217 -52h147q8 26 8 55v80q-38 -92 -148 -92q-76 0 -129 60.5t-53 172.5q0 115 54.5 182t151.5 67q44 0 79 -21t47 -51l27 61h61v-446q0 -34 -8 -68h80v-35h-91q-26 -63 -82 -93.5t-121 -30.5q-160 0 -207 122l75 40q31 -93 131 -93q73 0 110 55h-132v35zM372 288
q0 56 -36 86t-80 30q-47 0 -85 -45.5t-38 -131.5q0 -80 32.5 -122t90.5 -42q43 0 79.5 32.5t36.5 92.5v100z" />
    <glyph glyph-name="y.school" unicode="&#xe16b;" horiz-adv-x="508" 
d="M156 462v-303q0 -101 83 -101q41 0 74 36t33 98v270h90v-456q0 -111 -58 -164t-155 -53q-144 0 -189 121l73 42q28 -93 117 -93q122 0 122 136v82q-27 -86 -139 -86q-141 0 -141 153v318h90z" />
    <glyph glyph-name="ygrave.school" unicode="&#xe16c;" horiz-adv-x="508" 
d="M156 462v-303q0 -101 83 -101q41 0 74 36t33 98v270h90v-456q0 -111 -58 -164t-155 -53q-144 0 -189 121l73 42q28 -93 117 -93q122 0 122 136v82q-27 -86 -139 -86q-141 0 -141 153v318h90zM218 529l-115 146h121l74 -146h-80z" />
    <glyph glyph-name="yacute.school" unicode="&#xe16d;" horiz-adv-x="508" 
d="M156 462v-303q0 -101 83 -101q41 0 74 36t33 98v270h90v-456q0 -111 -58 -164t-155 -53q-144 0 -189 121l73 42q28 -93 117 -93q122 0 122 136v82q-27 -86 -139 -86q-141 0 -141 153v318h90zM206 529l74 146h121l-116 -146h-79z" />
    <glyph glyph-name="ycircumflex.school" unicode="&#xe16e;" horiz-adv-x="508" 
d="M156 462v-303q0 -101 83 -101q41 0 74 36t33 98v270h90v-456q0 -111 -58 -164t-155 -53q-144 0 -189 121l73 42q28 -93 117 -93q122 0 122 136v82q-27 -86 -139 -86q-141 0 -141 153v318h90zM272 675l125 -147h-92l-34 42q-8 10 -14 19.5t-7 14.5l-2 4h-5q-4 -15 -23 -38
l-34 -42h-92l125 147h53z" />
    </font>
</defs>
</svg>
